# vtk DataFile Version 5.1
vtk output
ASCII
DATASET STRUCTURED_GRID
DIMENSIONS 255 1 1
POINTS 255 float
1.22119 2.13115 -5 1.22126 2.13126 -4.96 1.22145 2.13159 -4.92 
1.22177 2.13215 -4.88001 1.22222 2.13293 -4.84002 1.2228 2.13394 -4.80003 
1.2235 2.13517 -4.76006 1.22433 2.13661 -4.72009 1.22528 2.13828 -4.68014 
1.22636 2.14016 -4.6402 1.22757 2.14227 -4.60027 1.22889 2.14458 -4.56036 
1.23034 2.14711 -4.52047 1.23191 2.14985 -4.48059 1.2336 2.1528 -4.44074 
1.23541 2.15596 -4.4009 1.23734 2.15933 -4.36109 1.23938 2.16289 -4.3213 
1.24154 2.16665 -4.28154 1.2438 2.1706 -4.2418 1.24618 2.17476 -4.20209 
1.24868 2.17911 -4.1624 1.25127 2.18364 -4.12275 1.25397 2.18835 -4.08312 
1.25678 2.19324 -4.04351 1.25968 2.19832 -4.00394 1.26269 2.20357 -3.96441 
1.2658 2.20899 -3.9249 1.269 2.21457 -3.88542 1.27228 2.22031 -3.84597 
1.27567 2.22621 -3.80655 1.27914 2.23227 -3.76716 1.2827 2.23849 -3.72781 
1.28634 2.24484 -3.68849 1.29006 2.25133 -3.64919 1.29386 2.25796 -3.60993 
1.29774 2.26473 -3.5707 1.30169 2.27163 -3.5315 1.30572 2.27865 -3.49232 
1.3098 2.28578 -3.45318 1.31396 2.29304 -3.41406 1.31818 2.30041 -3.37497 
1.32247 2.30789 -3.33591 1.32681 2.31547 -3.29688 1.33121 2.32313 -3.25787 
1.33565 2.33089 -3.21888 1.34016 2.33875 -3.17992 1.34471 2.3467 -3.14098 
1.3493 2.35472 -3.10206 1.35394 2.3628 -3.06316 1.35861 2.37096 -3.02428 
1.36332 2.37918 -2.98542 1.36808 2.38748 -2.94658 1.37286 2.39582 -2.90776 
1.37766 2.40421 -2.86894 1.3825 2.41264 -2.83014 1.38735 2.42111 -2.79135 
1.39223 2.42963 -2.75257 1.39713 2.43818 -2.71381 1.40204 2.44675 -2.67505 
1.40696 2.45534 -2.63629 1.4119 2.46395 -2.59754 1.41684 2.47257 -2.55879 
1.42179 2.48121 -2.52005 1.42673 2.48984 -2.48131 1.43168 2.49846 -2.44256 
1.43661 2.50708 -2.40382 1.44155 2.51569 -2.36507 1.44648 2.5243 -2.32632 
1.45139 2.53287 -2.28756 1.45629 2.54141 -2.24879 1.46116 2.54992 -2.21001 
1.46602 2.5584 -2.17122 1.47086 2.56685 -2.13242 1.47567 2.57525 -2.09361 
1.48045 2.58359 -2.05478 1.4852 2.59187 -2.01594 1.48991 2.6001 -1.97708 
1.49459 2.60827 -1.9382 1.49924 2.61637 -1.89931 1.50383 2.62439 -1.86039 
1.50838 2.63233 -1.82145 1.51288 2.64018 -1.78249 1.51734 2.64796 -1.74351 
1.52174 2.65564 -1.7045 1.52609 2.66322 -1.66547 1.53037 2.6707 -1.6264 
1.53459 2.67807 -1.58732 1.53876 2.68534 -1.5482 1.54286 2.69249 -1.50906 
1.54688 2.69952 -1.46989 1.55084 2.70642 -1.43069 1.55472 2.71319 -1.39146 
1.55852 2.71983 -1.3522 1.56225 2.72634 -1.31291 1.5659 2.7327 -1.27359 
1.56946 2.73892 -1.23423 1.57293 2.74498 -1.19485 1.57632 2.75089 -1.15543 
1.57962 2.75665 -1.11599 1.58283 2.76224 -1.07651 1.58593 2.76766 -1.037 
1.58894 2.77292 -0.99746 1.59185 2.778 -0.957891 1.59467 2.78291 -0.918293 
1.59738 2.78763 -0.878666 1.59998 2.79217 -0.83901 1.60247 2.79652 -0.799325 
1.60485 2.80069 -0.759614 1.60713 2.80466 -0.719877 1.60929 2.80843 -0.680114 
1.61134 2.812 -0.640326 1.61327 2.81537 -0.600515 1.61509 2.81854 -0.560682 
1.61678 2.8215 -0.520828 1.61836 2.82425 -0.480954 1.61981 2.82679 -0.441061 
1.62115 2.82912 -0.401151 1.62236 2.83123 -0.361225 1.62344 2.83312 -0.321285 
1.6244 2.8348 -0.281331 1.62524 2.83625 -0.241367 1.62594 2.83749 -0.201392 
1.62652 2.8385 -0.161409 1.62698 2.83929 -0.121419 1.6273 2.83986 -0.0814247 
1.6275 2.8402 -0.0414266 1.62757 2.84032 -0.00142687 1.62751 2.84022 0.038573 
1.62732 2.83989 0.0785712 1.627 2.83934 0.118566 1.62656 2.83856 0.158556 
1.62599 2.83757 0.19854 1.62529 2.83635 0.238515 1.62447 2.83491 0.27848 
1.62351 2.83325 0.318435 1.62244 2.83137 0.358376 1.62124 2.82927 0.398303 
1.61991 2.82697 0.438214 1.61847 2.82444 0.478109 1.6169 2.8217 0.517984 
1.61521 2.81876 0.55784 1.61341 2.81561 0.597674 1.61148 2.81225 0.637487 
1.60944 2.80869 0.677276 1.60729 2.80493 0.717041 1.60502 2.80098 0.75678 
1.60264 2.79683 0.796493 1.60016 2.79249 0.83618 1.59757 2.78796 0.875838 
1.59486 2.78325 0.915467 1.59206 2.77836 0.955067 1.58915 2.77329 0.994639 
1.58615 2.76805 1.03418 1.58305 2.76263 1.07369 1.57985 2.75705 1.11317 
1.57656 2.75131 1.15262 1.57318 2.74541 1.19204 1.56971 2.73935 1.23142 
1.56616 2.73315 1.27078 1.56252 2.7268 1.3101 1.55879 2.7203 1.3494 
1.55499 2.71367 1.38866 1.55112 2.70691 1.42789 1.54717 2.70001 1.4671 
1.54315 2.693 1.50627 1.53905 2.68585 1.54541 1.53489 2.67859 1.58453 
1.53067 2.67123 1.62362 1.52639 2.66376 1.66268 1.52205 2.65619 1.70172 
1.51765 2.64851 1.74072 1.5132 2.64074 1.77971 1.5087 2.63289 1.81867 
1.50416 2.62496 1.85761 1.49957 2.61694 1.89653 1.49493 2.60885 1.93543 
1.49025 2.60068 1.97431 1.48554 2.59246 2.01317 1.48079 2.58418 2.05201 
1.47601 2.57584 2.09084 1.47121 2.56745 2.12965 1.46637 2.55901 2.16845 
1.46151 2.55053 2.20724 1.45663 2.54202 2.24602 1.45174 2.53348 2.28479 
1.44683 2.52491 2.32355 1.4419 2.51631 2.3623 1.43697 2.5077 2.40105 
1.43203 2.49908 2.4398 1.42709 2.49046 2.47854 1.42214 2.48183 2.51729 
1.41719 2.47319 2.55603 1.41225 2.46456 2.59477 1.40732 2.45595 2.63352 
1.40239 2.44736 2.67228 1.39748 2.43879 2.71104 1.39258 2.43024 2.74981 
1.3877 2.42172 2.78858 1.38284 2.41324 2.82737 1.37801 2.40481 2.86617 
1.3732 2.39642 2.90499 1.36842 2.38807 2.94381 1.36366 2.37977 2.98265 
1.35895 2.37154 3.02151 1.35427 2.36338 3.06039 1.34963 2.35529 3.09929 
1.34504 2.34727 3.1382 1.34048 2.33932 3.17714 1.33597 2.33145 3.2161 
1.33152 2.32369 3.25508 1.32712 2.31601 3.29409 1.32278 2.30843 3.33313 
1.31849 2.30094 3.37219 1.31426 2.29356 3.41127 1.3101 2.2863 3.45039 
1.30601 2.27916 3.48953 1.30198 2.27213 3.5287 1.29802 2.26522 3.5679 
1.29413 2.25844 3.60713 1.29033 2.2518 3.64639 1.2866 2.2453 3.68568 
1.28296 2.23893 3.725 1.27939 2.23271 3.76436 1.27591 2.22664 3.80374 
1.27252 2.22072 3.84315 1.26923 2.21497 3.8826 1.26602 2.20938 3.92208 
1.26291 2.20395 3.96159 1.2599 2.19869 4.00112 1.25698 2.1936 4.04069 
1.25417 2.1887 4.08029 1.25146 2.18397 4.11992 1.24886 2.17943 4.15957 
1.24636 2.17506 4.19926 1.24397 2.1709 4.23897 1.2417 2.16692 4.2787 
1.23953 2.16315 4.31847 1.23748 2.15957 4.35825 1.23555 2.15619 4.39806 
1.23373 2.15302 4.43789 1.23203 2.15006 4.47775 1.23045 2.1473 4.51762 
1.22899 2.14476 4.55752 1.22766 2.14242 4.59742 1.22644 2.14031 4.63735 
1.22535 2.13841 4.67729 1.22439 2.13673 4.71724 1.22355 2.13526 4.75721 
1.22284 2.13402 4.79718 1.22226 2.133 4.83716 1.2218 2.1322 4.87715 
1.22147 2.13163 4.91715 1.22127 2.13128 4.95715 1.2212 2.13115 4.99715 

