# vtk DataFile Version 5.1
vtk output
ASCII
DATASET STRUCTURED_GRID
DIMENSIONS 254 1 1
POINTS 254 float
0.527748 -2.34589 -5 0.527775 -2.34601 -4.96 0.527858 -2.34638 -4.92 
0.527997 -2.347 -4.88001 0.52819 -2.34786 -4.84002 0.528439 -2.34897 -4.80003 
0.528743 -2.35032 -4.76006 0.529101 -2.35191 -4.72009 0.529514 -2.35374 -4.68013 
0.52998 -2.35582 -4.64019 0.530501 -2.35813 -4.60026 0.531075 -2.36068 -4.56035 
0.531702 -2.36347 -4.52045 0.53238 -2.36648 -4.48057 0.53311 -2.36973 -4.44071 
0.533893 -2.37321 -4.40087 0.534727 -2.37691 -4.36105 0.535609 -2.38084 -4.32125 
0.536541 -2.38498 -4.28148 0.537521 -2.38933 -4.24173 0.53855 -2.39391 -4.202 
0.539628 -2.3987 -4.1623 0.54075 -2.40369 -4.12263 0.541918 -2.40888 -4.08299 
0.54313 -2.41427 -4.04337 0.544387 -2.41985 -4.00378 0.545689 -2.42564 -3.96422 
0.547031 -2.43161 -3.9247 0.548413 -2.43775 -3.88519 0.549836 -2.44408 -3.84572 
0.551299 -2.45058 -3.80628 0.552802 -2.45726 -3.76687 0.554341 -2.4641 -3.72749 
0.555915 -2.4711 -3.68814 0.557524 -2.47825 -3.64882 0.559167 -2.48556 -3.60952 
0.560846 -2.49302 -3.57026 0.562557 -2.50062 -3.53103 0.564297 -2.50836 -3.49182 
0.566065 -2.51622 -3.45264 0.567864 -2.52421 -3.41349 0.569691 -2.53234 -3.37437 
0.571546 -2.54058 -3.33527 0.573424 -2.54893 -3.2962 0.575325 -2.55738 -3.25715 
0.57725 -2.56593 -3.21812 0.579198 -2.57459 -3.17912 0.581168 -2.58335 -3.14014 
0.583157 -2.59219 -3.10118 0.585162 -2.6011 -3.06223 0.587184 -2.61009 -3.02331 
0.589224 -2.61916 -2.9844 0.59128 -2.6283 -2.94552 0.593349 -2.6375 -2.90664 
0.595429 -2.64674 -2.86778 0.59752 -2.65604 -2.82893 0.599621 -2.66538 -2.7901 
0.601734 -2.67477 -2.75127 0.603854 -2.68419 -2.71245 0.605979 -2.69364 -2.67364 
0.608109 -2.7031 -2.63484 0.610243 -2.71259 -2.59604 0.612382 -2.7221 -2.55724 
0.614523 -2.73162 -2.51845 0.616664 -2.74113 -2.47966 0.618802 -2.75064 -2.44086 
0.620939 -2.76014 -2.40207 0.623075 -2.76963 -2.36327 0.625207 -2.77911 -2.32447 
0.627333 -2.78856 -2.28566 0.629451 -2.79797 -2.24684 0.631561 -2.80735 -2.20801 
0.633663 -2.81669 -2.16917 0.635756 -2.826 -2.13033 0.637837 -2.83525 -2.09147 
0.639905 -2.84444 -2.05259 0.641958 -2.85356 -2.0137 0.643997 -2.86263 -1.97479 
0.646021 -2.87163 -1.93587 0.648028 -2.88055 -1.89693 0.650015 -2.88938 -1.85797 
0.651982 -2.89812 -1.81899 0.653929 -2.90677 -1.77998 0.655855 -2.91534 -1.74096 
0.657758 -2.9238 -1.70191 0.659636 -2.93214 -1.66283 0.661487 -2.94037 -1.62373 
0.663312 -2.94849 -1.58461 0.665111 -2.95648 -1.54545 0.666882 -2.96435 -1.50628 
0.668621 -2.97209 -1.46707 0.670329 -2.97968 -1.42783 0.672005 -2.98713 -1.38857 
0.673648 -2.99443 -1.34928 0.675259 -3.00159 -1.30996 0.676833 -3.00859 -1.2706 
0.67837 -3.01542 -1.23122 0.67987 -3.02208 -1.19181 0.681331 -3.02858 -1.15237 
0.682755 -3.03491 -1.1129 0.684137 -3.04106 -1.0734 0.685478 -3.04701 -1.03387 
0.686776 -3.05278 -0.994305 0.688031 -3.05836 -0.954716 0.689244 -3.06375 -0.915099 
0.690411 -3.06894 -0.875454 0.691532 -3.07392 -0.835782 0.692606 -3.0787 -0.796082 
0.693633 -3.08326 -0.756357 0.694612 -3.08762 -0.716607 0.695543 -3.09176 -0.676832 
0.696424 -3.09567 -0.637034 0.697255 -3.09936 -0.597213 0.698034 -3.10283 -0.557372 
0.698763 -3.10607 -0.51751 0.699441 -3.10908 -0.477629 0.700065 -3.11186 -0.43773 
0.700637 -3.1144 -0.397815 0.701155 -3.1167 -0.357885 0.701619 -3.11876 -0.317941 
0.70203 -3.12059 -0.277985 0.702386 -3.12217 -0.238017 0.702687 -3.12351 -0.198041 
0.702933 -3.1246 -0.158057 0.703124 -3.12545 -0.118066 0.70326 -3.12606 -0.078071 
0.703341 -3.12642 -0.0380727 0.703366 -3.12653 0.00192716 0.703336 -3.12639 0.0419269 
0.70325 -3.12601 0.081925 0.703108 -3.12538 0.12192 0.702912 -3.12451 0.16191 
0.70266 -3.12339 0.201893 0.702354 -3.12203 0.241869 0.701993 -3.12042 0.281835 
0.701577 -3.11857 0.32179 0.701107 -3.11649 0.361733 0.700584 -3.11416 0.401662 
0.700007 -3.1116 0.441576 0.699378 -3.1088 0.481473 0.698695 -3.10577 0.521352 
0.697962 -3.10251 0.561212 0.697177 -3.09902 0.601051 0.696342 -3.0953 0.64087 
0.695456 -3.09137 0.680666 0.69452 -3.08721 0.720438 0.693536 -3.08283 0.760186 
0.692504 -3.07825 0.799909 0.691426 -3.07345 0.839606 0.6903 -3.06845 0.879276 
0.689129 -3.06324 0.918918 0.687912 -3.05784 0.958532 0.686653 -3.05224 0.998118 
0.685351 -3.04645 1.03768 0.684006 -3.04047 1.0772 0.682619 -3.03431 1.1167 
0.681192 -3.02796 1.15617 0.679727 -3.02145 1.19561 0.678224 -3.01477 1.23502 
0.676683 -3.00792 1.2744 0.675105 -3.00091 1.31375 0.673492 -2.99373 1.35306 
0.671845 -2.98642 1.39235 0.670166 -2.97895 1.43162 0.668455 -2.97135 1.47085 
0.666713 -2.9636 1.51005 0.664939 -2.95572 1.54923 0.663138 -2.94771 1.58838 
0.66131 -2.93958 1.6275 0.659456 -2.93134 1.6666 0.657576 -2.92299 1.70567 
0.65567 -2.91451 1.74472 0.653742 -2.90594 1.78374 0.651794 -2.89728 1.82274 
0.649825 -2.88853 1.86172 0.647836 -2.87969 1.90068 0.645827 -2.87076 1.93962 
0.643801 -2.86176 1.97854 0.641761 -2.85269 2.01745 0.639706 -2.84356 2.05634 
0.637638 -2.83436 2.09521 0.635555 -2.8251 2.13407 0.633461 -2.81579 2.17292 
0.631358 -2.80645 2.21175 0.629247 -2.79707 2.25058 0.627129 -2.78765 2.2894 
0.625002 -2.7782 2.32821 0.622869 -2.76871 2.36701 0.620733 -2.75922 2.4058 
0.618596 -2.74972 2.4446 0.616457 -2.74021 2.4834 0.614317 -2.7307 2.52219 
0.612176 -2.72118 2.56098 0.610037 -2.71168 2.59978 0.607903 -2.70219 2.63858 
0.605774 -2.69273 2.67738 0.60365 -2.68329 2.71619 0.60153 -2.67386 2.75501 
0.599418 -2.66448 2.79384 0.597318 -2.65514 2.83267 0.595228 -2.64585 2.87153 
0.593149 -2.63661 2.91039 0.591081 -2.62742 2.94926 0.589026 -2.61828 2.98815 
0.586988 -2.60922 3.02706 0.584968 -2.60024 3.06598 0.582964 -2.59134 3.10493 
0.580978 -2.58251 3.14389 0.579009 -2.57375 3.18287 0.577063 -2.5651 3.22188 
0.575141 -2.55656 3.26091 0.573242 -2.54812 3.29996 0.571366 -2.53978 3.33904 
0.569513 -2.53155 3.37814 0.567689 -2.52343 3.41726 0.565894 -2.51545 3.45642 
0.564128 -2.5076 3.4956 0.562391 -2.49988 3.53481 0.560683 -2.49229 3.57404 
0.559007 -2.48484 3.61331 0.557367 -2.47755 3.65261 0.555762 -2.47042 3.69193 
0.554191 -2.46344 3.73129 0.552655 -2.45661 3.77067 0.551156 -2.44994 3.81008 
0.549697 -2.44346 3.84952 0.548278 -2.43715 3.889 0.5469 -2.43102 3.9285 
0.545561 -2.42507 3.96803 0.544263 -2.41931 4.0076 0.543011 -2.41374 4.04719 
0.541803 -2.40837 4.08681 0.54064 -2.4032 4.12645 0.539522 -2.39823 4.16613 
0.538448 -2.39346 4.20583 0.537424 -2.3889 4.24555 0.536448 -2.38457 4.28531 
0.535522 -2.38045 4.32508 0.534644 -2.37655 4.36488 0.533815 -2.37286 4.4047 
0.533037 -2.3694 4.44455 0.532312 -2.36618 4.48441 0.531639 -2.36319 4.52429 
0.531018 -2.36043 4.56419 0.530448 -2.3579 4.60411 0.529933 -2.3556 4.64404 
0.529471 -2.35355 4.68398 0.529064 -2.35174 4.72394 0.528711 -2.35018 4.76391 
0.528413 -2.34885 4.80388 0.528169 -2.34776 4.84387 0.527981 -2.34693 4.88386 
0.527848 -2.34634 4.92386 0.52777 -2.34599 4.96385 
