# vtk DataFile Version 5.1
vtk output
ASCII
DATASET STRUCTURED_GRID
DIMENSIONS 254 1 1
POINTS 254 float
2.27708 0.306378 -5 2.2772 0.306394 -4.96 2.27756 0.306442 -4.92 
2.27816 0.306523 -4.88001 2.27899 0.306635 -4.84002 2.28007 0.30678 -4.80003 
2.28138 0.306956 -4.76005 2.28292 0.307164 -4.72008 2.2847 0.307403 -4.68012 
2.28671 0.307674 -4.64017 2.28896 0.307977 -4.60024 2.29144 0.30831 -4.56032 
2.29414 0.308674 -4.52041 2.29707 0.309068 -4.48052 2.30022 0.309492 -4.44065 
2.3036 0.309946 -4.40079 2.3072 0.310431 -4.36096 2.31101 0.310943 -4.32114 
2.31503 0.311484 -4.28135 2.31927 0.312054 -4.24158 2.32371 0.312652 -4.20183 
2.32836 0.313278 -4.16211 2.33321 0.31393 -4.12241 2.33825 0.314609 -4.08273 
2.34349 0.315313 -4.04308 2.34892 0.316044 -4.00346 2.35454 0.316801 -3.96386 
2.36034 0.317581 -3.92429 2.36632 0.318385 -3.88475 2.37246 0.319212 -3.84523 
2.37878 0.320062 -3.80575 2.38528 0.320936 -3.76629 2.39193 0.321831 -3.72685 
2.39874 0.322747 -3.68745 2.40569 0.323682 -3.64807 2.4128 0.324638 -3.60871 
2.42006 0.325615 -3.56939 2.42745 0.32661 -3.53009 2.43498 0.327622 -3.49082 
2.44263 0.328652 -3.45157 2.4504 0.329698 -3.41235 2.45831 0.330761 -3.37315 
2.46633 0.331841 -3.33398 2.47445 0.332934 -3.29483 2.48267 0.33404 -3.2557 
2.491 0.33516 -3.21659 2.49943 0.336294 -3.1775 2.50795 0.337441 -3.13844 
2.51655 0.338598 -3.09939 2.52523 0.339765 -3.06036 2.53398 0.340943 -3.02135 
2.5428 0.34213 -2.98235 2.5517 0.343327 -2.94337 2.56065 0.344531 -2.90441 
2.56965 0.345742 -2.86545 2.57869 0.346959 -2.82651 2.58779 0.348183 -2.78757 
2.59693 0.349413 -2.74865 2.6061 0.350647 -2.70974 2.6153 0.351884 -2.67083 
2.62451 0.353123 -2.63192 2.63374 0.354366 -2.59302 2.643 0.355611 -2.55413 
2.65226 0.356857 -2.51523 2.66152 0.358103 -2.47634 2.67077 0.359347 -2.43744 
2.68001 0.360591 -2.39855 2.68925 0.361834 -2.35965 2.69847 0.363075 -2.32075 
2.70766 0.364311 -2.28184 2.71682 0.365544 -2.24292 2.72594 0.366771 -2.20399 
2.73503 0.367994 -2.16506 2.74408 0.369212 -2.12611 2.75308 0.370422 -2.08716 
2.76201 0.371624 -2.04819 2.77088 0.372818 -2.0092 2.7797 0.374003 -1.9702 
2.78844 0.37518 -1.93119 2.79711 0.376346 -1.89215 2.80569 0.377501 -1.8531 
2.81419 0.378644 -1.81403 2.82259 0.379775 -1.77494 2.83091 0.380893 -1.73583 
2.83912 0.381999 -1.6967 2.84723 0.383089 -1.65754 2.85521 0.384164 -1.61836 
2.86309 0.385223 -1.57916 2.87085 0.386267 -1.53993 2.87848 0.387294 -1.50068 
2.88598 0.388303 -1.46141 2.89334 0.389294 -1.4221 2.90056 0.390266 -1.38277 
2.90764 0.391218 -1.34341 2.91458 0.392152 -1.30403 2.92136 0.393063 -1.26462 
2.92797 0.393954 -1.22518 2.93443 0.394822 -1.18571 2.94072 0.395668 -1.14622 
2.94684 0.396492 -1.1067 2.95278 0.397291 -1.06715 2.95854 0.398067 -1.02758 
2.96412 0.398817 -0.987976 2.96951 0.399542 -0.948347 2.97472 0.400243 -0.908694 
2.97973 0.400916 -0.869014 2.98453 0.401563 -0.829309 2.98914 0.402183 -0.78958 
2.99354 0.402775 -0.749827 2.99773 0.403339 -0.710052 3.00171 0.403875 -0.670254 
3.00548 0.404382 -0.630435 3.00903 0.404859 -0.590596 3.01236 0.405307 -0.550737 
3.01547 0.405726 -0.51086 3.01835 0.406114 -0.470966 3.02101 0.406471 -0.431056 
3.02344 0.406798 -0.391131 3.02563 0.407093 -0.351193 3.0276 0.407358 -0.311242 
3.02933 0.407591 -0.27128 3.03083 0.407792 -0.231309 3.03209 0.407962 -0.191329 
3.03311 0.4081 -0.151342 3.0339 0.408205 -0.11135 3.03444 0.408279 -0.0713539 
3.03475 0.40832 -0.0313551 3.03482 0.408329 0.00864485 3.03465 0.408306 0.0486445 
3.03424 0.408251 0.0886423 3.03359 0.408163 0.128637 3.0327 0.408044 0.168627 
3.03157 0.407893 0.208611 3.03021 0.407709 0.248587 3.02861 0.407494 0.288555 
3.02678 0.407247 0.328512 3.02471 0.40697 0.368457 3.02242 0.406661 0.40839 
3.01989 0.406321 0.448309 3.01713 0.40595 0.488212 3.01415 0.405548 0.528099 
3.01095 0.405117 0.567968 3.00752 0.404657 0.607818 3.00388 0.404166 0.647649 
3.00002 0.403647 0.687459 2.99594 0.403099 0.727247 2.99166 0.402522 0.767013 
2.98717 0.401918 0.806756 2.98248 0.401287 0.846474 2.97758 0.400628 0.886168 
2.97249 0.399943 0.925837 2.9672 0.399232 0.96548 2.96173 0.398496 1.0051 
2.95608 0.397735 1.04469 2.95024 0.396949 1.08425 2.94421 0.396138 1.12379 
2.93802 0.395305 1.1633 2.93166 0.394449 1.20278 2.92513 0.393571 1.24223 
2.91845 0.392672 1.28166 2.9116 0.391751 1.32106 2.9046 0.390809 1.36043 
2.89746 0.389848 1.39977 2.89018 0.388868 1.43909 2.88276 0.38787 1.47839 
2.8752 0.386853 1.51765 2.86751 0.385818 1.55689 2.8597 0.384767 1.59611 
2.85178 0.383701 1.6353 2.84374 0.38262 1.67447 2.83559 0.381523 1.71362 
2.82733 0.380411 1.75274 2.81897 0.379287 1.79184 2.81053 0.378151 1.83092 
2.802 0.377003 1.86999 2.79338 0.375844 1.90903 2.78467 0.374672 1.94805 
2.77589 0.373492 1.98706 2.76706 0.372303 2.02605 2.75816 0.371105 2.06503 
2.7492 0.3699 2.104 2.74018 0.368686 2.14295 2.73111 0.367466 2.18189 
2.72201 0.366241 2.22082 2.71287 0.365012 2.25974 2.7037 0.363778 2.29866 
2.69449 0.362539 2.33756 2.68526 0.361297 2.37646 2.67602 0.360054 2.41536 
2.66677 0.35881 2.45426 2.65752 0.357565 2.49315 2.64826 0.356319 2.53205 
2.639 0.355072 2.57094 2.62975 0.353828 2.60984 2.62052 0.352587 2.64874 
2.61132 0.351349 2.68764 2.60214 0.350113 2.72656 2.59297 0.34888 2.76547 
2.58385 0.347653 2.8044 2.57478 0.346432 2.84334 2.56575 0.345218 2.88229 
2.55677 0.34401 2.92125 2.54784 0.342809 2.96022 2.53898 0.341615 2.99921 
2.53018 0.340432 3.03821 2.52147 0.33926 3.07723 2.51283 0.338097 3.11627 
2.50426 0.336944 3.15532 2.49577 0.335802 3.1944 2.48739 0.334674 3.23349 
2.47911 0.33356 3.27261 2.47093 0.33246 3.31175 2.46285 0.331372 3.35091 
2.45487 0.330299 3.39009 2.44702 0.329243 3.4293 2.4393 0.328205 3.46853 
2.43171 0.327183 3.50779 2.42424 0.326178 3.54708 2.4169 0.32519 3.58638 
2.40971 0.324223 3.62572 2.40267 0.323275 3.66508 2.39578 0.322348 3.70448 
2.38904 0.321442 3.74389 2.38245 0.320555 3.78334 2.37603 0.319692 3.82281 
2.36978 0.318851 3.86231 2.36371 0.318034 3.90184 2.35781 0.317241 3.94139 
2.35209 0.31647 3.98097 2.34655 0.315725 4.02058 2.3412 0.315005 4.06022 
2.33605 0.314312 4.09988 2.33109 0.313645 4.13956 2.32633 0.313004 4.17927 
2.32176 0.31239 4.21901 2.31741 0.311804 4.25876 2.31327 0.311247 4.29855 
2.30934 0.310718 4.33835 2.30562 0.310218 4.37817 2.30211 0.309746 4.41802 
2.29883 0.309305 4.45788 2.29578 0.308894 4.49776 2.29295 0.308513 4.53766 
2.29034 0.308162 4.57757 2.28796 0.307842 4.6175 2.28582 0.307553 4.65744 
2.2839 0.307296 4.69739 2.28223 0.30707 4.73736 2.28078 0.306876 4.77733 
2.27957 0.306713 4.81731 2.2786 0.306582 4.8573 2.27787 0.306484 4.89729 
2.27737 0.306417 4.93729 2.27712 0.306383 4.97729 
