# vtk DataFile Version 5.1
vtk output
ASCII
DATASET STRUCTURED_GRID
DIMENSIONS 251 1 1
POINTS 251 float
-0.987426 -0.174662 -5 -0.987478 -0.174671 -4.96 -0.987633 -0.174698 -4.92 
-0.987892 -0.174744 -4.88 -0.988255 -0.174808 -4.84 -0.988721 -0.174891 -4.80001 
-0.98929 -0.174992 -4.76001 -0.989961 -0.17511 -4.72002 -0.990733 -0.175247 -4.68002 
-0.991608 -0.175401 -4.64003 -0.992584 -0.175574 -4.60005 -0.993662 -0.175765 -4.56006 
-0.994837 -0.175973 -4.52008 -0.99611 -0.176198 -4.4801 -0.997482 -0.17644 -4.44012 
-0.998952 -0.176701 -4.40015 -1.00052 -0.176978 -4.36018 -1.00218 -0.177272 -4.32022 
-1.00393 -0.177582 -4.28026 -1.00578 -0.177909 -4.2403 -1.00772 -0.178252 -4.20035 
-1.00976 -0.178611 -4.1604 -1.01187 -0.178986 -4.12046 -1.01408 -0.179376 -4.08052 
-1.01637 -0.179782 -4.04059 -1.01875 -0.180203 -4.00067 -1.02122 -0.180639 -3.96074 
-1.02376 -0.181089 -3.92083 -1.02638 -0.181552 -3.88092 -1.02908 -0.18203 -3.84101 
-1.03186 -0.182521 -3.80111 -1.03472 -0.183027 -3.76122 -1.03765 -0.183545 -3.72133 
-1.04064 -0.184075 -3.68144 -1.04371 -0.184617 -3.64156 -1.04684 -0.185171 -3.60169 
-1.05004 -0.185738 -3.56182 -1.05331 -0.186315 -3.52196 -1.05663 -0.186903 -3.4821 
-1.06001 -0.187501 -3.44225 -1.06345 -0.18811 -3.4024 -1.06695 -0.188729 -3.36256 
-1.0705 -0.189357 -3.32272 -1.0741 -0.189993 -3.28289 -1.07775 -0.190638 -3.24306 
-1.08144 -0.191291 -3.20324 -1.08518 -0.191952 -3.16342 -1.08896 -0.192621 -3.1236 
-1.09277 -0.193296 -3.08379 -1.09662 -0.193977 -3.04398 -1.10051 -0.194665 -3.00418 
-1.10443 -0.195359 -2.96438 -1.10838 -0.196058 -2.92458 -1.11236 -0.196761 -2.88478 
-1.11636 -0.197468 -2.84499 -1.12038 -0.198179 -2.8052 -1.12442 -0.198894 -2.76541 
-1.12848 -0.199612 -2.72562 -1.13255 -0.200333 -2.68584 -1.13664 -0.201055 -2.64605 
-1.14073 -0.201779 -2.60627 -1.14483 -0.202504 -2.56649 -1.14894 -0.203231 -2.52671 
-1.15305 -0.203957 -2.48692 -1.15715 -0.204683 -2.44714 -1.16125 -0.205409 -2.40736 
-1.16535 -0.206133 -2.36758 -1.16944 -0.206857 -2.32779 -1.17352 -0.207578 -2.28801 
-1.17758 -0.208297 -2.24822 -1.18163 -0.209013 -2.20843 -1.18566 -0.209725 -2.16864 
-1.18967 -0.210435 -2.12885 -1.19365 -0.21114 -2.08906 -1.19761 -0.21184 -2.04926 
-1.20154 -0.212535 -2.00946 -1.20544 -0.213225 -1.96965 -1.20931 -0.213909 -1.92985 
-1.21314 -0.214587 -1.89004 -1.21693 -0.215258 -1.85022 -1.22068 -0.215921 -1.81041 
-1.22439 -0.216577 -1.77058 -1.22806 -0.217226 -1.73076 -1.23168 -0.217866 -1.69093 
-1.23524 -0.218497 -1.65109 -1.23876 -0.219118 -1.61125 -1.24222 -0.219731 -1.5714 
-1.24563 -0.220333 -1.53155 -1.24897 -0.220926 -1.4917 -1.25226 -0.221507 -1.45184 
-1.25548 -0.222077 -1.41197 -1.25864 -0.222635 -1.3721 -1.26173 -0.223182 -1.33222 
-1.26476 -0.223718 -1.29234 -1.26771 -0.22424 -1.25246 -1.27059 -0.224749 -1.21256 
-1.2734 -0.225245 -1.17266 -1.27613 -0.225728 -1.13276 -1.27878 -0.226198 -1.09285 
-1.28135 -0.226653 -1.05294 -1.28384 -0.227093 -1.01302 -1.28625 -0.227519 -0.973091 
-1.28858 -0.227931 -0.933161 -1.29082 -0.228327 -0.893226 -1.29297 -0.228707 -0.853285 
-1.29503 -0.229072 -0.81334 -1.297 -0.229421 -0.77339 -1.29888 -0.229753 -0.733436 
-1.30067 -0.23007 -0.693477 -1.30237 -0.23037 -0.653514 -1.30396 -0.230653 -0.613547 
-1.30547 -0.230919 -0.573577 -1.30688 -0.231167 -0.533602 -1.30819 -0.231399 -0.493624 
-1.3094 -0.231613 -0.453643 -1.31051 -0.23181 -0.413659 -1.31152 -0.231989 -0.373672 
-1.31243 -0.23215 -0.333683 -1.31324 -0.232293 -0.293691 -1.31394 -0.232418 -0.253698 
-1.31455 -0.232525 -0.213702 -1.31505 -0.232613 -0.173706 -1.31545 -0.232684 -0.133708 
-1.31574 -0.232736 -0.0937088 -1.31593 -0.23277 -0.0537093 -1.31602 -0.232785 -0.0137094 
-1.316 -0.232782 0.0262906 -1.31588 -0.232761 0.0662904 -1.31566 -0.232721 0.10629 
-1.31533 -0.232664 0.146288 -1.3149 -0.232587 0.186286 -1.31437 -0.232493 0.226282 
-1.31373 -0.23238 0.266277 -1.31299 -0.23225 0.30627 -1.31215 -0.232101 0.346261 
-1.31121 -0.231934 0.38625 -1.31017 -0.23175 0.426235 -1.30903 -0.231548 0.466219 
-1.30778 -0.231328 0.506199 -1.30644 -0.231091 0.546176 -1.30501 -0.230837 0.586149 
-1.30347 -0.230566 0.626119 -1.30184 -0.230277 0.666084 -1.30012 -0.229972 0.706046 
-1.2983 -0.229651 0.746003 -1.29639 -0.229313 0.785956 -1.29439 -0.228959 0.825905 
-1.2923 -0.228589 0.865848 -1.29012 -0.228204 0.905787 -1.28785 -0.227803 0.945721 
-1.2855 -0.227387 0.98565 -1.28307 -0.226957 1.02557 -1.28055 -0.226511 1.06549 
-1.27795 -0.226052 1.1054 -1.27528 -0.225578 1.14531 -1.27252 -0.225091 1.18521 
-1.26969 -0.22459 1.22511 -1.26679 -0.224077 1.265 -1.26382 -0.223551 1.30489 
-1.26077 -0.223012 1.34477 -1.25765 -0.222461 1.38464 -1.25448 -0.221899 1.42451 
-1.25123 -0.221325 1.46438 -1.24793 -0.22074 1.50424 -1.24456 -0.220145 1.54409 
-1.24114 -0.219539 1.58394 -1.23766 -0.218924 1.62378 -1.23413 -0.218299 1.66362 
-1.23055 -0.217666 1.70345 -1.22691 -0.217023 1.74328 -1.22323 -0.216372 1.78311 
-1.21951 -0.215713 1.82293 -1.21574 -0.215048 1.86275 -1.21194 -0.214375 1.90256 
-1.2081 -0.213695 1.94237 -1.20422 -0.213008 1.98217 -1.20031 -0.212317 2.02198 
-1.19637 -0.21162 2.06178 -1.1924 -0.210919 2.10157 -1.18841 -0.210212 2.14137 
-1.18439 -0.209502 2.18116 -1.18036 -0.208788 2.22095 -1.1763 -0.208071 2.26074 
-1.17224 -0.207352 2.30052 -1.16815 -0.20663 2.34031 -1.16406 -0.205905 2.38009 
-1.15996 -0.205181 2.41987 -1.15586 -0.204455 2.45965 -1.15176 -0.203729 2.49944 
-1.14765 -0.203002 2.53922 -1.14354 -0.202276 2.579 -1.13944 -0.201551 2.61878 
-1.13535 -0.200828 2.65857 -1.13127 -0.200106 2.69835 -1.1272 -0.199386 2.73814 
-1.12315 -0.198669 2.77793 -1.11911 -0.197955 2.81772 -1.1151 -0.197245 2.85751 
-1.11111 -0.196539 2.8973 -1.10714 -0.195837 2.9371 -1.1032 -0.19514 2.9769 
-1.09928 -0.194448 3.0167 -1.09541 -0.193762 3.0565 -1.09157 -0.193083 3.09631 
-1.08777 -0.19241 3.13613 -1.084 -0.191743 3.17594 -1.08027 -0.191085 3.21576 
-1.07659 -0.190434 3.25559 -1.07296 -0.189792 3.29542 -1.06938 -0.189158 3.33525 
-1.06585 -0.188533 3.37509 -1.06237 -0.187917 3.41494 -1.05894 -0.187312 3.45478 
-1.05558 -0.186717 3.49464 -1.05228 -0.186133 3.5345 -1.04903 -0.185558 3.57436 
-1.04585 -0.184996 3.61423 -1.04273 -0.184445 3.65411 -1.03969 -0.183907 3.69399 
-1.03672 -0.183381 3.73387 -1.03381 -0.182866 3.77376 -1.03098 -0.182365 3.81366 
-1.02822 -0.181878 3.85356 -1.02555 -0.181405 3.89347 -1.02295 -0.180946 3.93338 
-1.02043 -0.1805 3.9733 -1.01799 -0.180069 4.01322 -1.01564 -0.179653 4.05315 
-1.01338 -0.179252 4.09309 -1.0112 -0.178867 4.13302 -1.00911 -0.178497 4.17297 
-1.0071 -0.178142 4.21292 -1.00519 -0.177804 4.25287 -1.00337 -0.177483 4.29283 
-1.00165 -0.177178 4.33279 -1.00002 -0.176889 4.37275 -0.99848 -0.176617 4.41272 
-0.99704 -0.176362 4.4527 -0.9957 -0.176125 4.49267 -0.994457 -0.175905 4.53265 
-0.993313 -0.175703 4.57264 -0.992266 -0.175518 4.61262 -0.991322 -0.175351 4.65261 
-0.99048 -0.175202 4.6926 -0.989739 -0.175071 4.73259 -0.989101 -0.174958 4.77259 
-0.988563 -0.174863 4.81259 -0.98813 -0.174786 4.85258 -0.9878 -0.174728 4.89258 
-0.987573 -0.174688 4.93258 -0.987451 -0.174666 4.97258 
