# vtk DataFile Version 5.1
vtk output
ASCII
DATASET STRUCTURED_GRID
DIMENSIONS 255 1 1
POINTS 255 float
-2.38829 -0.761931 -5 -2.38842 -0.761971 -4.96 -2.38879 -0.76209 -4.92 
-2.38942 -0.76229 -4.88001 -2.3903 -0.76257 -4.84002 -2.39142 -0.762929 -4.80004 
-2.3928 -0.763368 -4.76006 -2.39442 -0.763885 -4.7201 -2.39628 -0.76448 -4.68015 
-2.3984 -0.765153 -4.64021 -2.40075 -0.765905 -4.60028 -2.40335 -0.766734 -4.56038 
-2.40618 -0.767638 -4.52049 -2.40925 -0.768617 -4.48062 -2.41256 -0.769671 -4.44077 
-2.41609 -0.7708 -4.40094 -2.41987 -0.772003 -4.36114 -2.42386 -0.773277 -4.32136 
-2.42807 -0.774621 -4.2816 -2.4325 -0.776035 -4.24187 -2.43716 -0.777519 -4.20217 
-2.44203 -0.779074 -4.1625 -2.44711 -0.780694 -4.12286 -2.45238 -0.782377 -4.08324 
-2.45786 -0.784125 -4.04366 -2.46354 -0.785938 -4.00411 -2.46943 -0.787815 -3.96459 
-2.4755 -0.789751 -3.9251 -2.48174 -0.791744 -3.88564 -2.48817 -0.793795 -3.84621 
-2.49478 -0.795903 -3.80682 -2.50157 -0.798069 -3.76746 -2.50853 -0.800288 -3.72813 
-2.51564 -0.802557 -3.68883 -2.5229 -0.804875 -3.64957 -2.53033 -0.807244 -3.61033 
-2.53791 -0.809663 -3.57113 -2.54563 -0.812128 -3.53196 -2.55349 -0.814634 -3.49282 
-2.56148 -0.817182 -3.45371 -2.5696 -0.819772 -3.41463 -2.57785 -0.822405 -3.37558 
-2.58622 -0.825076 -3.33656 -2.5947 -0.827781 -3.29756 -2.60328 -0.83052 -3.25859 
-2.61197 -0.833291 -3.21964 -2.62076 -0.836096 -3.18072 -2.62966 -0.838934 -3.14182 
-2.63863 -0.841797 -3.10295 -2.64768 -0.844684 -3.06409 -2.65681 -0.847596 -3.02526 
-2.66601 -0.850532 -2.98644 -2.6753 -0.853493 -2.94765 -2.68463 -0.856472 -2.90886 
-2.69402 -0.859466 -2.8701 -2.70345 -0.862476 -2.83134 -2.71294 -0.865502 -2.7926 
-2.72247 -0.868544 -2.75387 -2.73204 -0.871596 -2.71515 -2.74163 -0.874656 -2.67644 
-2.75124 -0.877722 -2.63773 -2.76087 -0.880795 -2.59903 -2.77053 -0.883874 -2.56034 
-2.78019 -0.886958 -2.52165 -2.78985 -0.89004 -2.48295 -2.79951 -0.89312 -2.44426 
-2.80915 -0.896197 -2.40556 -2.81879 -0.899272 -2.36686 -2.82842 -0.902344 -2.32816 
-2.83802 -0.905406 -2.28945 -2.84758 -0.908457 -2.25073 -2.85711 -0.911497 -2.212 
-2.8666 -0.914525 -2.17326 -2.87606 -0.917541 -2.13451 -2.88546 -0.920541 -2.09575 
-2.8948 -0.92352 -2.05697 -2.90408 -0.926479 -2.01817 -2.91329 -0.929419 -1.97936 
-2.92244 -0.932337 -1.94053 -2.93151 -0.935231 -1.90168 -2.94049 -0.938097 -1.8628 
-2.94939 -0.940934 -1.82391 -2.95819 -0.943742 -1.78499 -2.9669 -0.946521 -1.74605 
-2.97551 -0.949268 -1.70708 -2.984 -0.951978 -1.66809 -2.99238 -0.954651 -1.62907 
-3.00064 -0.957287 -1.59002 -3.00878 -0.959884 -1.55094 -3.0168 -0.962442 -1.51184 
-3.02468 -0.964956 -1.4727 -3.03242 -0.967424 -1.43354 -3.04001 -0.969847 -1.39434 
-3.04746 -0.972223 -1.35511 -3.05476 -0.974551 -1.31585 -3.0619 -0.976829 -1.27656 
-3.06887 -0.979053 -1.23723 -3.07567 -0.981224 -1.19788 -3.08231 -0.98334 -1.15849 
-3.08877 -0.985401 -1.11907 -3.09505 -0.987405 -1.07961 -3.10114 -0.989348 -1.04013 
-3.10704 -0.99123 -1.00061 -3.11274 -0.993051 -0.96106 -3.11826 -0.994809 -0.921481 
-3.12357 -0.996504 -0.881872 -3.12867 -0.998132 -0.842232 -3.13356 -0.999693 -0.802563 
-3.13824 -1.00119 -0.762866 -3.14271 -1.00261 -0.723141 -3.14696 -1.00397 -0.683391 
-3.15098 -1.00525 -0.643614 -3.15477 -1.00646 -0.603813 -3.15834 -1.0076 -0.563988 
-3.16168 -1.00866 -0.524142 -3.16478 -1.00965 -0.484275 -3.16765 -1.01057 -0.444388 
-3.17027 -1.0114 -0.404483 -3.17265 -1.01216 -0.364561 -3.1748 -1.01285 -0.324625 
-3.1767 -1.01345 -0.284674 -3.17835 -1.01398 -0.244712 -3.17975 -1.01443 -0.204739 
-3.18091 -1.0148 -0.164758 -3.18182 -1.01509 -0.124769 -3.18247 -1.0153 -0.0847749 
-3.18288 -1.01543 -0.0447771 -3.18304 -1.01548 -0.00477747 -3.18294 -1.01544 0.0352224 
-3.18259 -1.01533 0.0752207 -3.182 -1.01514 0.115216 -3.18115 -1.01487 0.155206 
-3.18005 -1.01452 0.195189 -3.17871 -1.01409 0.235164 -3.17711 -1.01359 0.275129 
-3.17527 -1.013 0.315083 -3.17319 -1.01233 0.355023 -3.17086 -1.01159 0.394948 
-3.16829 -1.01077 0.434857 -3.16549 -1.00988 0.474749 -3.16244 -1.0089 0.514621 
-3.15916 -1.00786 0.554472 -3.15565 -1.00674 0.594302 -3.15191 -1.00554 0.634109 
-3.14794 -1.00428 0.673891 -3.14375 -1.00294 0.713648 -3.13933 -1.00153 0.753379 
-3.1347 -1.00006 0.793083 -3.12986 -0.998511 0.832759 -3.12481 -0.996899 0.872406 
-3.11955 -0.99522 0.912022 -3.11408 -0.993477 0.951609 -3.10842 -0.991671 0.991165 
-3.10257 -0.989803 1.03069 -3.09652 -0.987875 1.07018 -3.09029 -0.985886 1.10964 
-3.08387 -0.983837 1.14907 -3.07727 -0.981734 1.18847 -3.07051 -0.979577 1.22784 
-3.06358 -0.977365 1.26717 -3.05648 -0.975101 1.30647 -3.04922 -0.972783 1.34573 
-3.0418 -0.970418 1.38497 -3.03425 -0.968007 1.42418 -3.02654 -0.96555 1.46335 
-3.0187 -0.963047 1.50249 -3.01071 -0.960499 1.5416 -3.0026 -0.957911 1.58069 
-2.99437 -0.955284 1.61974 -2.98602 -0.95262 1.65877 -2.97755 -0.949919 1.69777 
-2.96896 -0.94718 1.73674 -2.96028 -0.944409 1.77569 -2.9515 -0.941608 1.81461 
-2.94263 -0.938778 1.85351 -2.93366 -0.935919 1.89239 -2.92461 -0.933031 1.93125 
-2.91548 -0.930118 1.97008 -2.90628 -0.927184 2.0089 -2.89702 -0.924229 2.0477 
-2.8877 -0.921254 2.08649 -2.87831 -0.91826 2.12525 -2.86887 -0.915246 2.164 
-2.85938 -0.912221 2.20275 -2.84986 -0.909184 2.24148 -2.84031 -0.906136 2.2802 
-2.83072 -0.903077 2.31891 -2.8211 -0.900007 2.35762 -2.81146 -0.896932 2.39632 
-2.80181 -0.893855 2.43501 -2.79216 -0.890776 2.47371 -2.7825 -0.887695 2.5124 
-2.77284 -0.884611 2.5511 -2.76318 -0.88153 2.58979 -2.75354 -0.878456 2.62849 
-2.74393 -0.875388 2.6672 -2.73433 -0.872327 2.70591 -2.72476 -0.869273 2.74462 
-2.71521 -0.866228 2.78335 -2.70572 -0.863198 2.82209 -2.69627 -0.860184 2.86084 
-2.68687 -0.857186 2.8996 -2.67752 -0.854204 2.93838 -2.66822 -0.851237 2.97717 
-2.659 -0.848295 3.01598 -2.64986 -0.845377 3.05481 -2.64079 -0.842484 3.09366 
-2.6318 -0.839616 3.13253 -2.62288 -0.836772 3.17143 -2.61406 -0.833959 3.21034 
-2.60535 -0.831179 3.24928 -2.59674 -0.828433 3.28825 -2.58824 -0.82572 3.32724 
-2.57984 -0.82304 3.36625 -2.57156 -0.820398 3.4053 -2.56341 -0.817797 3.44437 
-2.55539 -0.815239 3.48348 -2.5475 -0.812723 3.52261 -2.53974 -0.810248 3.56177 
-2.53212 -0.807817 3.60096 -2.52466 -0.805437 3.64019 -2.51736 -0.803106 3.67945 
-2.51021 -0.800826 3.71874 -2.50322 -0.798595 3.75806 -2.49639 -0.796415 3.79741 
-2.48973 -0.794293 3.8368 -2.48326 -0.792228 3.87622 -2.47697 -0.790222 3.91567 
-2.47086 -0.788272 3.95515 -2.46493 -0.78638 3.99466 -2.4592 -0.784552 4.03421 
-2.45367 -0.782789 4.07378 -2.44835 -0.78109 4.11339 -2.44322 -0.779455 4.15303 
-2.4383 -0.777885 4.19269 -2.4336 -0.776383 4.23239 -2.42911 -0.774952 4.27211 
-2.42485 -0.773592 4.31186 -2.4208 -0.772301 4.35163 -2.41698 -0.771081 4.39143 
-2.41338 -0.769934 4.43125 -2.41002 -0.768862 4.4711 -2.4069 -0.767866 4.51096 
-2.40401 -0.766944 4.55085 -2.40135 -0.766097 4.59075 -2.39894 -0.765326 4.63067 
-2.39677 -0.764634 4.6706 -2.39484 -0.76402 4.71055 -2.39316 -0.763485 4.75051 
-2.39173 -0.763027 4.79049 -2.39054 -0.762648 4.83047 -2.38961 -0.76235 4.87045 
-2.38892 -0.762131 4.91045 -2.38849 -0.761992 4.95045 -2.3883 -0.761933 4.99045 

