# vtk DataFile Version 5.1
vtk output
ASCII
DATASET STRUCTURED_GRID
DIMENSIONS 253 1 1
POINTS 253 float
1.53351 1.29244 -5 1.53359 1.29251 -4.96 1.53383 1.29272 -4.92 
1.53423 1.29305 -4.88 1.5348 1.29353 -4.84001 1.53552 1.29414 -4.80002 
1.5364 1.29488 -4.76004 1.53745 1.29576 -4.72006 1.53864 1.29677 -4.68009 
1.54 1.29791 -4.64013 1.54152 1.29919 -4.60018 1.54319 1.3006 -4.56024 
1.54501 1.30213 -4.52031 1.54698 1.3038 -4.4804 1.54911 1.30559 -4.44049 
1.55138 1.30751 -4.4006 1.55381 1.30955 -4.36073 1.55638 1.31172 -4.32087 
1.55909 1.31401 -4.28103 1.56195 1.31641 -4.2412 1.56495 1.31894 -4.2014 
1.56809 1.32159 -4.16161 1.57136 1.32435 -4.12184 1.57477 1.32721 -4.08209 
1.5783 1.33019 -4.04235 1.58197 1.33329 -4.00264 1.58577 1.33649 -3.96295 
1.58969 1.33979 -3.92328 1.59372 1.34319 -3.88363 1.59788 1.3467 -3.844 
1.60215 1.3503 -3.8044 1.60655 1.354 -3.76481 1.61105 1.35779 -3.72525 
1.61565 1.36167 -3.6857 1.62035 1.36564 -3.64618 1.62516 1.36969 -3.60667 
1.63008 1.37383 -3.56719 1.63508 1.37805 -3.52773 1.64018 1.38234 -3.48829 
1.64536 1.38671 -3.44887 1.65062 1.39115 -3.40947 1.65598 1.39566 -3.37009 
1.66141 1.40024 -3.33072 1.66692 1.40488 -3.29138 1.67249 1.40958 -3.25204 
1.67813 1.41433 -3.21273 1.68385 1.41915 -3.17344 1.68963 1.42402 -3.13416 
1.69546 1.42893 -3.09489 1.70134 1.43389 -3.05564 1.70727 1.43889 -3.0164 
1.71326 1.44394 -2.97717 1.71929 1.44902 -2.93796 1.72536 1.45414 -2.89875 
1.73147 1.45928 -2.85956 1.7376 1.46445 -2.82037 1.74377 1.46965 -2.78119 
1.74997 1.47488 -2.74202 1.75619 1.48012 -2.70286 1.76242 1.48537 -2.6637 
1.76867 1.49064 -2.62454 1.77493 1.49591 -2.58539 1.78121 1.5012 -2.54624 
1.78749 1.5065 -2.50709 1.79376 1.51178 -2.46794 1.80003 1.51707 -2.42879 
1.8063 1.52235 -2.38964 1.81255 1.52762 -2.35048 1.8188 1.53289 -2.31133 
1.82503 1.53814 -2.27216 1.83123 1.54336 -2.233 1.8374 1.54857 -2.19382 
1.84356 1.55375 -2.15464 1.84968 1.55891 -2.11545 1.85576 1.56404 -2.07625 
1.86181 1.56913 -2.03703 1.86781 1.57419 -1.99781 1.87376 1.57921 -1.95858 
1.87967 1.58419 -1.91933 1.88553 1.58912 -1.88007 1.89132 1.59401 -1.8408 
1.89705 1.59884 -1.8015 1.90272 1.60362 -1.7622 1.90833 1.60835 -1.72288 
1.91387 1.61301 -1.68354 1.91933 1.61761 -1.64418 1.92471 1.62214 -1.6048 
1.93001 1.62661 -1.56541 1.93523 1.63101 -1.52599 1.94036 1.63534 -1.48656 
1.9454 1.63958 -1.44711 1.95034 1.64375 -1.40763 1.95519 1.64783 -1.36814 
1.95994 1.65184 -1.32862 1.96459 1.65576 -1.28909 1.96913 1.65958 -1.24953 
1.97355 1.66331 -1.20995 1.97787 1.66695 -1.17035 1.98207 1.67049 -1.13073 
1.98616 1.67394 -1.09109 1.99013 1.67728 -1.05143 1.99397 1.68052 -1.01175 
1.99768 1.68365 -0.972042 2.00127 1.68667 -0.932319 2.00473 1.68959 -0.892575 
2.00805 1.69239 -0.852812 2.01124 1.69508 -0.81303 2.01429 1.69765 -0.773229 
2.0172 1.7001 -0.733411 2.01997 1.70243 -0.693575 2.0226 1.70465 -0.653723 
2.02507 1.70674 -0.613854 2.0274 1.7087 -0.573971 2.02959 1.71054 -0.534073 
2.03162 1.71225 -0.494161 2.0335 1.71384 -0.454237 2.03523 1.71529 -0.4143 
2.0368 1.71661 -0.374353 2.03821 1.71781 -0.334396 2.03947 1.71887 -0.29443 
2.04057 1.71979 -0.254456 2.04151 1.72059 -0.214475 2.04229 1.72125 -0.174488 
2.04291 1.72177 -0.134496 2.04337 1.72216 -0.0945005 2.04367 1.72241 -0.0545024 
2.04381 1.72253 -0.0145028 2.04379 1.72251 0.0254972 2.04361 1.72236 0.0654964 
2.04326 1.72206 0.105494 2.04276 1.72164 0.145488 2.04209 1.72108 0.185479 
2.04127 1.72038 0.225464 2.04028 1.71955 0.265444 2.03914 1.71859 0.305416 
2.03784 1.71749 0.345379 2.03638 1.71626 0.385334 2.03477 1.7149 0.425278 
2.033 1.71341 0.465212 2.03108 1.71179 0.505132 2.029 1.71005 0.54504 
2.02678 1.70817 0.584935 2.02441 1.70617 0.624814 2.02189 1.70405 0.664678 
2.01922 1.7018 0.704526 2.01641 1.69944 0.744357 2.01347 1.69695 0.784171 
2.01038 1.69435 0.823966 2.00715 1.69163 0.863743 2.00379 1.6888 0.903501 
2.0003 1.68585 0.943239 1.99667 1.6828 0.982957 1.99292 1.67964 1.02266 
1.98905 1.67637 1.06233 1.98505 1.673 1.10199 1.98093 1.66953 1.14163 
1.97669 1.66596 1.18124 1.97235 1.6623 1.22083 1.96789 1.65854 1.26041 
1.96332 1.65469 1.29996 1.95864 1.65075 1.33949 1.95387 1.64672 1.379 
1.94899 1.64261 1.41849 1.94402 1.63842 1.45795 1.93896 1.63416 1.4974 
1.9338 1.62981 1.53683 1.92856 1.62539 1.57624 1.92324 1.6209 1.61563 
1.91783 1.61635 1.655 1.91235 1.61173 1.69435 1.9068 1.60705 1.73369 
1.90117 1.60231 1.773 1.89548 1.59752 1.8123 1.88973 1.59267 1.85159 
1.88392 1.58777 1.89086 1.87805 1.58283 1.93012 1.87213 1.57783 1.96936 
1.86616 1.5728 2.00859 1.86015 1.56774 2.04781 1.8541 1.56264 2.08702 
1.848 1.5575 2.12622 1.84187 1.55233 2.16541 1.83571 1.54714 2.20459 
1.82953 1.54193 2.24376 1.82332 1.5367 2.28293 1.81709 1.53144 2.32209 
1.81084 1.52617 2.36125 1.80457 1.5209 2.4004 1.79831 1.51562 2.43955 
1.79204 1.51033 2.4787 1.78576 1.50504 2.51785 1.77948 1.49975 2.557 
1.77321 1.49446 2.59615 1.76695 1.48919 2.6353 1.76071 1.48393 2.67446 
1.75448 1.47868 2.71362 1.74826 1.47344 2.75279 1.74207 1.46822 2.79196 
1.73591 1.46303 2.83114 1.72979 1.45786 2.87033 1.72369 1.45273 2.90953 
1.71763 1.44762 2.94873 1.71161 1.44255 2.98795 1.70564 1.43751 3.02718 
1.69972 1.43252 3.06642 1.69385 1.42758 3.10568 1.68803 1.42268 3.14495 
1.68227 1.41782 3.18423 1.67658 1.41302 3.22354 1.67095 1.40828 3.26285 
1.6654 1.4036 3.30219 1.65991 1.39898 3.34154 1.6545 1.39441 3.38091 
1.64917 1.38992 3.4203 1.64392 1.3855 3.4597 1.63877 1.38116 3.49913 
1.6337 1.37688 3.53858 1.62872 1.37268 3.57804 1.62383 1.36857 3.61753 
1.61905 1.36454 3.65704 1.61437 1.3606 3.69657 1.6098 1.35674 3.73612 
1.60533 1.35297 3.77569 1.60097 1.3493 3.81528 1.59673 1.34572 3.85489 
1.5926 1.34225 3.89453 1.5886 1.33887 3.93418 1.58471 1.3356 3.97386 
1.58095 1.33242 4.01356 1.57732 1.32936 4.05327 1.57382 1.32642 4.09301 
1.57045 1.32358 4.13277 1.56721 1.32085 4.17254 1.56411 1.31823 4.21234 
1.56115 1.31574 4.25215 1.55833 1.31337 4.29198 1.55566 1.31111 4.33183 
1.55313 1.30898 4.37169 1.55074 1.30697 4.41157 1.54851 1.30508 4.45146 
1.54642 1.30333 4.49137 1.54449 1.3017 4.53129 1.54271 1.3002 4.57122 
1.54108 1.29883 4.61116 1.53961 1.29759 4.65112 1.5383 1.29648 4.69108 
1.53714 1.29551 4.73105 1.53615 1.29467 4.77103 1.53531 1.29396 4.81101 
1.53463 1.29338 4.851 1.53411 1.29295 4.891 1.53375 1.29265 4.931 
1.53355 1.29248 4.97099 
