# vtk DataFile Version 5.1
vtk output
ASCII
DATASET STRUCTURED_GRID
DIMENSIONS 252 1 1
POINTS 252 float
-0.318825 1.18601 -5 -0.318842 1.18608 -4.96 -0.318892 1.18626 -4.92 
-0.318975 1.18657 -4.88 -0.319092 1.18701 -4.84 -0.319243 1.18757 -4.80001 
-0.319427 1.18825 -4.76002 -0.319643 1.18906 -4.72002 -0.319893 1.18998 -4.68004 
-0.320175 1.19103 -4.64005 -0.32049 1.19221 -4.60007 -0.320838 1.1935 -4.56009 
-0.321217 1.19491 -4.52012 -0.321628 1.19644 -4.48015 -0.322071 1.19809 -4.44019 
-0.322546 1.19985 -4.40023 -0.323052 1.20174 -4.36027 -0.323588 1.20373 -4.32033 
-0.324153 1.20583 -4.28039 -0.324749 1.20805 -4.24045 -0.325375 1.21038 -4.20053 
-0.326031 1.21282 -4.16061 -0.326715 1.21536 -4.12069 -0.327426 1.21801 -4.08079 
-0.328165 1.22076 -4.04089 -0.328932 1.22361 -4.001 -0.329727 1.22657 -3.96111 
-0.330548 1.22962 -3.92124 -0.331393 1.23277 -3.88137 -0.332263 1.236 -3.84151 
-0.333159 1.23934 -3.80166 -0.33408 1.24276 -3.76182 -0.335024 1.24627 -3.72199 
-0.335989 1.24986 -3.68216 -0.336977 1.25354 -3.64234 -0.337987 1.2573 -3.60253 
-0.339019 1.26113 -3.56273 -0.340071 1.26505 -3.52293 -0.341142 1.26903 -3.48315 
-0.342231 1.27308 -3.44337 -0.343339 1.2772 -3.4036 -0.344466 1.2814 -3.36383 
-0.34561 1.28565 -3.32408 -0.346768 1.28996 -3.28433 -0.347942 1.29433 -3.24458 
-0.349131 1.29875 -3.20484 -0.350335 1.30323 -3.16511 -0.351553 1.30776 -3.12539 
-0.352781 1.31233 -3.08567 -0.354021 1.31694 -3.04596 -0.355272 1.3216 -3.00625 
-0.356535 1.32629 -2.96655 -0.357807 1.33103 -2.92685 -0.359087 1.33579 -2.88715 
-0.360374 1.34057 -2.84746 -0.361668 1.34539 -2.80777 -0.36297 1.35023 -2.76809 
-0.364277 1.3551 -2.72841 -0.365588 1.35997 -2.68873 -0.366903 1.36486 -2.64905 
-0.36822 1.36976 -2.60937 -0.369541 1.37468 -2.5697 -0.370864 1.3796 -2.53002 
-0.372186 1.38452 -2.49035 -0.373508 1.38943 -2.45067 -0.374828 1.39435 -2.411 
-0.376148 1.39925 -2.37132 -0.377466 1.40416 -2.33165 -0.378779 1.40904 -2.29197 
-0.380088 1.41391 -2.25229 -0.381391 1.41876 -2.2126 -0.382689 1.42359 -2.17292 
-0.383982 1.4284 -2.13323 -0.385267 1.43318 -2.09353 -0.386542 1.43792 -2.05384 
-0.387809 1.44263 -2.01414 -0.389066 1.44731 -1.97443 -0.390314 1.45195 -1.93472 
-0.39155 1.45655 -1.895 -0.392773 1.4611 -1.85528 -0.393983 1.4656 -1.81556 
-0.395179 1.47005 -1.77582 -0.396363 1.47445 -1.73608 -0.397531 1.4788 -1.69634 
-0.398682 1.48308 -1.65658 -0.399817 1.4873 -1.61682 -0.400935 1.49146 -1.57705 
-0.402035 1.49555 -1.53728 -0.403117 1.49958 -1.4975 -0.404179 1.50353 -1.45771 
-0.405221 1.50741 -1.41791 -0.406242 1.5112 -1.3781 -0.407242 1.51493 -1.33829 
-0.408221 1.51857 -1.29847 -0.409177 1.52212 -1.25864 -0.410109 1.52559 -1.2188 
-0.411017 1.52897 -1.17895 -0.411902 1.53226 -1.1391 -0.412762 1.53546 -1.09923 
-0.413596 1.53856 -1.05936 -0.414404 1.54156 -1.01948 -0.415185 1.54447 -0.979598 
-0.415939 1.54728 -0.939704 -0.416666 1.54998 -0.899802 -0.417365 1.55258 -0.859893 
-0.418035 1.55507 -0.819976 -0.418676 1.55746 -0.780052 -0.419288 1.55973 -0.740122 
-0.41987 1.5619 -0.700185 -0.420422 1.56396 -0.660242 -0.420944 1.56589 -0.620292 
-0.421434 1.56772 -0.580337 -0.421894 1.56943 -0.540376 -0.422322 1.57102 -0.50041 
-0.422718 1.5725 -0.460439 -0.423082 1.57385 -0.420464 -0.423414 1.57508 -0.380484 
-0.423713 1.5762 -0.340501 -0.42398 1.57719 -0.300514 -0.424214 1.57806 -0.260524 
-0.424415 1.57881 -0.220531 -0.424582 1.57943 -0.180537 -0.424717 1.57993 -0.14054 
-0.424818 1.5803 -0.100542 -0.424885 1.58056 -0.0605427 -0.424919 1.58068 -0.0205429 
-0.424919 1.58068 0.0194571 -0.424886 1.58056 0.0594569 -0.42482 1.58031 0.0994561 
-0.42472 1.57994 0.139454 -0.424586 1.57944 0.179451 -0.42442 1.57883 0.219446 
-0.42422 1.57808 0.259438 -0.423987 1.57721 0.299428 -0.423721 1.57623 0.339415 
-0.423423 1.57512 0.379399 -0.423092 1.57388 0.419378 -0.422729 1.57253 0.459354 
-0.422333 1.57106 0.499325 -0.421906 1.56947 0.539291 -0.421447 1.56777 0.579252 
-0.420958 1.56595 0.619207 -0.420437 1.56401 0.659157 -0.419886 1.56196 0.699101 
-0.419304 1.55979 0.739038 -0.418693 1.55752 0.778969 -0.418053 1.55514 0.818892 
-0.417384 1.55265 0.858809 -0.416686 1.55005 0.898719 -0.415959 1.54735 0.938621 
-0.415205 1.54455 0.978515 -0.414425 1.54165 1.0184 -0.413618 1.53864 1.05828 
-0.412785 1.53554 1.09815 -0.411926 1.53235 1.13802 -0.411042 1.52906 1.17787 
-0.410134 1.52568 1.21772 -0.409203 1.52222 1.25756 -0.408248 1.51866 1.29739 
-0.407269 1.51503 1.33721 -0.406269 1.51131 1.37702 -0.405249 1.50751 1.41683 
-0.404208 1.50364 1.45663 -0.403146 1.49969 1.49642 -0.402065 1.49566 1.5362 
-0.400965 1.49157 1.57598 -0.399848 1.48742 1.61574 -0.398713 1.4832 1.6555 
-0.397562 1.47892 1.69526 -0.396394 1.47457 1.735 -0.395212 1.47017 1.77474 
-0.394015 1.46572 1.81448 -0.392806 1.46122 1.8542 -0.391583 1.45667 1.89393 
-0.390347 1.45208 1.93364 -0.3891 1.44744 1.97335 -0.387843 1.44276 2.01306 
-0.386577 1.43805 2.05276 -0.385302 1.43331 2.09246 -0.384017 1.42853 2.13215 
-0.382725 1.42372 2.17184 -0.381427 1.41889 2.21152 -0.380123 1.41404 2.25121 
-0.378815 1.40918 2.29089 -0.377501 1.40429 2.33057 -0.376183 1.39939 2.37024 
-0.374864 1.39448 2.40992 -0.373544 1.38957 2.4496 -0.372222 1.38465 2.48927 
-0.3709 1.37973 2.52895 -0.369576 1.37481 2.56862 -0.368256 1.3699 2.60829 
-0.366938 1.365 2.64797 -0.365624 1.36011 2.68765 -0.364313 1.35523 2.72733 
-0.363005 1.35036 2.76701 -0.361703 1.34552 2.80669 -0.360409 1.34071 2.84638 
-0.359122 1.33592 2.88607 -0.357842 1.33116 2.92577 -0.356569 1.32642 2.96547 
-0.355307 1.32172 3.00517 -0.354055 1.31707 3.04488 -0.352815 1.31245 3.08459 
-0.351586 1.30788 3.12431 -0.350368 1.30335 3.16404 -0.349164 1.29887 3.20377 
-0.347974 1.29445 3.2435 -0.3468 1.29008 3.28325 -0.345641 1.28577 3.323 
-0.344497 1.28151 3.36275 -0.343369 1.27732 3.40252 -0.342261 1.27319 3.44229 
-0.341171 1.26914 3.48207 -0.3401 1.26516 3.52185 -0.339048 1.26124 3.56165 
-0.338015 1.2574 3.60145 -0.337004 1.25364 3.64126 -0.336016 1.24996 3.68108 
-0.33505 1.24637 3.7209 -0.334105 1.24286 3.76074 -0.333184 1.23943 3.80058 
-0.332287 1.23609 3.84043 -0.331416 1.23285 3.88029 -0.33057 1.22971 3.92016 
-0.329749 1.22665 3.96003 -0.328954 1.22369 3.99991 -0.328186 1.22083 4.0398 
-0.327446 1.21808 4.0797 -0.326734 1.21543 4.11961 -0.326049 1.21289 4.15952 
-0.325393 1.21044 4.19944 -0.324766 1.20811 4.23937 -0.324169 1.20589 4.2793 
-0.323602 1.20378 4.31924 -0.323066 1.20179 4.35919 -0.322559 1.1999 4.39914 
-0.322083 1.19813 4.4391 -0.32164 1.19648 4.47906 -0.321228 1.19495 4.51903 
-0.320848 1.19354 4.55901 -0.320499 1.19224 4.59898 -0.320183 1.19106 4.63896 
-0.3199 1.19001 4.67895 -0.31965 1.18908 4.71894 -0.319432 1.18827 4.75893 
-0.319248 1.18758 4.79892 -0.319096 1.18702 4.83892 -0.318978 1.18658 4.87892 
-0.318894 1.18627 4.91891 -0.318843 1.18608 4.95891 -0.318825 1.18601 4.99891 

