# vtk DataFile Version 5.1
vtk output
ASCII
DATASET STRUCTURED_GRID
DIMENSIONS 253 1 1
POINTS 253 float
-1.50272 -0.870856 -5 -1.5028 -0.870902 -4.96 -1.50303 -0.871038 -4.92 
-1.50343 -0.871267 -4.88 -1.50398 -0.871586 -4.84001 -1.50469 -0.871998 -4.80002 
-1.50555 -0.872499 -4.76003 -1.50657 -0.873091 -4.72005 -1.50775 -0.873771 -4.68007 
-1.50908 -0.874542 -4.6401 -1.51056 -0.875403 -4.60014 -1.5122 -0.876352 -4.56018 
-1.51399 -0.877387 -4.52023 -1.51592 -0.878508 -4.4803 -1.51801 -0.879716 -4.44037 
-1.52024 -0.881011 -4.40045 -1.52262 -0.882391 -4.36055 -1.52514 -0.883852 -4.32065 
-1.52781 -0.885394 -4.28077 -1.53061 -0.887018 -4.2409 -1.53355 -0.888724 -4.20105 
-1.53663 -0.890511 -4.16121 -1.53985 -0.892373 -4.12138 -1.54319 -0.89431 -4.08157 
-1.54666 -0.896322 -4.04177 -1.55027 -0.89841 -4.00199 -1.554 -0.900573 -3.96222 
-1.55785 -0.902805 -3.92247 -1.56182 -0.905104 -3.88273 -1.5659 -0.90747 -3.84301 
-1.5701 -0.909905 -3.80331 -1.57442 -0.912408 -3.76362 -1.57885 -0.914972 -3.72395 
-1.58337 -0.917595 -3.68429 -1.588 -0.920278 -3.64465 -1.59273 -0.92302 -3.60503 
-1.59757 -0.925822 -3.56542 -1.60249 -0.928677 -3.52583 -1.60751 -0.931582 -3.48625 
-1.6126 -0.934537 -3.44669 -1.61779 -0.937542 -3.40714 -1.62306 -0.940598 -3.3676 
-1.62841 -0.943699 -3.32808 -1.63383 -0.94684 -3.28858 -1.63932 -0.950022 -3.24908 
-1.64488 -0.953243 -3.2096 -1.65051 -0.956505 -3.17014 -1.6562 -0.959804 -3.13068 
-1.66195 -0.963133 -3.09124 -1.66774 -0.966492 -3.0518 -1.67359 -0.96988 -3.01238 
-1.67949 -0.973299 -2.97296 -1.68544 -0.976745 -2.93356 -1.69142 -0.980211 -2.89416 
-1.69743 -0.983696 -2.85477 -1.70348 -0.987201 -2.81538 -1.70956 -0.990725 -2.776 
-1.71567 -0.994267 -2.73663 -1.7218 -0.997818 -2.69727 -1.72794 -1.00138 -2.6579 
-1.7341 -1.00495 -2.61854 -1.74027 -1.00852 -2.57918 -1.74645 -1.01211 -2.53982 
-1.75264 -1.01569 -2.50047 -1.75882 -1.01927 -2.46111 -1.76499 -1.02285 -2.42175 
-1.77116 -1.02643 -2.38239 -1.77733 -1.03 -2.34303 -1.78348 -1.03356 -2.30367 
-1.7896 -1.03711 -2.2643 -1.79571 -1.04065 -2.22493 -1.80179 -1.04417 -2.18555 
-1.80784 -1.04768 -2.14617 -1.81386 -1.05117 -2.10678 -1.81985 -1.05464 -2.06738 
-1.82579 -1.05808 -2.02797 -1.83168 -1.0615 -1.98856 -1.83754 -1.06489 -1.94913 
-1.84334 -1.06826 -1.9097 -1.84909 -1.07159 -1.87026 -1.85478 -1.07488 -1.8308 
-1.86041 -1.07814 -1.79133 -1.86597 -1.08137 -1.75185 -1.87147 -1.08456 -1.71236 
-1.8769 -1.0877 -1.67286 -1.88225 -1.0908 -1.63334 -1.88752 -1.09386 -1.5938 
-1.89271 -1.09686 -1.55426 -1.89782 -1.09983 -1.51469 -1.90284 -1.10274 -1.47512 
-1.90777 -1.10559 -1.43553 -1.9126 -1.10839 -1.39592 -1.91734 -1.11114 -1.35629 
-1.92198 -1.11383 -1.31665 -1.92651 -1.11645 -1.277 -1.93094 -1.11902 -1.23733 
-1.93526 -1.12152 -1.19764 -1.93946 -1.12396 -1.15794 -1.94356 -1.12633 -1.11822 
-1.94753 -1.12864 -1.07848 -1.95139 -1.13087 -1.03873 -1.95512 -1.13303 -0.998965 
-1.95873 -1.13512 -0.959182 -1.96221 -1.13714 -0.919385 -1.96556 -1.13908 -0.879573 
-1.96878 -1.14095 -0.839747 -1.97186 -1.14273 -0.799906 -1.97481 -1.14444 -0.760051 
-1.97762 -1.14607 -0.720183 -1.98029 -1.14762 -0.680302 -1.98281 -1.14908 -0.640409 
-1.9852 -1.15046 -0.600504 -1.98743 -1.15176 -0.560588 -1.98952 -1.15297 -0.520661 
-1.99147 -1.1541 -0.480724 -1.99326 -1.15513 -0.440778 -1.9949 -1.15609 -0.400822 
-1.99639 -1.15695 -0.360859 -1.99772 -1.15772 -0.320889 -1.9989 -1.15841 -0.280913 
-1.99993 -1.159 -0.24093 -2.0008 -1.1595 -0.200943 -2.00151 -1.15992 -0.160951 
-2.00207 -1.16024 -0.120956 -2.00247 -1.16047 -0.080959 -2.00271 -1.16061 -0.04096 
-2.00279 -1.16066 -0.000960099 -2.00271 -1.16061 0.0390398 -2.00248 -1.16048 0.0790389 
-2.00209 -1.16025 0.119036 -2.00154 -1.15993 0.159031 -2.00084 -1.15953 0.199023 
-1.99998 -1.15903 0.239011 -1.99896 -1.15844 0.278993 -1.99778 -1.15776 0.31897 
-1.99646 -1.15699 0.358941 -1.99497 -1.15613 0.398904 -1.99334 -1.15518 0.43886 
-1.99156 -1.15415 0.478806 -1.98962 -1.15303 0.518744 -1.98754 -1.15182 0.558671 
-1.98531 -1.15053 0.598588 -1.98293 -1.14915 0.638494 -1.98041 -1.14769 0.678388 
-1.97775 -1.14615 0.718269 -1.97494 -1.14452 0.758137 -1.972 -1.14282 0.797993 
-1.96893 -1.14103 0.837835 -1.96572 -1.13917 0.877662 -1.96237 -1.13723 0.917475 
-1.9589 -1.13522 0.957272 -1.95529 -1.13313 0.997055 -1.95157 -1.13097 1.03682 
-1.94772 -1.12874 1.07657 -1.94375 -1.12644 1.11631 -1.93966 -1.12407 1.15603 
-1.93546 -1.12164 1.19573 -1.93115 -1.11914 1.23542 -1.92673 -1.11658 1.2751 
-1.9222 -1.11395 1.31475 -1.91756 -1.11127 1.35439 -1.91283 -1.10852 1.39402 
-1.908 -1.10573 1.43362 -1.90308 -1.10287 1.47322 -1.89806 -1.09997 1.5128 
-1.89296 -1.09701 1.55236 -1.88777 -1.094 1.59191 -1.8825 -1.09095 1.63144 
-1.87716 -1.08785 1.67096 -1.87174 -1.08471 1.71047 -1.86624 -1.08152 1.74996 
-1.86067 -1.0783 1.78944 -1.85505 -1.07504 1.82891 -1.84937 -1.07175 1.86836 
-1.84362 -1.06842 1.90781 -1.83782 -1.06505 1.94724 -1.83197 -1.06166 1.98667 
-1.82607 -1.05825 2.02608 -1.82013 -1.0548 2.06549 -1.81415 -1.05134 2.10489 
-1.80813 -1.04785 2.14428 -1.80208 -1.04434 2.18366 -1.796 -1.04082 2.22304 
-1.7899 -1.03728 2.26241 -1.78377 -1.03373 2.30178 -1.77762 -1.03017 2.34114 
-1.77146 -1.0266 2.3805 -1.76529 -1.02302 2.41986 -1.75911 -1.01944 2.45922 
-1.75294 -1.01586 2.49858 -1.74675 -1.01228 2.53793 -1.74057 -1.00869 2.57729 
-1.73439 -1.00512 2.61665 -1.72824 -1.00155 2.65601 -1.72209 -0.997989 2.69538 
-1.71596 -0.994437 2.73474 -1.70985 -0.990894 2.77411 -1.70377 -0.98737 2.81349 
-1.69772 -0.983864 2.85288 -1.69171 -0.980378 2.89227 -1.68572 -0.976911 2.93166 
-1.67977 -0.973464 2.97107 -1.67387 -0.970044 3.01048 -1.66802 -0.966654 3.04991 
-1.66223 -0.963294 3.08934 -1.65648 -0.959963 3.12879 -1.65078 -0.956663 3.16824 
-1.64515 -0.953399 3.20771 -1.63959 -0.950175 3.24719 -1.6341 -0.946992 3.28668 
-1.62867 -0.943849 3.32619 -1.62332 -0.940746 3.36571 -1.61804 -0.937688 3.40524 
-1.61285 -0.93468 3.44479 -1.60775 -0.931723 3.48435 -1.60273 -0.928815 3.52393 
-1.5978 -0.925958 3.56352 -1.59296 -0.923153 3.60313 -1.58822 -0.920408 3.64275 
-1.58359 -0.917723 3.68239 -1.57906 -0.915097 3.72204 -1.57463 -0.91253 3.76172 
-1.57031 -0.910024 3.8014 -1.5661 -0.907586 3.84111 -1.56201 -0.905216 3.88083 
-1.55804 -0.902914 3.92056 -1.55418 -0.900679 3.96031 -1.55044 -0.898512 4.00008 
-1.54683 -0.89642 4.03986 -1.54335 -0.894405 4.07966 -1.54 -0.892464 4.11947 
-1.53679 -0.890598 4.1593 -1.5337 -0.888808 4.19914 -1.53075 -0.887098 4.23899 
-1.52794 -0.88547 4.27886 -1.52527 -0.883924 4.31874 -1.52274 -0.882459 4.35863 
-1.52035 -0.881075 4.39854 -1.51811 -0.879776 4.43845 -1.51602 -0.878564 4.47838 
-1.51408 -0.877439 4.51832 -1.51228 -0.876399 4.55826 -1.51064 -0.875446 4.59822 
-1.50915 -0.874581 4.63818 -1.50781 -0.873806 4.67815 -1.50663 -0.873121 4.71813 
-1.5056 -0.872526 4.75811 -1.50473 -0.87202 4.7981 -1.50401 -0.871604 4.83809 
-1.50345 -0.87128 4.87808 -1.50305 -0.871047 4.91808 -1.5028 -0.870906 4.95808 
-1.50272 -0.870856 4.99808 
