# vtk DataFile Version 5.1
vtk output
ASCII
DATASET STRUCTURED_GRID
DIMENSIONS 251 1 1
POINTS 251 float
0.945946 -0.601733 -5 0.945995 -0.601765 -4.96 0.946144 -0.60186 -4.92 
0.946392 -0.602017 -4.88 0.946739 -0.602238 -4.84 0.947186 -0.602522 -4.80001 
0.947731 -0.602869 -4.76001 0.948374 -0.603278 -4.72002 0.949114 -0.603749 -4.68003 
0.949951 -0.604281 -4.64004 0.950887 -0.604876 -4.60006 0.951919 -0.605533 -4.56008 
0.953044 -0.606249 -4.5201 0.954264 -0.607025 -4.48012 0.955578 -0.60786 -4.44015 
0.956986 -0.608756 -4.40019 0.958488 -0.609712 -4.36023 0.960079 -0.610723 -4.32027 
0.961758 -0.611792 -4.28032 0.963526 -0.612917 -4.24038 0.965385 -0.614099 -4.20044 
0.967332 -0.615337 -4.1605 0.969361 -0.616628 -4.12058 0.971473 -0.617971 -4.08066 
0.973667 -0.619367 -4.04074 0.975944 -0.620816 -4.00083 0.978305 -0.622318 -3.96093 
0.98074 -0.623867 -3.92103 0.98325 -0.625463 -3.88114 0.985835 -0.627107 -3.84126 
0.988495 -0.628799 -3.80139 0.99123 -0.630539 -3.76152 0.994032 -0.632322 -3.72166 
0.9969 -0.634146 -3.6818 0.999833 -0.636012 -3.64195 1.00283 -0.63792 -3.60211 
1.0059 -0.63987 -3.56228 1.00902 -0.641858 -3.52245 1.0122 -0.643881 -3.48263 
1.01544 -0.645939 -3.44281 1.01873 -0.648033 -3.403 1.02208 -0.650163 -3.3632 
1.02548 -0.652324 -3.3234 1.02892 -0.654514 -3.28361 1.03241 -0.656732 -3.24382 
1.03594 -0.658979 -3.20404 1.03951 -0.661255 -3.16427 1.04313 -0.663556 -3.1245 
1.04678 -0.665878 -3.08473 1.05047 -0.668221 -3.04497 1.05418 -0.670586 -3.00522 
1.05794 -0.672972 -2.96546 1.06172 -0.675377 -2.92572 1.06552 -0.677796 -2.88597 
1.06934 -0.680229 -2.84623 1.07319 -0.682675 -2.80649 1.07705 -0.685135 -2.76675 
1.08094 -0.687606 -2.72702 1.08484 -0.690085 -2.68729 1.08874 -0.692569 -2.64755 
1.09266 -0.695058 -2.60782 1.09658 -0.697554 -2.56809 1.10051 -0.700055 -2.52837 
1.10444 -0.702554 -2.48864 1.10836 -0.705052 -2.44891 1.11229 -0.707547 -2.40918 
1.11621 -0.71004 -2.36945 1.12012 -0.712531 -2.32972 1.12403 -0.715013 -2.28999 
1.12791 -0.717486 -2.25026 1.13178 -0.719949 -2.21052 1.13564 -0.722401 -2.17078 
1.13948 -0.724844 -2.13104 1.14329 -0.72727 -2.0913 1.14708 -0.72968 -2.05155 
1.15084 -0.732072 -2.0118 1.15458 -0.734447 -1.97205 1.15828 -0.736803 -1.93229 
1.16195 -0.739137 -1.89253 1.16558 -0.741446 -1.85276 1.16917 -0.743731 -1.81298 
1.17272 -0.74599 -1.77321 1.17624 -0.748224 -1.73342 1.1797 -0.750429 -1.69364 
1.18312 -0.752603 -1.65384 1.18649 -0.754744 -1.61404 1.1898 -0.756853 -1.57423 
1.19307 -0.75893 -1.53442 1.19628 -0.760971 -1.4946 1.19942 -0.762975 -1.45478 
1.20251 -0.76494 -1.41494 1.20554 -0.766865 -1.37511 1.20851 -0.768752 -1.33526 
1.21141 -0.770598 -1.29541 1.21424 -0.772399 -1.25555 1.217 -0.774156 -1.21568 
1.21969 -0.775868 -1.17581 1.22231 -0.777535 -1.13593 1.22486 -0.779155 -1.09605 
1.22733 -0.780726 -1.05615 1.22972 -0.782247 -1.01625 1.23203 -0.783718 -0.976348 
1.23427 -0.785138 -0.936436 1.23642 -0.786507 -0.896517 1.23848 -0.787821 -0.856592 
1.24047 -0.789082 -0.816661 1.24236 -0.790288 -0.776724 1.24417 -0.791438 -0.736782 
1.24589 -0.792533 -0.696834 1.24752 -0.793571 -0.65688 1.24906 -0.79455 -0.616922 
1.25051 -0.795471 -0.576959 1.25186 -0.796333 -0.536991 1.25313 -0.797136 -0.497019 
1.2543 -0.797879 -0.457043 1.25537 -0.798561 -0.417063 1.25634 -0.799182 -0.37708 
1.25722 -0.799742 -0.337094 1.25801 -0.80024 -0.297104 1.25869 -0.800677 -0.257113 
1.25928 -0.80105 -0.217119 1.25977 -0.801361 -0.177123 1.26016 -0.801609 -0.137126 
1.26045 -0.801794 -0.0971271 1.26064 -0.801916 -0.0571278 1.26073 -0.801975 -0.0171279 
1.26073 -0.80197 0.0228721 1.26062 -0.801902 0.0628719 1.26041 -0.801771 0.102871 
1.26011 -0.801577 0.142869 1.2597 -0.80132 0.182867 1.2592 -0.801 0.222862 
1.2586 -0.800618 0.262856 1.2579 -0.800173 0.302847 1.2571 -0.799665 0.342836 
1.25621 -0.799097 0.382822 1.25522 -0.798467 0.422805 1.25413 -0.797776 0.462784 
1.25295 -0.797025 0.50276 1.25168 -0.796213 0.542731 1.25031 -0.795342 0.582698 
1.24885 -0.794413 0.622661 1.24729 -0.793425 0.662618 1.24565 -0.792379 0.702571 
1.24392 -0.791276 0.742518 1.24209 -0.790118 0.78246 1.24019 -0.788904 0.822396 
1.23819 -0.787636 0.862326 1.23611 -0.786313 0.90225 1.23395 -0.784937 0.942168 
1.23171 -0.78351 0.982079 1.22938 -0.782032 1.02198 1.22698 -0.780504 1.06188 
1.2245 -0.778926 1.10177 1.22194 -0.777298 1.14166 1.21931 -0.775625 1.18154 
1.21661 -0.773907 1.22141 1.21384 -0.772143 1.26127 1.211 -0.770335 1.30113 
1.20808 -0.768483 1.34098 1.20511 -0.766591 1.38083 1.20207 -0.76466 1.42067 
1.19898 -0.762689 1.4605 1.19582 -0.760681 1.50032 1.1926 -0.758634 1.54014 
1.18933 -0.756553 1.57995 1.18601 -0.754439 1.61976 1.18263 -0.752293 1.65956 
1.17921 -0.750115 1.69935 1.17573 -0.747905 1.73914 1.17222 -0.745668 1.77892 
1.16866 -0.743405 1.8187 1.16506 -0.741116 1.85847 1.16143 -0.738803 1.89824 
1.15775 -0.736466 1.938 1.15404 -0.734107 1.97776 1.1503 -0.73173 2.01751 
1.14654 -0.729335 2.05726 1.14275 -0.726923 2.09701 1.13893 -0.724494 2.13675 
1.13509 -0.72205 2.17649 1.13123 -0.719596 2.21623 1.12735 -0.717131 2.25596 
1.12347 -0.714657 2.2957 1.11956 -0.712174 2.33543 1.11565 -0.709683 2.37516 
1.11172 -0.707189 2.41489 1.1078 -0.704693 2.45462 1.10388 -0.702196 2.49434 
1.09995 -0.699696 2.53407 1.09602 -0.697196 2.5738 1.09209 -0.694701 2.61353 
1.08818 -0.692212 2.65326 1.08428 -0.689728 2.69299 1.08038 -0.687251 2.73272 
1.0765 -0.68478 2.77246 1.07263 -0.682323 2.8122 1.06879 -0.679878 2.85193 
1.06497 -0.677448 2.89168 1.06117 -0.675031 2.93142 1.05739 -0.672628 2.97117 
1.05365 -0.670245 3.01093 1.04994 -0.667883 3.05068 1.04626 -0.665543 3.09044 
1.04261 -0.663224 3.13021 1.039 -0.660926 3.16998 1.03543 -0.658654 3.20976 
1.0319 -0.656411 3.24954 1.02842 -0.654198 3.28932 1.02499 -0.652012 3.32912 
1.02159 -0.649855 3.36891 1.01825 -0.64773 3.40872 1.01497 -0.645641 3.44853 
1.01174 -0.643588 3.48834 1.00857 -0.64157 3.52817 1.00545 -0.639588 3.568 
1.0024 -0.637643 3.60783 0.999408 -0.635741 3.64767 0.996484 -0.633881 3.68752 
0.993625 -0.632063 3.72738 0.990832 -0.630287 3.76724 0.988108 -0.628553 3.80711 
0.985459 -0.626868 3.84699 0.982885 -0.625231 3.88687 0.980386 -0.623641 3.92676 
0.977961 -0.622099 3.96666 0.975613 -0.620605 4.00656 0.973347 -0.619164 4.04647 
0.971165 -0.617776 4.08639 0.969065 -0.61644 4.12631 0.967047 -0.615156 4.16624 
0.965113 -0.613926 4.20617 0.963267 -0.612752 4.24611 0.961512 -0.611635 4.28606 
0.959845 -0.610575 4.32601 0.958267 -0.609571 4.36597 0.956778 -0.608624 4.40593 
0.955384 -0.607737 4.44589 0.954083 -0.60691 4.48586 0.952877 -0.606142 4.52584 
0.951765 -0.605435 4.56582 0.950746 -0.604787 4.6058 0.949825 -0.604201 4.64578 
0.949002 -0.603677 4.68577 0.948276 -0.603215 4.72576 0.947647 -0.602816 4.76576 
0.947116 -0.602478 4.80575 0.946684 -0.602203 4.84575 0.946351 -0.601991 4.88575 
0.946117 -0.601842 4.92574 0.945982 -0.601756 4.96574 
