# vtk DataFile Version 5.1
vtk output
ASCII
DATASET STRUCTURED_GRID
DIMENSIONS 252 1 1
POINTS 252 float
-0.611402 -1.17722 -5 -0.611434 -1.17728 -4.96 -0.611531 -1.17746 -4.92 
-0.611691 -1.17777 -4.88 -0.611915 -1.17821 -4.84 -0.612204 -1.17876 -4.80001 
-0.612556 -1.17944 -4.76002 -0.612972 -1.18024 -4.72003 -0.61345 -1.18116 -4.68004 
-0.613991 -1.1822 -4.64006 -0.614595 -1.18337 -4.60008 -0.615262 -1.18465 -4.56011 
-0.61599 -1.18605 -4.52014 -0.616778 -1.18757 -4.48017 -0.617627 -1.1892 -4.44022 
-0.618536 -1.19095 -4.40026 -0.619507 -1.19282 -4.36032 -0.620534 -1.1948 -4.32038 
-0.621619 -1.19689 -4.28045 -0.622761 -1.19909 -4.24053 -0.623961 -1.2014 -4.20061 
-0.625218 -1.20382 -4.16071 -0.626529 -1.20634 -4.12081 -0.627892 -1.20897 -4.08092 
-0.629309 -1.2117 -4.04104 -0.630779 -1.21453 -4.00116 -0.632303 -1.21746 -3.9613 
-0.633875 -1.22049 -3.92145 -0.635495 -1.22361 -3.8816 -0.637163 -1.22682 -3.84176 
-0.638879 -1.23012 -3.80194 -0.640644 -1.23352 -3.76212 -0.642452 -1.237 -3.72231 
-0.644302 -1.24056 -3.68252 -0.646194 -1.24421 -3.64273 -0.648129 -1.24793 -3.60295 
-0.650106 -1.25174 -3.56318 -0.652122 -1.25562 -3.52342 -0.654172 -1.25957 -3.48367 
-0.656259 -1.26358 -3.44392 -0.658381 -1.26767 -3.40419 -0.66054 -1.27183 -3.36446 
-0.662731 -1.27605 -3.32475 -0.66495 -1.28032 -3.28504 -0.667198 -1.28465 -3.24534 
-0.669474 -1.28903 -3.20564 -0.67178 -1.29347 -3.16596 -0.674112 -1.29796 -3.12628 
-0.676465 -1.30249 -3.08661 -0.678839 -1.30706 -3.04694 -0.681235 -1.31168 -3.00728 
-0.683653 -1.31633 -2.96762 -0.68609 -1.32102 -2.92797 -0.68854 -1.32574 -2.88833 
-0.691005 -1.33049 -2.84869 -0.693483 -1.33526 -2.80905 -0.695975 -1.34006 -2.76942 
-0.698479 -1.34488 -2.72979 -0.70099 -1.34971 -2.69016 -0.703507 -1.35456 -2.65054 
-0.706029 -1.35942 -2.61091 -0.708558 -1.36429 -2.57129 -0.711092 -1.36916 -2.53167 
-0.713625 -1.37404 -2.49205 -0.716155 -1.37891 -2.45243 -0.718684 -1.38378 -2.41281 
-0.721211 -1.38865 -2.37318 -0.723735 -1.39351 -2.33356 -0.726252 -1.39835 -2.29394 
-0.728758 -1.40318 -2.25431 -0.731255 -1.40799 -2.21468 -0.733742 -1.41278 -2.17504 
-0.736218 -1.41754 -2.1354 -0.73868 -1.42228 -2.09576 -0.741124 -1.42699 -2.05611 
-0.743551 -1.43166 -2.01646 -0.745959 -1.4363 -1.97681 -0.74835 -1.4409 -1.93714 
-0.750719 -1.44547 -1.89747 -0.753063 -1.44998 -1.8578 -0.755383 -1.45444 -1.81812 
-0.757677 -1.45886 -1.77843 -0.759945 -1.46323 -1.73873 -0.762185 -1.46754 -1.69903 
-0.764393 -1.47179 -1.65932 -0.766569 -1.47598 -1.6196 -0.768713 -1.48011 -1.57987 
-0.770823 -1.48417 -1.54013 -0.772899 -1.48817 -1.50038 -0.774937 -1.4921 -1.46063 
-0.776936 -1.49594 -1.42087 -0.778895 -1.49972 -1.38109 -0.780815 -1.50341 -1.34131 
-0.782695 -1.50703 -1.30152 -0.784529 -1.51056 -1.26172 -0.786319 -1.51401 -1.22191 
-0.788064 -1.51737 -1.18208 -0.789762 -1.52064 -1.14225 -0.791415 -1.52382 -1.10242 
-0.793017 -1.52691 -1.06257 -0.794569 -1.5299 -1.02271 -0.79607 -1.53279 -0.982842 
-0.79752 -1.53558 -0.942966 -0.798919 -1.53827 -0.903081 -0.800263 -1.54086 -0.863188 
-0.801552 -1.54334 -0.823286 -0.802785 -1.54572 -0.783375 -0.803963 -1.54798 -0.743457 
-0.805084 -1.55014 -0.703531 -0.806148 -1.55219 -0.663598 -0.807153 -1.55412 -0.623657 
-0.808098 -1.55594 -0.58371 -0.808984 -1.55765 -0.543756 -0.80981 -1.55924 -0.503796 
-0.810575 -1.56071 -0.46383 -0.811278 -1.56207 -0.42386 -0.81192 -1.5633 -0.383884 
-0.812499 -1.56442 -0.343904 -0.813016 -1.56541 -0.303919 -0.81347 -1.56629 -0.263931 
-0.81386 -1.56704 -0.22394 -0.814187 -1.56767 -0.183947 -0.81445 -1.56817 -0.143951 
-0.814649 -1.56856 -0.103953 -0.814784 -1.56882 -0.0639541 -0.814854 -1.56895 -0.0239544 
-0.814861 -1.56897 0.0160456 -0.814803 -1.56885 0.0560454 -0.814681 -1.56862 0.0960445 
-0.814494 -1.56826 0.136042 -0.814244 -1.56778 0.176039 -0.81393 -1.56717 0.216033 
-0.813552 -1.56645 0.256025 -0.813111 -1.5656 0.296013 -0.812606 -1.56462 0.335998 
-0.812039 -1.56353 0.375979 -0.81141 -1.56232 0.415956 -0.810719 -1.56099 0.455928 
-0.809966 -1.55954 0.495894 -0.809152 -1.55797 0.535855 -0.808278 -1.55629 0.57581 
-0.807344 -1.55449 0.615759 -0.806351 -1.55258 0.655701 -0.805299 -1.55056 0.695636 
-0.804189 -1.54842 0.735563 -0.803022 -1.54617 0.775483 -0.8018 -1.54382 0.815395 
-0.800522 -1.54136 0.855299 -0.799189 -1.53879 0.895194 -0.797801 -1.53612 0.935081 
-0.796361 -1.53335 0.974958 -0.79487 -1.53047 1.01483 -0.793328 -1.52751 1.05469 
-0.791735 -1.52444 1.09454 -0.790093 -1.52128 1.13438 -0.788403 -1.51802 1.17421 
-0.786668 -1.51468 1.21403 -0.784887 -1.51125 1.25385 -0.783061 -1.50774 1.29365 
-0.78119 -1.50414 1.33344 -0.779278 -1.50045 1.37323 -0.777327 -1.4967 1.413 
-0.775336 -1.49286 1.45277 -0.773306 -1.48895 1.49252 -0.771237 -1.48497 1.53227 
-0.769133 -1.48092 1.57201 -0.766996 -1.4768 1.61174 -0.764826 -1.47263 1.65146 
-0.762624 -1.46839 1.69118 -0.76039 -1.46409 1.73088 -0.758127 -1.45973 1.77058 
-0.755838 -1.45532 1.81027 -0.753524 -1.45087 1.84995 -0.751185 -1.44636 1.88963 
-0.748821 -1.44181 1.9293 -0.746434 -1.43721 1.96896 -0.744028 -1.43258 2.00862 
-0.741605 -1.42792 2.04827 -0.739165 -1.42322 2.08792 -0.736706 -1.41848 2.12757 
-0.734232 -1.41372 2.1672 -0.731748 -1.40894 2.20684 -0.729253 -1.40413 2.24647 
-0.726748 -1.39931 2.2861 -0.724234 -1.39447 2.32573 -0.72171 -1.38961 2.36535 
-0.719184 -1.38475 2.40497 -0.716655 -1.37988 2.44459 -0.714125 -1.375 2.48422 
-0.711592 -1.37013 2.52384 -0.709059 -1.36525 2.56346 -0.706529 -1.36038 2.60308 
-0.704005 -1.35552 2.6427 -0.701487 -1.35067 2.68233 -0.698975 -1.34583 2.72195 
-0.696469 -1.34101 2.76158 -0.693975 -1.3362 2.80122 -0.691494 -1.33143 2.84085 
-0.689027 -1.32668 2.88049 -0.686573 -1.32195 2.92014 -0.684134 -1.31726 2.95978 
-0.681712 -1.31259 2.99944 -0.679312 -1.30797 3.0391 -0.676933 -1.30339 3.07876 
-0.674576 -1.29885 3.11843 -0.67224 -1.29435 3.15811 -0.669928 -1.2899 3.1978 
-0.667646 -1.28551 3.23749 -0.665392 -1.28117 3.27719 -0.663167 -1.27689 3.3169 
-0.660971 -1.27266 3.35661 -0.658805 -1.26849 3.39633 -0.656676 -1.26439 3.43607 
-0.654582 -1.26036 3.47581 -0.652525 -1.25639 3.51556 -0.650502 -1.2525 3.55532 
-0.648517 -1.24868 3.59508 -0.646573 -1.24494 3.63486 -0.644673 -1.24128 3.67465 
-0.642814 -1.2377 3.71444 -0.640998 -1.2342 3.75425 -0.639224 -1.23079 3.79406 
-0.637498 -1.22746 3.83389 -0.63582 -1.22423 3.87372 -0.634191 -1.2211 3.91357 
-0.63261 -1.21805 3.95342 -0.631076 -1.2151 3.99328 -0.629595 -1.21225 4.03315 
-0.628168 -1.2095 4.07303 -0.626794 -1.20685 4.11292 -0.625473 -1.20431 4.15282 
-0.624205 -1.20187 4.19272 -0.622994 -1.19954 4.23264 -0.62184 -1.19731 4.27256 
-0.620744 -1.1952 4.31249 -0.619705 -1.1932 4.35242 -0.618724 -1.19131 4.39237 
-0.617802 -1.18954 4.43232 -0.616941 -1.18788 4.47227 -0.616141 -1.18634 4.51223 
-0.615401 -1.18492 4.5522 -0.614723 -1.18361 4.59218 -0.614106 -1.18242 4.63215 
-0.613552 -1.18136 4.67214 -0.613061 -1.18041 4.71212 -0.612634 -1.17959 4.75211 
-0.612269 -1.17889 4.7921 -0.611967 -1.17831 4.8321 -0.61173 -1.17785 4.87209 
-0.611557 -1.17752 4.91209 -0.611448 -1.17731 4.95209 -0.611404 -1.17722 4.99209 

