# vtk DataFile Version 5.1
vtk output
ASCII
DATASET STRUCTURED_GRID
DIMENSIONS 250 1 1
POINTS 250 float
0 0 -5 6.54229e-23 -2.49272e-23 -4.96 -2.06952e-22 -2.62518e-23 -4.92 
-6.5838e-22 3.35473e-22 -4.88 -2.95008e-22 6.98845e-22 -4.84 -7.4314e-22 2.50713e-22 -4.8 
-7.04754e-22 2.89099e-22 -4.76 -5.24053e-22 8.31201e-22 -4.72 -5.24053e-22 8.31201e-22 -4.68 
-1.51791e-21 -1.62655e-22 -4.64 -4.55595e-21 -1.75508e-21 -4.6 -4.29619e-21 -1.49533e-21 -4.56 
-5.019e-21 -1.49533e-21 -4.52 -1.76636e-21 -4.11115e-22 -4.48 -1.40496e-21 -7.72519e-22 -4.44 
-2.12777e-21 -7.72519e-22 -4.4 -1.58566e-21 -9.53222e-22 -4.36 -1.58566e-21 -9.53222e-22 -4.32 
-1.58566e-21 -9.53222e-22 -4.28 2.21374e-22 8.53813e-22 -4.24 -2.85059e-21 -2.21815e-21 -4.2 
-3.93481e-21 -1.85674e-21 -4.16 -1.26086e-20 -4.74801e-21 -4.12 -1.26086e-20 -4.74801e-21 -4.08 
-1.1163e-20 -3.30237e-21 -4.04 -1.24279e-20 -2.30382e-22 -4 -1.52797e-20 -1.90852e-22 -3.96 
-1.45569e-20 5.31972e-22 -3.92 -1.67253e-20 1.2548e-21 -3.88 -1.45569e-20 1.97762e-21 -3.84 
-1.25691e-20 2.51975e-21 -3.8 -1.2027e-20 3.06187e-21 -3.76 -1.2027e-20 3.06187e-21 -3.72 
-2.21466e-20 1.7054e-22 -3.68 -2.14238e-20 -5.52294e-22 -3.64 -2.63029e-20 -2.54009e-21 -3.6 
-2.73872e-20 -2.17867e-21 -3.56 -3.31699e-20 -5.07002e-21 -3.52 -2.88328e-20 -2.17867e-21 -3.48 
-3.31699e-20 -3.62434e-21 -3.44 -2.95557e-20 -1.45582e-21 -3.4 -2.48572e-20 -1.0944e-21 -3.36 
-2.34115e-20 -1.0944e-21 -3.32 -2.63029e-20 -1.0944e-21 -3.28 -3.13628e-20 -3.7156e-22 -3.24 
-2.77486e-20 3.51285e-22 -3.2 -3.24471e-20 -1.01382e-23 -3.16 -4.11212e-20 -8.68429e-21 -3.12 
-3.96755e-20 -1.013e-20 -3.08 -3.96755e-20 -1.013e-20 -3.04 -5.3771e-20 -1.26599e-20 -3 
-5.75773e-20 -1.64662e-20 -2.96 -4.41029e-20 -1.1666e-20 -2.92 -5.13314e-20 -1.31117e-20 -2.88 
-6.21742e-20 -1.23889e-20 -2.84 -6.0367e-20 -1.05818e-20 -2.8 -5.34096e-20 -6.51573e-21 -2.76 
-4.00369e-20 1.07419e-21 -2.72 -3.85912e-20 2.51989e-21 -2.68 -4.22055e-20 -1.09436e-21 -2.64 
-4.00369e-20 3.96558e-21 -2.6 -4.70847e-20 2.7006e-21 -2.56 -4.33801e-20 3.5138e-21 -2.52 
-4.04887e-20 3.5138e-21 -2.48 -4.62715e-20 3.5138e-21 -2.44 -5.13314e-20 -1.54613e-21 -2.4 
-4.9705e-20 8.02769e-23 -2.36 -5.04278e-20 -6.4257e-22 -2.32 -4.0308e-20 3.69451e-21 -2.28 
-3.81395e-20 4.41735e-21 -2.24 -3.45252e-20 5.1402e-21 -2.2 -3.95851e-20 5.86304e-21 -2.16 
-3.79588e-20 6.04375e-21 -2.12 -4.37415e-20 6.04375e-21 -2.08 -4.51872e-20 6.04375e-21 -2.04 
-4.73557e-20 3.87523e-21 -2 -4.68136e-20 2.97168e-21 -1.96 -4.64973e-20 3.28792e-21 -1.92 
-5.80627e-20 3.96569e-22 -1.88 -5.95084e-20 -2.49478e-21 -1.84 -5.73399e-20 -1.77194e-21 -1.8 
-6.11348e-20 -2.67549e-21 -1.76 -6.25805e-20 -1.22982e-21 -1.72 -5.67978e-20 1.66151e-21 -1.68 
-5.46293e-20 -5.06983e-22 -1.64 -4.81238e-20 1.66151e-21 -1.6 -4.70396e-20 1.30009e-21 -1.56 
-4.88466e-20 9.3868e-22 -1.52 -4.88466e-20 9.3868e-22 -1.48 -4.88466e-20 9.3868e-22 -1.44 
-4.52325e-20 1.66151e-21 -1.4 -3.98113e-20 2.74574e-21 -1.36 -3.94499e-20 1.66151e-21 -1.32 
-3.94499e-20 1.66151e-21 -1.28 -4.52325e-20 1.66151e-21 -1.24 -4.52325e-20 3.10715e-21 -1.2 
-4.1257e-20 2.74574e-21 -1.16 -4.07149e-20 3.28785e-21 -1.12 -3.99921e-20 4.01067e-21 -1.08 
-4.21605e-20 1.84222e-21 -1.04 -4.07149e-20 1.84222e-21 -1 -3.80043e-20 1.66152e-21 -0.96 
-3.97662e-20 1.34529e-21 -0.92 -4.01841e-20 1.65022e-21 -0.88 -4.09069e-20 9.27411e-22 -0.84 
-3.8377e-20 2.01163e-21 -0.8 -3.62086e-20 2.73444e-21 -0.76 -3.76542e-20 3.45725e-21 -0.72 
-3.83544e-20 3.47983e-21 -0.68 -3.83544e-20 3.47983e-21 -0.64 -3.98001e-20 2.03422e-21 -0.6 
-3.87158e-20 2.39562e-21 -0.56 -3.94838e-20 2.35045e-21 -0.52 -3.93031e-20 2.53115e-21 -0.48 
-3.85803e-20 2.89255e-21 -0.44 -3.85803e-20 2.89255e-21 -0.4 -3.67733e-20 3.25395e-21 -0.36 
-3.70444e-20 3.3443e-21 -0.32 -3.72251e-20 3.525e-21 -0.28 -3.77672e-20 2.9829e-21 -0.24 
-3.97549e-20 2.6215e-21 -0.2 -3.93031e-20 2.53115e-21 -0.16 -3.88965e-20 2.39563e-21 -0.12 
-3.89643e-20 2.32786e-21 -0.08 -3.89643e-20 2.32786e-21 -0.04 -3.89643e-20 2.32786e-21 3.89966e-15 
-3.8874e-20 2.32786e-21 0.04 -3.84335e-20 2.54244e-21 0.08 -3.85013e-20 2.47468e-21 0.12 
-3.88627e-20 2.29398e-21 0.16 -3.8953e-20 2.20363e-21 0.2 -3.85916e-20 2.38433e-21 0.24 
-3.98452e-20 2.21492e-21 0.28 -3.98e-20 2.6215e-21 0.32 -4.01614e-20 2.6215e-21 0.36 
-3.98e-20 2.2601e-21 0.4 -4.08842e-20 1.8987e-21 0.44 -4.21492e-20 2.72387e-22 0.48 
-4.66667e-20 -6.31119e-22 0.52 -4.88351e-20 -1.35392e-21 0.56 -5.06421e-20 -9.92521e-22 0.6 
-5.08228e-20 -1.17322e-21 0.64 -5.12746e-20 -1.79363e-22 0.68 -5.35334e-20 -9.92522e-22 0.72 
-5.42562e-20 -1.71533e-21 0.76 -5.28105e-20 -1.71533e-21 0.8 -5.06421e-20 -1.71533e-21 0.84 
-4.91965e-20 -1.71533e-21 0.88 -4.88351e-20 -2.07674e-21 0.92 -4.66666e-20 9.17023e-23 0.96 
-5.10035e-20 -2.79955e-21 1 -5.6786e-20 -5.69081e-21 1.04 -5.94966e-20 -5.51011e-21 1.08 
-5.55211e-20 -4.42588e-21 1.12 -5.74524e-20 -4.91153e-21 1.16 -5.60068e-20 -3.46589e-21 1.2 
-5.31155e-20 -3.46589e-21 1.24 -5.45611e-20 -4.91153e-21 1.28 -5.77686e-20 -5.22777e-21 1.32 
-5.71813e-20 -4.64047e-21 1.36 -5.28444e-20 -1.74918e-21 1.4 -5.57357e-20 -1.74918e-21 1.44 
-5.89884e-20 -3.55624e-21 1.48 -5.85367e-20 -4.55013e-21 1.52 -5.76331e-20 -5.09225e-21 1.56 
-5.90788e-20 -5.09225e-21 1.6 -5.98016e-20 -4.36942e-21 1.64 -6.12473e-20 -5.81508e-21 1.68 
-5.7362e-20 -3.37552e-21 1.72 -5.7362e-20 -3.37552e-21 1.76 -6.45904e-20 -4.82119e-21 1.8 
-6.60361e-20 -7.71254e-21 1.84 -5.95305e-20 -6.9897e-21 1.88 -5.89884e-20 -6.44757e-21 1.92 
-5.89884e-20 -6.44757e-21 1.96 -5.46514e-20 -7.89325e-21 2 -5.46514e-20 -9.33893e-21 2.04 
-5.68199e-20 -8.61609e-21 2.08 -4.95915e-20 -5.72472e-21 2.12 -4.5661e-20 -6.13132e-21 2.16 
-4.5661e-20 -6.13132e-21 2.2 -3.84326e-20 -4.68563e-21 2.24 -3.12041e-20 -1.79425e-21 2.28 
-4.31311e-20 -7.93844e-21 2.32 -3.77097e-20 -8.29986e-21 2.36 -3.77097e-20 -8.29986e-21 2.4 
-4.49382e-20 -1.55283e-20 2.44 -4.13239e-20 -1.19141e-20 2.48 -3.22883e-20 -8.66128e-21 2.52 
-2.97584e-20 -9.02271e-21 2.56 -2.83127e-20 -7.57701e-21 2.6 -3.84326e-20 -1.48055e-20 2.64 
-3.40955e-20 -1.33598e-20 2.68 -4.20468e-20 -1.2637e-20 2.72 -2.65056e-20 -8.66128e-21 2.76 
-1.92771e-20 -7.21558e-21 2.8 -3.08426e-20 -1.29984e-20 2.84 -2.65056e-20 -1.15527e-20 2.88 
-2.6867e-20 -1.19141e-20 2.92 -1.34943e-20 -1.0107e-20 2.96 -1.06029e-20 -1.29984e-20 3 
-1.34943e-20 -1.29984e-20 3.04 -2.4337e-20 -1.51669e-20 3.08 -2.68669e-20 -2.05883e-20 3.12 
-2.06776e-20 -2.01817e-20 3.16 -3.00294e-20 -2.08593e-20 3.2 -3.29208e-20 -2.37507e-20 3.24 
-3.87035e-20 -2.66421e-20 3.28 -3.58121e-20 -2.51964e-20 3.32 -3.38243e-20 -2.32086e-20 3.36 
-4.28598e-20 -2.357e-20 3.4 -4.43055e-20 -2.357e-20 3.44 -3.99685e-20 -2.06786e-20 3.48 
-4.39441e-20 -2.03172e-20 3.52 -4.16852e-20 -1.80584e-20 3.56 -4.28598e-20 -1.77873e-20 3.6 
-4.14142e-20 -1.77873e-20 3.64 -4.14142e-20 -1.63416e-20 3.68 -3.56315e-20 -1.4896e-20 3.72 
-3.27402e-20 -1.34503e-20 3.76 -3.31016e-20 -1.38117e-20 3.8 -3.31016e-20 -1.38117e-20 3.84 
-3.45473e-20 -1.38117e-20 3.88 -3.20174e-20 -1.12818e-20 3.92 -3.59929e-20 -1.23661e-20 3.96 
-3.49087e-20 -1.27275e-20 4 -3.49087e-20 -1.27275e-20 4.04 -4.14141e-20 -1.63416e-20 4.08 
-3.56315e-20 -1.20047e-20 4.12 -3.36438e-20 -1.00169e-20 4.16 -3.07525e-20 -1.00169e-20 4.2 
-3.07525e-20 -1.00169e-20 4.24 -2.78612e-20 -7.12566e-21 4.28 -2.82226e-20 -7.48707e-21 4.32 
-2.80419e-20 -8.02918e-21 4.36 -2.65963e-20 -8.75199e-21 4.4 -2.65963e-20 -8.75199e-21 4.44 
-2.47893e-20 -8.39058e-21 4.48 -2.73191e-20 -9.47479e-21 4.52 -2.69577e-20 -9.11339e-21 4.56 
-2.94875e-20 -8.75199e-21 4.6 -2.91261e-20 -8.39058e-21 4.64 -2.40665e-20 -7.30638e-21 4.68 
-2.47893e-20 -8.02918e-21 4.72 -2.54218e-20 -8.30023e-21 4.76 -2.21691e-20 -7.93883e-21 4.8 
-2.21691e-20 -7.93883e-21 4.84 -2.21691e-20 -7.93883e-21 4.88 -2.21691e-20 -7.93883e-21 4.92 
-2.21691e-20 -7.93883e-21 4.96 
