# vtk DataFile Version 5.1
vtk output
ASCII
DATASET STRUCTURED_GRID
DIMENSIONS 254 1 1
POINTS 254 float
-0.100949 2.18312 -5 -0.100955 2.18324 -4.96 -0.10097 2.18358 -4.92 
-0.100997 2.18415 -4.88001 -0.101034 2.18495 -4.84001 -0.101082 2.18598 -4.80003 
-0.10114 2.18724 -4.76005 -0.101208 2.18872 -4.72007 -0.101287 2.19043 -4.68011 
-0.101376 2.19236 -4.64016 -0.101476 2.19451 -4.60022 -0.101586 2.19689 -4.56029 
-0.101706 2.19948 -4.52037 -0.101836 2.20229 -4.48047 -0.101976 2.20531 -4.44058 
-0.102125 2.20855 -4.40072 -0.102285 2.21201 -4.36087 -0.102454 2.21566 -4.32103 
-0.102632 2.21952 -4.28122 -0.10282 2.22358 -4.24143 -0.103017 2.22784 -4.20166 
-0.103224 2.23231 -4.16191 -0.103439 2.23696 -4.12218 -0.103663 2.2418 -4.08247 
-0.103895 2.24683 -4.04279 -0.104136 2.25204 -4.00313 -0.104386 2.25744 -3.9635 
-0.104643 2.26301 -3.92389 -0.104908 2.26874 -3.8843 -0.105181 2.27464 -3.84474 
-0.105462 2.28071 -3.80521 -0.10575 2.28695 -3.7657 -0.106046 2.29334 -3.72621 
-0.106348 2.29988 -3.68675 -0.106657 2.30656 -3.64731 -0.106973 2.31338 -3.6079 
-0.107295 2.32036 -3.56852 -0.107624 2.32746 -3.52915 -0.107958 2.33469 -3.48981 
-0.108298 2.34204 -3.4505 -0.108643 2.34951 -3.4112 -0.108995 2.35711 -3.37193 
-0.109351 2.36482 -3.33268 -0.109712 2.37262 -3.29345 -0.110078 2.38053 -3.25424 
-0.110448 2.38853 -3.21505 -0.110822 2.39663 -3.17588 -0.111201 2.40482 -3.13673 
-0.111583 2.41309 -3.0976 -0.111969 2.42143 -3.05848 -0.112358 2.42984 -3.01938 
-0.11275 2.43833 -2.98029 -0.113146 2.44688 -2.94122 -0.113544 2.45549 -2.90216 
-0.113944 2.46414 -2.8631 -0.114346 2.47284 -2.82406 -0.11475 2.48158 -2.78503 
-0.115157 2.49037 -2.74601 -0.115564 2.49919 -2.707 -0.115973 2.50803 -2.66799 
-0.116383 2.51688 -2.62898 -0.116793 2.52576 -2.58998 -0.117205 2.53466 -2.55099 
-0.117616 2.54356 -2.51199 -0.118028 2.55246 -2.473 -0.118439 2.56135 -2.434 
-0.11885 2.57024 -2.395 -0.11926 2.57911 -2.356 -0.11967 2.58798 -2.317 
-0.120078 2.59681 -2.27799 -0.120485 2.60561 -2.23897 -0.120891 2.61437 -2.19994 
-0.121294 2.6231 -2.16091 -0.121696 2.6318 -2.12187 -0.122096 2.64044 -2.08282 
-0.122493 2.64902 -2.04375 -0.122887 2.65754 -2.00467 -0.123278 2.666 -1.96558 
-0.123666 2.67439 -1.92647 -0.124051 2.68271 -1.88735 -0.124432 2.69095 -1.8482 
-0.124808 2.6991 -1.80905 -0.125181 2.70716 -1.76987 -0.12555 2.71514 -1.73067 
-0.125915 2.72302 -1.69146 -0.126274 2.73079 -1.65222 -0.126628 2.73845 -1.61296 
-0.126977 2.746 -1.57368 -0.127321 2.75343 -1.53438 -0.127659 2.76075 -1.49506 
-0.127991 2.76793 -1.45571 -0.128317 2.77498 -1.41634 -0.128637 2.78189 -1.37694 
-0.12895 2.78867 -1.33752 -0.129257 2.79531 -1.29808 -0.129557 2.80179 -1.25861 
-0.12985 2.80812 -1.21911 -0.130135 2.81429 -1.17959 -0.130413 2.8203 -1.14005 
-0.130684 2.82615 -1.10048 -0.130946 2.83183 -1.06088 -0.1312 2.83733 -1.02126 
-0.131447 2.84266 -0.981621 -0.131684 2.8478 -0.941954 -0.131914 2.85277 -0.902264 
-0.132135 2.85754 -0.862551 -0.132347 2.86212 -0.822815 -0.132549 2.8665 -0.783056 
-0.132743 2.87069 -0.743277 -0.132928 2.87468 -0.703477 -0.133103 2.87847 -0.663657 
-0.133268 2.88205 -0.623817 -0.133424 2.88542 -0.58396 -0.13357 2.88858 -0.544085 
-0.133706 2.89152 -0.504194 -0.133832 2.89425 -0.464287 -0.133949 2.89676 -0.424366 
-0.134054 2.89905 -0.384432 -0.13415 2.90112 -0.344486 -0.134236 2.90297 -0.304529 
-0.134311 2.90459 -0.264562 -0.134375 2.90599 -0.224586 -0.134429 2.90716 -0.184603 
-0.134473 2.9081 -0.144614 -0.134506 2.90882 -0.104621 -0.134528 2.9093 -0.0646236 
-0.13454 2.90956 -0.0246244 -0.134541 2.90959 0.0153756 -0.134532 2.90938 0.0553751 
-0.134512 2.90895 0.0953727 -0.134481 2.90829 0.135367 -0.13444 2.9074 0.175357 
-0.134389 2.90628 0.215342 -0.134326 2.90494 0.255319 -0.134254 2.90337 0.295288 
-0.134171 2.90157 0.335248 -0.134077 2.89955 0.375197 -0.133974 2.89731 0.415134 
-0.13386 2.89485 0.455058 -0.133736 2.89217 0.494968 -0.133602 2.88928 0.534863 
-0.133458 2.88617 0.574741 -0.133305 2.88285 0.614603 -0.133142 2.87932 0.654447 
-0.132969 2.87558 0.694271 -0.132786 2.87163 0.734076 -0.132595 2.86749 0.77386 
-0.132394 2.86315 0.813623 -0.132185 2.85861 0.853365 -0.131966 2.85389 0.893084 
-0.131738 2.84896 0.932779 -0.131502 2.84386 0.972452 -0.131258 2.83858 1.0121 
-0.131006 2.83312 1.05173 -0.130745 2.82748 1.09133 -0.130476 2.82167 1.1309 
-0.1302 2.8157 1.17045 -0.129916 2.80956 1.20998 -0.129625 2.80327 1.24948 
-0.129327 2.79682 1.28895 -0.129022 2.79022 1.3284 -0.12871 2.78347 1.36783 
-0.128392 2.77659 1.40723 -0.128067 2.76957 1.44661 -0.127736 2.76242 1.48596 
-0.1274 2.75514 1.52529 -0.127057 2.74773 1.5646 -0.126709 2.7402 1.60388 
-0.126356 2.73257 1.64315 -0.125998 2.72483 1.68239 -0.125635 2.71697 1.72161 
-0.125267 2.70902 1.76081 -0.124895 2.70097 1.79999 -0.124519 2.69284 1.83915 
-0.124139 2.68463 1.8783 -0.123755 2.67633 1.91742 -0.123368 2.66794 1.95653 
-0.122977 2.6595 1.99563 -0.122584 2.65099 2.03471 -0.122188 2.64243 2.07378 
-0.121789 2.6338 2.11284 -0.121388 2.62512 2.15189 -0.120984 2.61639 2.19092 
-0.120579 2.60764 2.22995 -0.120173 2.59885 2.26897 -0.119765 2.59002 2.30798 
-0.119355 2.58117 2.34698 -0.118945 2.57229 2.38599 -0.118534 2.56341 2.42498 
-0.118123 2.55452 2.46398 -0.117712 2.54562 2.50298 -0.1173 2.53672 2.54197 
-0.116888 2.52782 2.58097 -0.116478 2.51893 2.61997 -0.116068 2.51007 2.65897 
-0.115659 2.50123 2.69798 -0.115251 2.49241 2.73699 -0.114844 2.48361 2.77601 
-0.114439 2.47485 2.81504 -0.114037 2.46615 2.85408 -0.113636 2.45748 2.89313 
-0.113238 2.44887 2.93218 -0.112841 2.4403 2.97125 -0.112448 2.4318 3.01034 
-0.112059 2.42337 3.04944 -0.111672 2.41501 3.08855 -0.111289 2.40673 3.12768 
-0.110909 2.39852 3.16683 -0.110534 2.39039 3.20599 -0.110163 2.38237 3.24518 
-0.109796 2.37444 3.28438 -0.109434 2.36661 3.32361 -0.109077 2.35888 3.36285 
-0.108724 2.35126 3.40212 -0.108377 2.34376 3.44141 -0.108036 2.33638 3.48072 
-0.1077 2.32912 3.52005 -0.107371 2.32199 3.55941 -0.107047 2.31498 3.59879 
-0.106729 2.30812 3.6382 -0.106419 2.30141 3.67763 -0.106115 2.29484 3.71709 
-0.105818 2.28842 3.75657 -0.105528 2.28214 3.79607 -0.105246 2.27603 3.8356 
-0.104971 2.27009 3.87515 -0.104704 2.26432 3.91473 -0.104445 2.25871 3.95434 
-0.104193 2.25327 3.99397 -0.10395 2.24802 4.03362 -0.103716 2.24295 4.0733 
-0.10349 2.23807 4.113 -0.103273 2.23337 4.15272 -0.103064 2.22886 4.19246 
-0.102865 2.22455 4.23223 -0.102675 2.22044 4.27202 -0.102494 2.21654 4.31183 
-0.102323 2.21283 4.35165 -0.102161 2.20933 4.3915 -0.102009 2.20604 4.43136 
-0.101867 2.20297 4.47125 -0.101735 2.20011 4.51114 -0.101613 2.19747 4.55106 
-0.101501 2.19504 4.59098 -0.101399 2.19284 4.63092 -0.101307 2.19085 4.67087 
-0.101226 2.1891 4.71083 -0.101155 2.18756 4.7508 -0.101094 2.18625 4.79078 
-0.101044 2.18517 4.83077 -0.101005 2.18432 4.87076 -0.100976 2.18369 4.91075 
-0.100957 2.18329 4.95075 -0.10095 2.18313 4.99075 
