# vtk DataFile Version 5.1
vtk output
ASCII
DATASET STRUCTURED_GRID
DIMENSIONS 255 1 1
POINTS 255 float
2.3208 -1.07227 -5 2.32092 -1.07232 -4.96 2.32128 -1.07249 -4.92 
2.32189 -1.07277 -4.88001 2.32274 -1.07317 -4.84002 2.32384 -1.07367 -4.80004 
2.32518 -1.07429 -4.76006 2.32675 -1.07502 -4.7201 2.32856 -1.07586 -4.68015 
2.33061 -1.0768 -4.64022 2.3329 -1.07786 -4.6003 2.33543 -1.07903 -4.56039 
2.33818 -1.0803 -4.52051 2.34116 -1.08168 -4.48064 2.34437 -1.08316 -4.4408 
2.34781 -1.08475 -4.40098 2.35147 -1.08644 -4.36118 2.35535 -1.08823 -4.32141 
2.35944 -1.09012 -4.28167 2.36375 -1.09211 -4.24195 2.36827 -1.0942 -4.20226 
2.373 -1.09639 -4.1626 2.37793 -1.09867 -4.12297 2.38306 -1.10103 -4.08337 
2.38838 -1.10349 -4.0438 2.3939 -1.10604 -4.00427 2.39961 -1.10868 -3.96477 
2.40551 -1.1114 -3.9253 2.41157 -1.11421 -3.88586 2.41781 -1.11709 -3.84645 
2.42423 -1.12006 -3.80708 2.43082 -1.1231 -3.76775 2.43758 -1.12622 -3.72845 
2.44448 -1.12941 -3.68918 2.45154 -1.13267 -3.64994 2.45874 -1.136 -3.61073 
2.4661 -1.1394 -3.57156 2.4736 -1.14287 -3.53243 2.48123 -1.14639 -3.49332 
2.48898 -1.14997 -3.45424 2.49686 -1.15361 -3.41519 2.50487 -1.15731 -3.37618 
2.513 -1.16107 -3.33719 2.52123 -1.16487 -3.29824 2.52956 -1.16872 -3.2593 
2.53799 -1.17262 -3.2204 2.54652 -1.17656 -3.18152 2.55515 -1.18055 -3.14266 
2.56386 -1.18457 -3.10383 2.57265 -1.18863 -3.06502 2.5815 -1.19272 -3.02623 
2.59044 -1.19685 -2.98745 2.59944 -1.20101 -2.9487 2.6085 -1.2052 -2.90997 
2.61761 -1.2094 -2.87125 2.62677 -1.21363 -2.83254 2.63597 -1.21789 -2.79385 
2.64522 -1.22216 -2.75517 2.65451 -1.22645 -2.7165 2.66382 -1.23075 -2.67783 
2.67314 -1.23506 -2.63918 2.68249 -1.23938 -2.60052 2.69186 -1.24371 -2.56188 
2.70124 -1.24804 -2.52324 2.71061 -1.25237 -2.48459 2.71998 -1.2567 -2.44595 
2.72934 -1.26103 -2.4073 2.7387 -1.26535 -2.36865 2.74804 -1.26967 -2.33 
2.75736 -1.27397 -2.29133 2.76664 -1.27826 -2.25266 2.77589 -1.28253 -2.21398 
2.78511 -1.28679 -2.17529 2.79429 -1.29103 -2.13659 2.80341 -1.29525 -2.09788 
2.81248 -1.29944 -2.05914 2.82149 -1.3036 -2.02039 2.83044 -1.30773 -1.98163 
2.83932 -1.31184 -1.94284 2.84813 -1.31591 -1.90404 2.85685 -1.31994 -1.86521 
2.86549 -1.32393 -1.82636 2.87404 -1.32788 -1.78748 2.8825 -1.33179 -1.74858 
2.89087 -1.33565 -1.70966 2.89912 -1.33947 -1.67071 2.90726 -1.34323 -1.63172 
2.91529 -1.34694 -1.59271 2.9232 -1.35059 -1.55368 2.931 -1.3542 -1.51461 
2.93866 -1.35773 -1.47551 2.94618 -1.36121 -1.43638 2.95356 -1.36462 -1.39721 
2.9608 -1.36797 -1.35801 2.9679 -1.37125 -1.31879 2.97485 -1.37446 -1.27952 
2.98163 -1.37759 -1.24023 2.98825 -1.38065 -1.2009 2.9947 -1.38363 -1.16154 
3.00099 -1.38653 -1.12214 3.00711 -1.38936 -1.08271 3.01304 -1.3921 -1.04325 
3.01878 -1.39475 -1.00375 3.02434 -1.39732 -0.964223 3.02971 -1.3998 -0.924663 
3.03488 -1.40219 -0.885072 3.03986 -1.40449 -0.845449 3.04463 -1.40669 -0.805795 
3.04919 -1.4088 -0.766112 3.05354 -1.41082 -0.726401 3.05769 -1.41273 -0.686662 
3.06161 -1.41454 -0.646897 3.06532 -1.41626 -0.607105 3.0688 -1.41786 -0.56729 
3.07206 -1.41937 -0.527451 3.0751 -1.42077 -0.487591 3.0779 -1.42207 -0.447711 
3.08047 -1.42326 -0.407811 3.08281 -1.42434 -0.367894 3.08491 -1.42531 -0.327961 
3.08677 -1.42617 -0.288014 3.0884 -1.42692 -0.248054 3.08978 -1.42756 -0.208083 
3.09093 -1.42809 -0.168103 3.09183 -1.4285 -0.128115 3.09249 -1.42881 -0.0881217 
3.0929 -1.429 -0.0481244 3.09308 -1.42908 -0.0081248 3.093 -1.42905 0.0318751 
3.09269 -1.4289 0.0718736 3.09213 -1.42864 0.111869 3.09132 -1.42827 0.151859 
3.09028 -1.42779 0.191842 3.08899 -1.42719 0.231817 3.08746 -1.42649 0.271782 
3.08569 -1.42567 0.311734 3.08369 -1.42474 0.351673 3.08145 -1.42371 0.391597 
3.07897 -1.42256 0.431504 3.07626 -1.42131 0.471393 3.07332 -1.41995 0.511261 
3.07015 -1.41849 0.551109 3.06676 -1.41692 0.590934 3.06315 -1.41525 0.630735 
3.05931 -1.41348 0.670511 3.05525 -1.41161 0.710261 3.05098 -1.40963 0.749983 
3.04651 -1.40756 0.789678 3.04182 -1.4054 0.829343 3.03693 -1.40314 0.868979 
3.03184 -1.40079 0.908583 3.02654 -1.39834 0.948156 3.02106 -1.39581 0.987698 
3.01539 -1.39319 1.02721 3.00954 -1.39048 1.06668 3.0035 -1.38769 1.10613 
2.99728 -1.38482 1.14554 2.99089 -1.38187 1.18491 2.98434 -1.37884 1.22426 
2.97762 -1.37574 1.26357 2.97074 -1.37256 1.30284 2.96371 -1.36931 1.34208 
2.95652 -1.36599 1.38129 2.9492 -1.3626 1.42047 2.94173 -1.35915 1.45961 
2.93413 -1.35564 1.49873 2.92638 -1.35206 1.53781 2.91852 -1.34843 1.57686 
2.91054 -1.34474 1.61588 2.90244 -1.341 1.65487 2.89423 -1.33721 1.69384 
2.88591 -1.33336 1.73277 2.87749 -1.32947 1.77168 2.86898 -1.32554 1.81057 
2.86037 -1.32157 1.84943 2.85169 -1.31755 1.88827 2.84291 -1.3135 1.92708 
2.83405 -1.3094 1.96587 2.82513 -1.30528 2.00465 2.81615 -1.30113 2.0434 
2.80711 -1.29695 2.08214 2.798 -1.29275 2.12087 2.78884 -1.28851 2.15957 
2.77964 -1.28426 2.19827 2.77041 -1.28 2.23695 2.76114 -1.27572 2.27563 
2.75183 -1.27142 2.31429 2.7425 -1.2671 2.35295 2.73315 -1.26278 2.3916 
2.72379 -1.25846 2.43025 2.71442 -1.25413 2.46889 2.70505 -1.2498 2.50754 
2.69567 -1.24547 2.54618 2.68629 -1.24114 2.58482 2.67694 -1.23681 2.62347 
2.6676 -1.2325 2.66213 2.65829 -1.2282 2.70079 2.64899 -1.2239 2.73946 
2.63972 -1.21962 2.77813 2.6305 -1.21536 2.81682 2.62133 -1.21112 2.85552 
2.6122 -1.2069 2.89424 2.60312 -1.20271 2.93297 2.59409 -1.19853 2.97171 
2.58512 -1.19439 3.01047 2.57624 -1.19029 3.04926 2.56742 -1.18622 3.08806 
2.55868 -1.18218 3.12688 2.55002 -1.17817 3.16573 2.54145 -1.17421 3.2046 
2.53297 -1.1703 3.24349 2.5246 -1.16643 3.28242 2.51633 -1.16261 3.32137 
2.50816 -1.15883 3.36034 2.5001 -1.15511 3.39934 2.49217 -1.15145 3.43838 
2.48437 -1.14784 3.47744 2.47669 -1.14429 3.51654 2.46914 -1.1408 3.55566 
2.46172 -1.13737 3.59482 2.45445 -1.13402 3.63401 2.44733 -1.13073 3.67323 
2.44036 -1.12751 3.71249 2.43355 -1.12436 3.75178 2.42689 -1.12128 3.7911 
2.4204 -1.11829 3.83046 2.41409 -1.11537 3.86985 2.40795 -1.11253 3.90927 
2.40199 -1.10978 3.94873 2.3962 -1.1071 3.98822 2.3906 -1.10452 4.02774 
2.3852 -1.10202 4.06729 2.37999 -1.09962 4.10688 2.37498 -1.0973 4.1465 
2.37017 -1.09508 4.18614 2.36556 -1.09295 4.22582 2.36117 -1.09092 4.26553 
2.35699 -1.08899 4.30526 2.35303 -1.08716 4.34502 2.34927 -1.08542 4.38481 
2.34574 -1.08379 4.42462 2.34244 -1.08227 4.46445 2.33937 -1.08085 4.50431 
2.33652 -1.07953 4.54419 2.3339 -1.07832 4.58408 2.33152 -1.07722 4.624 
2.32937 -1.07623 4.66393 2.32746 -1.07535 4.70387 2.32579 -1.07457 4.74383 
2.32436 -1.07391 4.7838 2.32316 -1.07336 4.82378 2.32221 -1.07292 4.86376 
2.3215 -1.07259 4.90375 2.32104 -1.07238 4.94375 2.32082 -1.07228 4.98375 

