# vtk DataFile Version 5.1
vtk output
ASCII
DATASET STRUCTURED_GRID
DIMENSIONS 254 1 1
POINTS 254 float
1.5078 -1.50046 -5 1.50788 -1.50054 -4.96 1.50811 -1.50077 -4.92 
1.50851 -1.50117 -4.88001 1.50906 -1.50172 -4.84001 1.50977 -1.50243 -4.80003 
1.51064 -1.50329 -4.76004 1.51166 -1.50431 -4.72007 1.51284 -1.50548 -4.68011 
1.51418 -1.50681 -4.64015 1.51567 -1.50829 -4.6002 1.51731 -1.50992 -4.56027 
1.5191 -1.51171 -4.52035 1.52104 -1.51364 -4.48045 1.52313 -1.51571 -4.44055 
1.52536 -1.51794 -4.40068 1.52775 -1.52032 -4.36082 1.53028 -1.52283 -4.32098 
1.53294 -1.52548 -4.28116 1.53575 -1.52827 -4.24135 1.53869 -1.5312 -4.20157 
1.54178 -1.53428 -4.16181 1.54499 -1.53748 -4.12207 1.54834 -1.5408 -4.08234 
1.55181 -1.54426 -4.04265 1.55541 -1.54784 -4.00297 1.55914 -1.55156 -3.96332 
1.56299 -1.55539 -3.92369 1.56695 -1.55933 -3.88408 1.57103 -1.56339 -3.8445 
1.57523 -1.56756 -3.80494 1.57954 -1.57186 -3.7654 1.58396 -1.57625 -3.72589 
1.58848 -1.58075 -3.6864 1.59309 -1.58534 -3.64694 1.59781 -1.59004 -3.60749 
1.60263 -1.59483 -3.56808 1.60755 -1.59972 -3.52868 1.61254 -1.6047 -3.48931 
1.61762 -1.60975 -3.44995 1.62279 -1.61489 -3.41062 1.62804 -1.62012 -3.37132 
1.63338 -1.62543 -3.33203 1.63877 -1.6308 -3.29276 1.64424 -1.63624 -3.25351 
1.64977 -1.64175 -3.21428 1.65538 -1.64732 -3.17507 1.66104 -1.65296 -3.13588 
1.66676 -1.65865 -3.0967 1.67253 -1.66439 -3.05754 1.67835 -1.67018 -3.01839 
1.68421 -1.67602 -2.97925 1.69013 -1.68191 -2.94013 1.69608 -1.68783 -2.90102 
1.70207 -1.69378 -2.86193 1.70808 -1.69977 -2.82284 1.71413 -1.70579 -2.78376 
1.72021 -1.71184 -2.74469 1.72631 -1.71791 -2.70562 1.73242 -1.72399 -2.66656 
1.73855 -1.73009 -2.62751 1.74469 -1.7362 -2.58846 1.75084 -1.74232 -2.54941 
1.757 -1.74845 -2.51037 1.76315 -1.75457 -2.47132 1.7693 -1.76069 -2.43227 
1.77544 -1.7668 -2.39322 1.78158 -1.77291 -2.35417 1.78771 -1.77901 -2.31512 
1.79382 -1.78509 -2.27605 1.7999 -1.79114 -2.23699 1.80596 -1.79717 -2.19791 
1.812 -1.80318 -2.15883 1.81801 -1.80916 -2.11974 1.82398 -1.8151 -2.08063 
1.82991 -1.821 -2.04152 1.8358 -1.82686 -2.00239 1.84165 -1.83268 -1.96325 
1.84745 -1.83846 -1.9241 1.8532 -1.84418 -1.88493 1.85889 -1.84984 -1.84574 
1.86452 -1.85545 -1.80654 1.87009 -1.86099 -1.76732 1.8756 -1.86648 -1.72808 
1.88105 -1.87189 -1.68883 1.88641 -1.87723 -1.64955 1.8917 -1.8825 -1.61025 
1.89692 -1.88768 -1.57093 1.90205 -1.89279 -1.53159 1.9071 -1.89782 -1.49223 
1.91206 -1.90275 -1.45285 1.91693 -1.9076 -1.41344 1.9217 -1.91235 -1.37402 
1.92638 -1.917 -1.33456 1.93096 -1.92156 -1.29509 1.93543 -1.92601 -1.25559 
1.93979 -1.93035 -1.21607 1.94405 -1.93459 -1.17652 1.9482 -1.93871 -1.13695 
1.95223 -1.94273 -1.09736 1.95614 -1.94662 -1.05774 1.95993 -1.9504 -1.0181 
1.9636 -1.95405 -0.978435 1.96715 -1.95757 -0.938749 1.97057 -1.96098 -0.899041 
1.97385 -1.96425 -0.85931 1.97701 -1.96739 -0.819559 1.98003 -1.97039 -0.779786 
1.98291 -1.97326 -0.739993 1.98566 -1.97599 -0.700181 1.98826 -1.97858 -0.66035 
1.99072 -1.98103 -0.620501 1.99303 -1.98334 -0.580635 1.9952 -1.98549 -0.540752 
1.99723 -1.98751 -0.500854 1.9991 -1.98937 -0.460941 2.00082 -1.99108 -0.421015 
2.00239 -1.99265 -0.381076 2.00381 -1.99406 -0.341126 2.00507 -1.99531 -0.301166 
2.00618 -1.99642 -0.261197 2.00713 -1.99736 -0.221219 2.00792 -1.99815 -0.181235 
2.00856 -1.99879 -0.141245 2.00904 -1.99927 -0.101251 2.00936 -1.99959 -0.0612532 
2.00953 -1.99975 -0.0212539 2.00953 -1.99975 0.0187461 2.00938 -1.9996 0.0587455 
2.00907 -1.99929 0.0987431 2.0086 -1.99882 0.138738 2.00797 -1.9982 0.178728 
2.00718 -1.99742 0.218712 2.00624 -1.99648 0.25869 2.00514 -1.99539 0.29866 
2.00389 -1.99414 0.338621 2.00248 -1.99274 0.378572 2.00092 -1.99119 0.418511 
1.99921 -1.98948 0.458438 1.99735 -1.98763 0.498352 1.99533 -1.98562 0.538251 
1.99317 -1.98347 0.578135 1.99087 -1.98118 0.618002 1.98842 -1.97874 0.657852 
1.98582 -1.97616 0.697685 1.98309 -1.97344 0.737498 1.98021 -1.97057 0.777292 
1.9772 -1.96758 0.817066 1.97406 -1.96445 0.856819 1.97078 -1.96119 0.89655 
1.96737 -1.95779 0.93626 1.96383 -1.95427 0.975947 1.96017 -1.95063 1.01561 
1.95638 -1.94686 1.05525 1.95248 -1.94298 1.09487 1.94845 -1.93897 1.13447 
1.94431 -1.93485 1.17404 1.94006 -1.93062 1.21359 1.93571 -1.92629 1.25311 
1.93124 -1.92184 1.29261 1.92667 -1.91729 1.33209 1.92199 -1.91264 1.37154 
1.91723 -1.9079 1.41097 1.91237 -1.90306 1.45038 1.90741 -1.89813 1.48977 
1.90237 -1.89311 1.52913 1.89724 -1.88801 1.56847 1.89203 -1.88282 1.60779 
1.88675 -1.87757 1.64709 1.88139 -1.87223 1.68636 1.87595 -1.86682 1.72562 
1.87044 -1.86134 1.76486 1.86487 -1.8558 1.80408 1.85924 -1.8502 1.84329 
1.85356 -1.84454 1.88247 1.84781 -1.83882 1.92164 1.84201 -1.83305 1.9608 
1.83617 -1.82723 1.99994 1.83028 -1.82137 2.03907 1.82435 -1.81547 2.07818 
1.81838 -1.80953 2.11729 1.81237 -1.80356 2.15638 1.80634 -1.79755 2.19546 
1.80028 -1.79152 2.23454 1.7942 -1.78547 2.27361 1.78809 -1.77939 2.31267 
1.78197 -1.7733 2.35172 1.77583 -1.76719 2.39077 1.76968 -1.76107 2.42982 
1.76354 -1.75495 2.46887 1.75738 -1.74883 2.50792 1.75123 -1.7427 2.54696 
1.74507 -1.73658 2.58601 1.73893 -1.73047 2.62506 1.7328 -1.72437 2.66411 
1.72669 -1.71829 2.70317 1.72059 -1.71222 2.74224 1.71451 -1.70617 2.78131 
1.70846 -1.70015 2.82039 1.70244 -1.69416 2.85947 1.69646 -1.6882 2.89857 
1.6905 -1.68228 2.93768 1.68458 -1.67639 2.9768 1.67871 -1.67054 3.01593 
1.67289 -1.66475 3.05508 1.66712 -1.65901 3.09424 1.6614 -1.65332 3.13342 
1.65573 -1.64767 3.17261 1.65012 -1.64209 3.21182 1.64459 -1.63658 3.25105 
1.63911 -1.63114 3.2903 1.63371 -1.62576 3.32957 1.62838 -1.62045 3.36885 
1.62312 -1.61522 3.40816 1.61795 -1.61007 3.44749 1.61286 -1.60501 3.48684 
1.60786 -1.60003 3.52621 1.60294 -1.59514 3.56561 1.59811 -1.59034 3.60502 
1.59339 -1.58563 3.64446 1.58876 -1.58103 3.68393 1.58424 -1.57653 3.72341 
1.57982 -1.57213 3.76292 1.5755 -1.56783 3.80246 1.57129 -1.56365 3.84202 
1.56721 -1.55958 3.8816 1.56324 -1.55563 3.9212 1.55938 -1.55179 3.96083 
1.55564 -1.54807 4.00048 1.55203 -1.54448 4.04016 1.54855 -1.54102 4.07985 
1.5452 -1.53768 4.11957 1.54198 -1.53447 4.15932 1.53888 -1.53139 4.19908 
1.53593 -1.52845 4.23886 1.53311 -1.52565 4.27866 1.53044 -1.52299 4.31848 
1.5279 -1.52047 4.35832 1.52551 -1.51809 4.39818 1.52326 -1.51585 4.43805 
1.52116 -1.51376 4.47794 1.51922 -1.51182 4.51785 1.51742 -1.51003 4.55777 
1.51576 -1.50839 4.5977 1.51427 -1.5069 4.63764 1.51292 -1.50556 4.6776 
1.51173 -1.50438 4.71756 1.5107 -1.50335 4.75754 1.50982 -1.50248 4.79752 
1.5091 -1.50176 4.83751 1.50854 -1.5012 4.8775 1.50813 -1.50079 4.91749 
1.50789 -1.50055 4.95749 1.5078 -1.50046 4.99749 
