# vtk DataFile Version 5.1
vtk output
ASCII
DATASET STRUCTURED_GRID
DIMENSIONS 254 1 1
POINTS 254 float
-1.43662 -1.72155 -5 -1.43669 -1.72164 -4.96 -1.43692 -1.72191 -4.92 
-1.43729 -1.72236 -4.88001 -1.43782 -1.72299 -4.84001 -1.4385 -1.7238 -4.80003 
-1.43933 -1.72479 -4.76005 -1.4403 -1.72596 -4.72008 -1.44142 -1.72731 -4.68012 
-1.44269 -1.72883 -4.64017 -1.44411 -1.73053 -4.60023 -1.44568 -1.7324 -4.5603 
-1.44738 -1.73445 -4.52039 -1.44923 -1.73666 -4.48049 -1.45122 -1.73905 -4.44062 
-1.45335 -1.7416 -4.40075 -1.45562 -1.74432 -4.36091 -1.45803 -1.7472 -4.32109 
-1.46056 -1.75024 -4.28128 -1.46324 -1.75345 -4.2415 -1.46604 -1.75681 -4.20174 
-1.46898 -1.76033 -4.16201 -1.47204 -1.76399 -4.12229 -1.47522 -1.76781 -4.0826 
-1.47853 -1.77177 -4.04294 -1.48195 -1.77588 -4.00329 -1.4855 -1.78013 -3.96368 
-1.48917 -1.78452 -3.92409 -1.49294 -1.78904 -3.88453 -1.49682 -1.79369 -3.84499 
-1.50081 -1.79847 -3.80548 -1.50491 -1.80339 -3.76599 -1.50911 -1.80842 -3.72653 
-1.51341 -1.81357 -3.6871 -1.5178 -1.81883 -3.64769 -1.52229 -1.82421 -3.60831 
-1.52687 -1.8297 -3.56895 -1.53154 -1.8353 -3.52962 -1.53629 -1.84099 -3.49032 
-1.54113 -1.84678 -3.45103 -1.54604 -1.85267 -3.41178 -1.55103 -1.85865 -3.37254 
-1.5561 -1.86472 -3.33333 -1.56123 -1.87087 -3.29414 -1.56642 -1.8771 -3.25497 
-1.57168 -1.8834 -3.21582 -1.57701 -1.88978 -3.1767 -1.58239 -1.89623 -3.13759 
-1.58782 -1.90274 -3.0985 -1.5933 -1.90931 -3.05942 -1.59883 -1.91594 -3.02036 
-1.60441 -1.92262 -2.98132 -1.61003 -1.92935 -2.9423 -1.61568 -1.93613 -2.90328 
-1.62137 -1.94294 -2.86428 -1.62708 -1.94979 -2.82529 -1.63283 -1.95668 -2.7863 
-1.63861 -1.9636 -2.74733 -1.6444 -1.97054 -2.70837 -1.65021 -1.9775 -2.66941 
-1.65603 -1.98448 -2.63046 -1.66186 -1.99147 -2.59151 -1.66771 -1.99847 -2.55256 
-1.67356 -2.00549 -2.51362 -1.67941 -2.01249 -2.47467 -1.68525 -2.0195 -2.43573 
-1.69109 -2.02649 -2.39678 -1.69693 -2.03349 -2.35783 -1.70275 -2.04047 -2.31888 
-1.70856 -2.04742 -2.27992 -1.71434 -2.05435 -2.24095 -1.7201 -2.06126 -2.20197 
-1.72584 -2.06814 -2.16299 -1.73156 -2.07499 -2.124 -1.73724 -2.08179 -2.08499 
-1.74288 -2.08855 -2.04597 -1.74848 -2.09527 -2.00694 -1.75405 -2.10193 -1.96789 
-1.75957 -2.10855 -1.92883 -1.76504 -2.11511 -1.88975 -1.77046 -2.1216 -1.85066 
-1.77582 -2.12802 -1.81154 -1.78112 -2.13438 -1.77241 -1.78637 -2.14067 -1.73326 
-1.79155 -2.14688 -1.69408 -1.79667 -2.15301 -1.65489 -1.80171 -2.15905 -1.61567 
-1.80667 -2.165 -1.57643 -1.81157 -2.17086 -1.53716 -1.81638 -2.17663 -1.49788 
-1.82111 -2.1823 -1.45856 -1.82575 -2.18786 -1.41922 -1.83031 -2.19332 -1.37986 
-1.83477 -2.19867 -1.34047 -1.83914 -2.20391 -1.30106 -1.84341 -2.20903 -1.26162 
-1.84758 -2.21402 -1.22215 -1.85165 -2.21889 -1.18266 -1.85561 -2.22364 -1.14314 
-1.85947 -2.22826 -1.10359 -1.86321 -2.23275 -1.06402 -1.86684 -2.2371 -1.02442 
-1.87035 -2.2413 -0.984802 -1.87374 -2.24537 -0.945154 -1.87702 -2.24929 -0.905482 
-1.88017 -2.25307 -0.865785 -1.88319 -2.25669 -0.826065 -1.88609 -2.26016 -0.786321 
-1.88885 -2.26348 -0.746554 -1.89149 -2.26664 -0.706767 -1.89399 -2.26964 -0.666958 
-1.89636 -2.27247 -0.627129 -1.89859 -2.27514 -0.58728 -1.90068 -2.27764 -0.547413 
-1.90263 -2.27998 -0.507529 -1.90443 -2.28215 -0.467629 -1.9061 -2.28414 -0.427713 
-1.90762 -2.28596 -0.387784 -1.90899 -2.28761 -0.347841 -1.91022 -2.28908 -0.307887 
-1.9113 -2.29038 -0.267923 -1.91223 -2.29149 -0.227949 -1.91301 -2.29243 -0.187968 
-1.91365 -2.29319 -0.14798 -1.91413 -2.29377 -0.107987 -1.91446 -2.29416 -0.0679905 
-1.91464 -2.29438 -0.0279915 -1.91467 -2.29442 0.0120085 -1.91455 -2.29427 0.052008 
-1.91428 -2.29395 0.0920058 -1.91386 -2.29344 0.132 -1.91329 -2.29275 0.17199 
-1.91256 -2.29189 0.211974 -1.91169 -2.29084 0.251951 -1.91067 -2.28962 0.29192 
-1.9095 -2.28822 0.331878 -1.90818 -2.28664 0.371825 -1.90672 -2.28489 0.41176 
-1.90512 -2.28297 0.451681 -1.90337 -2.28087 0.491588 -1.90147 -2.2786 0.531479 
-1.89944 -2.27616 0.571352 -1.89726 -2.27356 0.611208 -1.89495 -2.27079 0.651045 
-1.89251 -2.26785 0.690863 -1.88992 -2.26476 0.730659 -1.88721 -2.26151 0.770434 
-1.88436 -2.2581 0.810187 -1.88139 -2.25454 0.849917 -1.87829 -2.25082 0.889623 
-1.87507 -2.24696 0.929305 -1.87172 -2.24294 0.968962 -1.86826 -2.23879 1.0086 
-1.86467 -2.2345 1.0482 -1.86098 -2.23007 1.08778 -1.85717 -2.22551 1.12734 
-1.85325 -2.22081 1.16687 -1.84922 -2.21598 1.20637 -1.84509 -2.21104 1.24585 
-1.84086 -2.20597 1.2853 -1.83653 -2.20078 1.32473 -1.8321 -2.19547 1.36412 
-1.82759 -2.19006 1.4035 -1.82298 -2.18454 1.44285 -1.81828 -2.17891 1.48217 
-1.8135 -2.17318 1.52147 -1.80864 -2.16735 1.56074 -1.8037 -2.16144 1.59999 
-1.79869 -2.15543 1.63922 -1.79361 -2.14934 1.67842 -1.78845 -2.14316 1.71761 
-1.78323 -2.1369 1.75677 -1.77795 -2.13057 1.79591 -1.77261 -2.12417 1.83503 
-1.76721 -2.11771 1.87413 -1.76176 -2.11118 1.91322 -1.75626 -2.10458 1.95229 
-1.75071 -2.09794 1.99134 -1.74512 -2.09124 2.03038 -1.7395 -2.0845 2.0694 
-1.73383 -2.07771 2.10841 -1.72813 -2.07088 2.14741 -1.7224 -2.06401 2.1864 
-1.71665 -2.05712 2.22537 -1.71087 -2.0502 2.26435 -1.70508 -2.04325 2.30331 
-1.69926 -2.03628 2.34226 -1.69343 -2.02929 2.38122 -1.68759 -2.02229 2.42016 
-1.68175 -2.01529 2.45911 -1.6759 -2.00829 2.49806 -1.67005 -2.00128 2.537 
-1.6642 -1.99427 2.57594 -1.65836 -1.98727 2.61489 -1.65253 -1.98029 2.65384 
-1.64672 -1.97332 2.6928 -1.64092 -1.96637 2.73176 -1.63513 -1.95944 2.77073 
-1.62938 -1.95254 2.80971 -1.62365 -1.94568 2.8487 -1.61795 -1.93885 2.8877 
-1.61229 -1.93206 2.92671 -1.60665 -1.9253 2.96573 -1.60106 -1.9186 3.00476 
-1.59551 -1.91195 3.04381 -1.59001 -1.90536 3.08288 -1.58456 -1.89883 3.12197 
-1.57915 -1.89235 3.16107 -1.5738 -1.88594 3.20019 -1.56852 -1.87961 3.23933 
-1.5633 -1.87335 3.27849 -1.55814 -1.86717 3.31767 -1.55305 -1.86107 3.35687 
-1.54802 -1.85505 3.3961 -1.54308 -1.84912 3.43534 -1.53822 -1.8433 3.47462 
-1.53343 -1.83756 3.51392 -1.52873 -1.83193 3.55324 -1.52411 -1.82639 3.59258 
-1.51958 -1.82097 3.63195 -1.51515 -1.81566 3.67135 -1.51082 -1.81046 3.71077 
-1.50658 -1.80538 3.75022 -1.50243 -1.80042 3.7897 -1.4984 -1.79558 3.8292 
-1.49447 -1.79088 3.86872 -1.49066 -1.78631 3.90828 -1.48695 -1.78187 3.94786 
-1.48336 -1.77756 3.98746 -1.47988 -1.77339 4.02709 -1.47653 -1.76937 4.06675 
-1.4733 -1.7655 4.10643 -1.47019 -1.76178 4.14613 -1.4672 -1.7582 4.18586 
-1.46434 -1.75477 4.22561 -1.46162 -1.7515 4.26539 -1.45903 -1.7484 4.30518 
-1.45657 -1.74545 4.345 -1.45424 -1.74267 4.38483 -1.45205 -1.74005 4.42469 
-1.45001 -1.73759 4.46456 -1.4481 -1.73531 4.50445 -1.44634 -1.7332 4.54435 
-1.44472 -1.73126 4.58427 -1.44324 -1.72949 4.62421 -1.44191 -1.7279 4.66415 
-1.44073 -1.72648 4.70411 -1.4397 -1.72524 4.74408 -1.43881 -1.72418 4.78405 
-1.43807 -1.72329 4.82404 -1.43749 -1.72259 4.86403 -1.43705 -1.72207 4.90402 
-1.43676 -1.72172 4.94402 -1.43663 -1.72156 4.98402 
