# vtk DataFile Version 5.1
vtk output
ASCII
DATASET STRUCTURED_GRID
DIMENSIONS 251 1 1
POINTS 251 float
-0.3697 0.338676 -5 -0.369719 0.338693 -4.96 -0.369778 0.338747 -4.92 
-0.369875 0.338835 -4.88 -0.37001 0.33896 -4.84 -0.370185 0.33912 -4.8 
-0.370398 0.339315 -4.76 -0.370649 0.339545 -4.72 -0.370938 0.33981 -4.68001 
-0.371266 0.34011 -4.64001 -0.371632 0.340445 -4.60001 -0.372035 0.340815 -4.56002 
-0.372475 0.341218 -4.52002 -0.372952 0.341655 -4.48002 -0.373466 0.342126 -4.44003 
-0.374017 0.34263 -4.40004 -0.374605 0.343169 -4.36005 -0.375227 0.343739 -4.32005 
-0.375884 0.344341 -4.28006 -0.376577 0.344975 -4.24008 -0.377304 0.345641 -4.20009 
-0.378066 0.34634 -4.1601 -0.378861 0.347068 -4.12012 -0.379688 0.347825 -4.08013 
-0.380547 0.348613 -4.04015 -0.38144 0.34943 -4.00017 -0.382365 0.350277 -3.96019 
-0.383319 0.351151 -3.92021 -0.384303 0.352053 -3.88023 -0.385316 0.352981 -3.84025 
-0.386359 0.353936 -3.80028 -0.387431 0.354919 -3.7603 -0.38853 0.355926 -3.72033 
-0.389655 0.356956 -3.68036 -0.390806 0.35801 -3.64039 -0.391983 0.359089 -3.60042 
-0.393187 0.360191 -3.56046 -0.394413 0.361314 -3.52049 -0.395661 0.362458 -3.48053 
-0.396932 0.363622 -3.44056 -0.398224 0.364806 -3.4006 -0.399539 0.366011 -3.36064 
-0.400874 0.367233 -3.32068 -0.402226 0.368472 -3.28073 -0.403596 0.369727 -3.24077 
-0.404984 0.370998 -3.20081 -0.40639 0.372286 -3.16086 -0.407811 0.373588 -3.12091 
-0.409246 0.374903 -3.08095 -0.410694 0.376229 -3.041 -0.412156 0.377568 -3.00105 
-0.41363 0.378919 -2.9611 -0.415117 0.38028 -2.92115 -0.416611 0.38165 -2.8812 
-0.418115 0.383027 -2.84125 -0.419627 0.384412 -2.80131 -0.421147 0.385805 -2.76136 
-0.422675 0.387204 -2.72141 -0.424206 0.388607 -2.68147 -0.425741 0.390013 -2.64152 
-0.42728 0.391422 -2.60158 -0.428822 0.392835 -2.56163 -0.430367 0.39425 -2.52169 
-0.431911 0.395665 -2.48174 -0.433453 0.397078 -2.4418 -0.434995 0.39849 -2.40185 
-0.436535 0.3999 -2.3619 -0.438072 0.401309 -2.32196 -0.439605 0.402713 -2.28201 
-0.441131 0.404111 -2.24207 -0.442651 0.405503 -2.20212 -0.444164 0.40689 -2.16217 
-0.445671 0.40827 -2.12222 -0.447167 0.409641 -2.08228 -0.448653 0.411002 -2.04233 
-0.450128 0.412352 -2.00238 -0.451591 0.413693 -1.96243 -0.453043 0.415023 -1.92247 
-0.45448 0.416339 -1.88252 -0.455902 0.417642 -1.84257 -0.457308 0.41893 -1.80261 
-0.458698 0.420203 -1.76266 -0.460072 0.421462 -1.7227 -0.461427 0.422704 -1.68274 
-0.462763 0.423927 -1.64279 -0.464078 0.425132 -1.60283 -0.465373 0.426318 -1.56286 
-0.466648 0.427486 -1.5229 -0.4679 0.428633 -1.48294 -0.469128 0.429758 -1.44297 
-0.470332 0.430861 -1.40301 -0.471512 0.431942 -1.36304 -0.472667 0.433 -1.32307 
-0.473796 0.434034 -1.2831 -0.474898 0.435044 -1.24313 -0.475971 0.436027 -1.20315 
-0.477017 0.436985 -1.16318 -0.478035 0.437917 -1.1232 -0.479023 0.438822 -1.08322 
-0.47998 0.439699 -1.04324 -0.480906 0.440548 -1.00326 -0.481802 0.441368 -0.963283 
-0.482665 0.442159 -0.9233 -0.483497 0.442921 -0.883316 -0.484295 0.443652 -0.84333 
-0.485059 0.444352 -0.803344 -0.485789 0.445021 -0.763356 -0.486486 0.445659 -0.723367 
-0.487147 0.446265 -0.683377 -0.487773 0.446839 -0.643386 -0.488363 0.447379 -0.603394 
-0.488917 0.447887 -0.563401 -0.489435 0.448361 -0.523407 -0.489917 0.448802 -0.483413 
-0.49036 0.449209 -0.443417 -0.490767 0.449581 -0.403421 -0.491136 0.449919 -0.363424 
-0.491467 0.450222 -0.323427 -0.49176 0.450491 -0.283429 -0.492015 0.450724 -0.24343 
-0.492231 0.450923 -0.203431 -0.492409 0.451085 -0.163432 -0.492548 0.451213 -0.123432 
-0.492649 0.451305 -0.0834326 -0.49271 0.451361 -0.0434327 -0.492733 0.451382 -0.00343271 
-0.492717 0.451368 0.0365673 -0.492662 0.451317 0.0765672 -0.492568 0.451231 0.116567 
-0.492436 0.45111 0.156567 -0.492265 0.450953 0.196566 -0.492055 0.450761 0.236565 
-0.491807 0.450533 0.276563 -0.49152 0.450271 0.316562 -0.491195 0.449973 0.356559 
-0.490833 0.449641 0.396556 -0.490433 0.449275 0.436552 -0.489995 0.448874 0.476548 
-0.48952 0.448439 0.516543 -0.489009 0.447971 0.556537 -0.488461 0.447469 0.59653 
-0.487877 0.446934 0.636522 -0.487257 0.446366 0.676513 -0.486602 0.445765 0.716503 
-0.485911 0.445133 0.756492 -0.485187 0.444469 0.79648 -0.484428 0.443774 0.836467 
-0.483636 0.443049 0.876453 -0.48281 0.442292 0.916437 -0.481952 0.441506 0.95642 
-0.481062 0.440691 0.996402 -0.480141 0.439847 1.03638 -0.479189 0.438975 1.07636 
-0.478206 0.438075 1.11634 -0.477194 0.437147 1.15632 -0.476153 0.436193 1.19629 
-0.475084 0.435214 1.23626 -0.473987 0.43421 1.27624 -0.472863 0.43318 1.31621 
-0.471712 0.432125 1.35618 -0.470537 0.431048 1.39615 -0.469337 0.429949 1.43611 
-0.468113 0.428828 1.47608 -0.466865 0.427685 1.51604 -0.465594 0.42652 1.55601 
-0.464302 0.425337 1.59597 -0.46299 0.424135 1.63593 -0.461658 0.422915 1.67589 
-0.460306 0.421676 1.71584 -0.458935 0.42042 1.7558 -0.457547 0.419149 1.79576 
-0.456144 0.417864 1.83571 -0.454725 0.416564 1.87567 -0.45329 0.41525 1.91562 
-0.451841 0.413922 1.95557 -0.450379 0.412583 1.99552 -0.448907 0.411234 2.03547 
-0.447423 0.409875 2.07542 -0.445928 0.408506 2.11537 -0.444423 0.407127 2.15532 
-0.442911 0.405741 2.19526 -0.441392 0.40435 2.23521 -0.439867 0.402953 2.27516 
-0.438336 0.401551 2.3151 -0.436799 0.400143 2.35505 -0.435259 0.398732 2.39499 
-0.433718 0.39732 2.43494 -0.432175 0.395907 2.47488 -0.430632 0.394493 2.51483 
-0.429087 0.393078 2.55478 -0.427544 0.391665 2.59472 -0.426005 0.390255 2.63467 
-0.424469 0.388848 2.67461 -0.422937 0.387444 2.71456 -0.421409 0.386045 2.7545 
-0.419887 0.38465 2.79445 -0.418374 0.383264 2.8344 -0.416869 0.381885 2.87435 
-0.415373 0.380515 2.91429 -0.413885 0.379152 2.95424 -0.412408 0.377799 2.99419 
-0.410944 0.376458 3.03414 -0.409494 0.37513 3.0741 -0.408057 0.373813 3.11405 
-0.406633 0.372509 3.154 -0.405224 0.371218 3.19396 -0.403833 0.369944 3.23391 
-0.40246 0.368686 3.27387 -0.401105 0.367445 3.31383 -0.399767 0.366219 3.35378 
-0.398449 0.365011 3.39374 -0.397152 0.363824 3.43371 -0.395878 0.362656 3.47367 
-0.394626 0.361509 3.51363 -0.393396 0.360382 3.5536 -0.392188 0.359276 3.59356 
-0.391006 0.358194 3.63353 -0.389851 0.357135 3.6735 -0.388721 0.356101 3.71347 
-0.387618 0.35509 3.75344 -0.386541 0.354103 3.79342 -0.385492 0.353143 3.83339 
-0.384474 0.35221 3.87337 -0.383485 0.351304 3.91335 -0.382526 0.350425 3.95332 
-0.381596 0.349573 3.9933 -0.380698 0.348751 4.03329 -0.379833 0.347958 4.07327 
-0.379 0.347195 4.11325 -0.3782 0.346462 4.15324 -0.377432 0.345759 4.19322 
-0.376699 0.345087 4.23321 -0.376001 0.344447 4.2732 -0.375338 0.34384 4.31319 
-0.374709 0.343264 4.35318 -0.374116 0.342721 4.39317 -0.373558 0.34221 4.43317 
-0.373038 0.341733 4.47316 -0.372555 0.341291 4.51315 -0.372108 0.340882 4.55315 
-0.371698 0.340506 4.59315 -0.371326 0.340165 4.63314 -0.370992 0.339859 4.67314 
-0.370696 0.339588 4.71314 -0.370438 0.339352 4.75314 -0.370219 0.339151 4.79314 
-0.370038 0.338985 4.83314 -0.369895 0.338854 4.87314 -0.369792 0.338759 4.91313 
-0.369727 0.3387 4.95313 -0.369701 0.338676 4.99313 
