# vtk DataFile Version 5.1
vtk output
ASCII
DATASET STRUCTURED_GRID
DIMENSIONS 253 1 1
POINTS 253 float
1.76558 -0.388157 -5 1.76567 -0.388178 -4.96 1.76595 -0.388239 -4.92 
1.76641 -0.38834 -4.88 1.76706 -0.388483 -4.84001 1.76789 -0.388666 -4.80002 
1.76891 -0.38889 -4.76003 1.77011 -0.389153 -4.72005 1.77149 -0.389457 -4.68008 
1.77305 -0.3898 -4.64011 1.7748 -0.390184 -4.60015 1.77672 -0.390607 -4.5602 
1.77882 -0.391068 -4.52025 1.78109 -0.391568 -4.48032 1.78354 -0.392106 -4.4404 
1.78616 -0.392683 -4.40049 1.78896 -0.393298 -4.36059 1.79192 -0.393949 -4.32071 
1.79505 -0.394636 -4.28084 1.79834 -0.39536 -4.24098 1.8018 -0.39612 -4.20114 
1.80542 -0.396916 -4.16131 1.80919 -0.397745 -4.1215 1.81312 -0.398608 -4.0817 
1.81719 -0.399505 -4.04192 1.82142 -0.400435 -4.00215 1.82581 -0.401398 -3.9624 
1.83033 -0.402392 -3.92267 1.83498 -0.403416 -3.88296 1.83978 -0.40447 -3.84326 
1.84471 -0.405555 -3.80358 1.84978 -0.40667 -3.76392 1.85498 -0.407811 -3.72427 
1.86029 -0.40898 -3.68465 1.86572 -0.410174 -3.64503 1.87128 -0.411395 -3.60544 
1.87695 -0.412643 -3.56586 1.88273 -0.413914 -3.52631 1.88862 -0.415207 -3.48676 
1.8946 -0.416523 -3.44723 1.90069 -0.417861 -3.40772 1.90688 -0.419221 -3.36823 
1.91316 -0.420602 -3.32875 1.91952 -0.422 -3.28928 1.92596 -0.423416 -3.24983 
1.93248 -0.42485 -3.21039 1.93909 -0.426302 -3.17097 1.94576 -0.427771 -3.13155 
1.9525 -0.429253 -3.09215 1.9593 -0.430748 -3.05276 1.96616 -0.432256 -3.01339 
1.97308 -0.433777 -2.97402 1.98006 -0.435311 -2.93466 1.98708 -0.436854 -2.89531 
1.99413 -0.438405 -2.85597 2.00123 -0.439965 -2.81664 2.00836 -0.441533 -2.77731 
2.01553 -0.44311 -2.73799 2.02272 -0.444691 -2.69867 2.02993 -0.446275 -2.65936 
2.03715 -0.447863 -2.62005 2.04439 -0.449455 -2.58074 2.05165 -0.45105 -2.54144 
2.05891 -0.452646 -2.50213 2.06616 -0.45424 -2.46283 2.0734 -0.455833 -2.42352 
2.08064 -0.457425 -2.38421 2.08788 -0.459015 -2.34491 2.0951 -0.460602 -2.30559 
2.10229 -0.462183 -2.26628 2.10945 -0.463758 -2.22696 2.11658 -0.465326 -2.18763 
2.12369 -0.466889 -2.1483 2.13076 -0.468443 -2.10896 2.13778 -0.469987 -2.06961 
2.14476 -0.47152 -2.03025 2.15168 -0.473042 -1.99088 2.15855 -0.474553 -1.95151 
2.16537 -0.476052 -1.91212 2.17212 -0.477536 -1.87272 2.1788 -0.479004 -1.83331 
2.18541 -0.480457 -1.79389 2.19194 -0.481894 -1.75445 2.19841 -0.483315 -1.715 
2.20478 -0.484717 -1.67554 2.21107 -0.486098 -1.63606 2.21726 -0.48746 -1.59657 
2.22336 -0.488801 -1.55706 2.22937 -0.490121 -1.51753 2.23527 -0.491419 -1.47799 
2.24106 -0.492692 -1.43843 2.24674 -0.493941 -1.39886 2.25231 -0.495165 -1.35927 
2.25777 -0.496365 -1.31966 2.2631 -0.497538 -1.28003 2.26831 -0.498682 -1.24039 
2.27339 -0.499799 -1.20073 2.27833 -0.500887 -1.16105 2.28315 -0.501946 -1.12136 
2.28783 -0.502975 -1.08165 2.29237 -0.503973 -1.04192 2.29676 -0.504939 -1.00217 
2.30101 -0.505872 -0.962407 2.30511 -0.506774 -0.922628 2.30906 -0.507642 -0.882833 
2.31286 -0.508476 -0.843022 2.31649 -0.509275 -0.803195 2.31996 -0.510039 -0.763354 
2.32328 -0.510768 -0.723498 2.32643 -0.51146 -0.683628 2.32941 -0.512116 -0.643745 
2.33222 -0.512734 -0.603849 2.33487 -0.513315 -0.56394 2.33734 -0.513858 -0.52402 
2.33963 -0.514363 -0.48409 2.34175 -0.51483 -0.444149 2.3437 -0.515256 -0.404198 
2.34546 -0.515644 -0.364239 2.34704 -0.515992 -0.324272 2.34845 -0.516301 -0.284298 
2.34967 -0.516569 -0.244317 2.3507 -0.516797 -0.204331 2.35156 -0.516985 -0.164341 
2.35223 -0.517132 -0.124347 2.35271 -0.517238 -0.0843497 2.35301 -0.517304 -0.0443508 
2.35312 -0.517329 -0.004351 2.35305 -0.517313 0.0356489 2.35279 -0.517256 0.0756481 
2.35235 -0.517158 0.115645 2.35172 -0.51702 0.15564 2.3509 -0.516841 0.195632 
2.34991 -0.516622 0.235619 2.34873 -0.516363 0.2756 2.34736 -0.516063 0.315576 
2.34582 -0.515723 0.355545 2.3441 -0.515344 0.395506 2.34219 -0.514926 0.435458 
2.34011 -0.514468 0.475401 2.33785 -0.513972 0.515334 2.33542 -0.513437 0.555257 
2.33281 -0.512864 0.595168 2.33004 -0.512254 0.635067 2.32709 -0.511606 0.674953 
2.32398 -0.510921 0.714826 2.3207 -0.510201 0.754684 2.31726 -0.509444 0.794529 
2.31366 -0.508653 0.834359 2.3099 -0.507827 0.874173 2.30599 -0.506966 0.913972 
2.30192 -0.506071 0.953754 2.2977 -0.505145 0.993521 2.29334 -0.504186 1.03327 
2.28883 -0.503195 1.073 2.28418 -0.502173 1.11272 2.27939 -0.50112 1.15242 
2.27447 -0.500038 1.1921 2.26942 -0.498928 1.23176 2.26424 -0.497789 1.27141 
2.25894 -0.496622 1.31104 2.25351 -0.495428 1.35065 2.24796 -0.494209 1.39025 
2.2423 -0.492966 1.42982 2.23654 -0.491698 1.46939 2.23066 -0.490406 1.50893 
2.22467 -0.48909 1.54846 2.21859 -0.487753 1.58797 2.21242 -0.486396 1.62747 
2.20616 -0.485019 1.66695 2.1998 -0.483622 1.70642 2.19336 -0.482205 1.74587 
2.18684 -0.480771 1.78531 2.18024 -0.479322 1.82474 2.17358 -0.477857 1.86415 
2.16684 -0.476376 1.90355 2.16004 -0.47488 1.94294 2.15318 -0.473372 1.98232 
2.14627 -0.471852 2.02169 2.1393 -0.470321 2.06105 2.13229 -0.46878 2.1004 
2.12523 -0.467228 2.13974 2.11813 -0.465667 2.17907 2.111 -0.4641 2.2184 
2.10385 -0.462526 2.25772 2.09666 -0.460947 2.29704 2.08945 -0.459361 2.33635 
2.08222 -0.457771 2.37566 2.07498 -0.45618 2.41497 2.06774 -0.454587 2.45428 
2.06048 -0.452993 2.49358 2.05323 -0.451397 2.53289 2.04597 -0.449802 2.57219 
2.03873 -0.448209 2.6115 2.0315 -0.44662 2.6508 2.02429 -0.445035 2.69012 
2.01709 -0.443453 2.72943 2.00992 -0.441876 2.76875 2.00278 -0.440306 2.80808 
1.99567 -0.438744 2.84741 1.98861 -0.437191 2.88675 1.98159 -0.435646 2.9261 
1.9746 -0.43411 2.96546 1.96766 -0.432586 3.00482 1.96079 -0.431075 3.0442 
1.95398 -0.429577 3.08358 1.94723 -0.428092 3.12298 1.94053 -0.426621 3.16239 
1.93391 -0.425165 3.20181 1.92737 -0.423727 3.24125 1.92091 -0.422307 3.2807 
1.91453 -0.420905 3.32016 1.90824 -0.41952 3.35964 1.90203 -0.418155 3.39913 
1.89592 -0.416812 3.43864 1.88991 -0.415492 3.47816 1.88401 -0.414194 3.5177 
1.8782 -0.412917 3.55726 1.8725 -0.411664 3.59683 1.86692 -0.410437 3.63642 
1.86146 -0.409237 3.67603 1.85612 -0.408063 3.71565 1.8509 -0.406916 3.75529 
1.8458 -0.405795 3.79495 1.84084 -0.404704 3.83463 1.83602 -0.403643 3.87432 
1.83133 -0.402612 3.91403 1.82678 -0.401612 3.95376 1.82236 -0.400642 3.9935 
1.8181 -0.399704 4.03326 1.81399 -0.3988 4.07304 1.81003 -0.39793 4.11284 
1.80622 -0.397093 4.15265 1.80257 -0.39629 4.19247 1.79908 -0.395522 4.23231 
1.79575 -0.394791 4.27216 1.79259 -0.394095 4.31203 1.78959 -0.393436 4.35192 
1.78676 -0.392814 4.39181 1.7841 -0.392228 4.43172 1.78161 -0.391682 4.47164 
1.7793 -0.391174 4.51157 1.77716 -0.390704 4.55151 1.7752 -0.390272 4.59146 
1.77341 -0.38988 4.63141 1.77181 -0.389528 4.67138 1.77039 -0.389216 4.71135 
1.76916 -0.388944 4.75133 1.7681 -0.388711 4.79132 1.76722 -0.388519 4.83131 
1.76654 -0.388368 4.8713 1.76603 -0.388257 4.9113 1.76572 -0.388187 4.9513 
1.76558 -0.388158 4.9913 
