# vtk DataFile Version 5.1
vtk output
ASCII
DATASET STRUCTURED_GRID
DIMENSIONS 255 1 1
POINTS 255 float
-1.00578 2.40326 -5 -1.00583 2.40338 -4.96 -1.00599 2.40376 -4.92 
-1.00625 2.40439 -4.88001 -1.00662 2.40527 -4.84002 -1.0071 2.40641 -4.80004 
-1.00768 2.40779 -4.76007 -1.00836 2.40942 -4.72011 -1.00914 2.4113 -4.68016 
-1.01003 2.41342 -4.64022 -1.01103 2.41579 -4.60031 -1.01212 2.41841 -4.56041 
-1.01331 2.42126 -4.52053 -1.0146 2.42434 -4.48067 -1.01599 2.42767 -4.44083 
-1.01748 2.43123 -4.40102 -1.01907 2.43502 -4.36123 -1.02075 2.43903 -4.32147 
-1.02252 2.44327 -4.28173 -1.02439 2.44773 -4.24202 -1.02635 2.45241 -4.20235 
-1.0284 2.45731 -4.1627 -1.03053 2.46241 -4.12308 -1.03275 2.46771 -4.0835 
-1.03506 2.47322 -4.04395 -1.03745 2.47893 -4.00443 -1.03992 2.48485 -3.96495 
-1.04248 2.49094 -3.9255 -1.0451 2.49722 -3.88608 -1.04781 2.50368 -3.8467 
-1.05059 2.51032 -3.80735 -1.05344 2.51714 -3.76804 -1.05636 2.52413 -3.72876 
-1.05935 2.53127 -3.68952 -1.06241 2.53857 -3.65031 -1.06553 2.54602 -3.61114 
-1.06871 2.55364 -3.572 -1.07196 2.5614 -3.53289 -1.07526 2.56929 -3.49382 
-1.07862 2.57731 -3.45477 -1.08203 2.58546 -3.41576 -1.0855 2.59374 -3.37678 
-1.08902 2.60215 -3.33783 -1.09258 2.61066 -3.29891 -1.09618 2.61928 -3.26002 
-1.09983 2.628 -3.22115 -1.10353 2.63682 -3.18231 -1.10726 2.64575 -3.1435 
-1.11103 2.65475 -3.10471 -1.11483 2.66384 -3.06594 -1.11867 2.673 -3.02719 
-1.12253 2.68223 -2.98847 -1.12643 2.69155 -2.94976 -1.13035 2.70092 -2.91107 
-1.13429 2.71034 -2.8724 -1.13825 2.7198 -2.83374 -1.14224 2.72932 -2.79509 
-1.14624 2.73889 -2.75646 -1.15026 2.74849 -2.71784 -1.15429 2.75811 -2.67922 
-1.15833 2.76776 -2.64061 -1.16237 2.77743 -2.60201 -1.16642 2.78711 -2.56341 
-1.17049 2.79682 -2.52482 -1.17454 2.80651 -2.48622 -1.1786 2.8162 -2.44763 
-1.18265 2.82589 -2.40903 -1.1867 2.83556 -2.37043 -1.19075 2.84523 -2.33183 
-1.19478 2.85486 -2.29321 -1.1988 2.86447 -2.25459 -1.2028 2.87403 -2.21596 
-1.20679 2.88356 -2.17732 -1.21076 2.89306 -2.13867 -1.21472 2.9025 -2.1 
-1.21864 2.91189 -2.06131 -1.22254 2.92121 -2.02261 -1.22642 2.93046 -1.98389 
-1.23026 2.93965 -1.94515 -1.23408 2.94877 -1.90639 -1.23786 2.9578 -1.86761 
-1.2416 2.96674 -1.8288 -1.24531 2.97559 -1.78997 -1.24897 2.98435 -1.75111 
-1.2526 2.99301 -1.71223 -1.25617 3.00156 -1.67331 -1.2597 3.00999 -1.63437 
-1.26318 3.0183 -1.5954 -1.26661 3.0265 -1.5564 -1.26999 3.03457 -1.51737 
-1.27331 3.04251 -1.4783 -1.27657 3.0503 -1.43921 -1.27977 3.05795 -1.40008 
-1.28291 3.06545 -1.36091 -1.28599 3.07281 -1.32171 -1.289 3.08001 -1.28248 
-1.29195 3.08704 -1.24322 -1.29482 3.0939 -1.20391 -1.29762 3.1006 -1.16458 
-1.30035 3.10712 -1.12521 -1.303 3.11346 -1.0858 -1.30558 3.11961 -1.04636 
-1.30807 3.12557 -1.00689 -1.31049 3.13134 -0.96738 -1.31282 3.13691 -0.927839 
-1.31507 3.14229 -0.888265 -1.31723 3.14745 -0.848659 -1.3193 3.15241 -0.809021 
-1.32129 3.15715 -0.769353 -1.32318 3.16168 -0.729655 -1.32498 3.16598 -0.689929 
-1.32669 3.17007 -0.650174 -1.32831 3.17392 -0.610393 -1.32982 3.17755 -0.570587 
-1.33124 3.18094 -0.530756 -1.33257 3.1841 -0.490903 -1.33379 3.18703 -0.451029 
-1.33491 3.18971 -0.411135 -1.33593 3.19215 -0.371222 -1.33685 3.19434 -0.331293 
-1.33767 3.1963 -0.291349 -1.33838 3.198 -0.251392 -1.33899 3.19945 -0.211423 
-1.3395 3.20066 -0.171444 -1.3399 3.20161 -0.131458 -1.34019 3.20232 -0.0914651 
-1.34038 3.20277 -0.051468 -1.34046 3.20297 -0.0114686 -1.34044 3.20291 0.0285313 
-1.34031 3.20261 0.0685299 -1.34008 3.20205 0.108525 -1.33974 3.20124 0.148516 
-1.33929 3.20018 0.188499 -1.33875 3.19886 0.228474 -1.33809 3.1973 0.268438 
-1.33733 3.19549 0.30839 -1.33647 3.19344 0.348328 -1.33551 3.19114 0.38825 
-1.33445 3.18859 0.428155 -1.33328 3.18581 0.468041 -1.33202 3.18278 0.507906 
-1.33065 3.17952 0.54775 -1.32919 3.17603 0.58757 -1.32763 3.17231 0.627366 
-1.32598 3.16835 0.667136 -1.32423 3.16417 0.706878 -1.32238 3.15977 0.746592 
-1.32045 3.15515 0.786278 -1.31843 3.15032 0.825934 -1.31632 3.14528 0.865558 
-1.31412 3.14002 0.90515 -1.31183 3.13456 0.94471 -1.30947 3.1289 0.984237 
-1.30702 3.12305 1.02373 -1.30449 3.11701 1.06319 -1.30188 3.11078 1.10262 
-1.29919 3.10436 1.14201 -1.29643 3.09776 1.18136 -1.2936 3.091 1.22068 
-1.2907 3.08406 1.25997 -1.28773 3.07696 1.29922 -1.28468 3.06969 1.33844 
-1.28158 3.06227 1.37762 -1.27841 3.0547 1.41677 -1.27519 3.04699 1.45589 
-1.2719 3.03914 1.49497 -1.26855 3.03114 1.53402 -1.26515 3.02302 1.57304 
-1.2617 3.01477 1.61203 -1.2582 3.00641 1.65099 -1.25465 2.99793 1.68992 
-1.25105 2.98933 1.72882 -1.24741 2.98063 1.76769 -1.24373 2.97183 1.80653 
-1.24001 2.96294 1.84536 -1.23625 2.95396 1.88415 -1.23246 2.9449 1.92293 
-1.22863 2.93574 1.96168 -1.22477 2.92652 2.00041 -1.22088 2.91724 2.03912 
-1.21697 2.90789 2.07782 -1.21303 2.89848 2.11649 -1.20907 2.88901 2.15515 
-1.20509 2.8795 2.1938 -1.2011 2.86996 2.23244 -1.19709 2.86037 2.27107 
-1.19306 2.85076 2.30969 -1.18902 2.84111 2.34829 -1.18497 2.83144 2.3869 
-1.18092 2.82176 2.4255 -1.17687 2.81207 2.46409 -1.17281 2.80238 2.50269 
-1.16875 2.79268 2.54128 -1.16469 2.78298 2.57987 -1.16064 2.7733 2.61847 
-1.1566 2.76364 2.65708 -1.15257 2.75401 2.69569 -1.14855 2.74439 2.73431 
-1.14453 2.7348 2.77293 -1.14054 2.72526 2.81157 -1.13656 2.71576 2.85023 
-1.13261 2.70631 2.88889 -1.12867 2.69691 2.92757 -1.12476 2.68756 2.96627 
-1.12088 2.67828 3.00498 -1.11703 2.66908 3.04372 -1.11321 2.65995 3.08247 
-1.10942 2.6509 3.12125 -1.10566 2.64193 3.16005 -1.10195 2.63304 3.19888 
-1.09827 2.62426 3.23773 -1.09464 2.61559 3.27661 -1.09105 2.60702 3.31551 
-1.08751 2.59855 3.35444 -1.08401 2.59019 3.3934 -1.08057 2.58197 3.4324 
-1.07718 2.57387 3.47142 -1.07385 2.56591 3.51048 -1.07057 2.55807 3.54957 
-1.06735 2.55037 3.58869 -1.06419 2.54283 3.62784 -1.0611 2.53544 3.66703 
-1.05807 2.5282 3.70626 -1.05511 2.52113 3.74551 -1.05221 2.51421 3.7848 
-1.04939 2.50747 3.82413 -1.04664 2.5009 3.86349 -1.04397 2.49452 3.90289 
-1.04138 2.48832 3.94232 -1.03886 2.4823 3.98178 -1.03642 2.47647 4.02128 
-1.03407 2.47085 4.06081 -1.0318 2.46543 4.10038 -1.02961 2.46021 4.13998 
-1.02751 2.45519 4.17961 -1.0255 2.45038 4.21927 -1.02358 2.4458 4.25896 
-1.02176 2.44144 4.29868 -1.02002 2.4373 4.33842 -1.01838 2.43338 4.3782 
-1.01684 2.42968 4.418 -1.01539 2.42622 4.45782 -1.01404 2.423 4.49767 
-1.01279 2.42001 4.53754 -1.01164 2.41726 4.57742 -1.01059 2.41475 4.61733 
-1.00964 2.41249 4.65726 -1.0088 2.41047 4.6972 -1.00806 2.4087 4.73715 
-1.00742 2.40717 4.77712 -1.00688 2.40589 4.81709 -1.00645 2.40487 4.85708 
-1.00613 2.40409 4.89707 -1.00591 2.40357 4.93706 -1.0058 2.4033 4.97706 

