# vtk DataFile Version 5.1
vtk output
ASCII
DATASET STRUCTURED_GRID
DIMENSIONS 253 1 1
POINTS 253 float
-1.07893 1.53467 -5 -1.07899 1.53475 -4.96 -1.07916 1.53499 -4.92 
-1.07944 1.53539 -4.88 -1.07984 1.53596 -4.84001 -1.08035 1.53668 -4.80002 
-1.08097 1.53757 -4.76003 -1.0817 1.53861 -4.72005 -1.08254 1.53981 -4.68008 
-1.0835 1.54117 -4.64012 -1.08457 1.54268 -4.60016 -1.08574 1.54435 -4.56021 
-1.08702 1.54618 -4.52027 -1.08841 1.54815 -4.48035 -1.08991 1.55028 -4.44043 
-1.09151 1.55256 -4.40053 -1.09322 1.55499 -4.36064 -1.09503 1.55757 -4.32076 
-1.09694 1.56028 -4.2809 -1.09895 1.56314 -4.24105 -1.10106 1.56615 -4.20122 
-1.10327 1.56929 -4.16141 -1.10558 1.57257 -4.12161 -1.10797 1.57598 -4.08183 
-1.11046 1.57952 -4.04206 -1.11305 1.5832 -4.00232 -1.11573 1.587 -3.96259 
-1.11849 1.59093 -3.92288 -1.12133 1.59498 -3.88318 -1.12426 1.59914 -3.84351 
-1.12727 1.60343 -3.80385 -1.13037 1.60783 -3.76422 -1.13354 1.61234 -3.7246 
-1.13678 1.61695 -3.685 -1.1401 1.62167 -3.64542 -1.14349 1.62649 -3.60585 
-1.14695 1.63142 -3.56631 -1.15048 1.63644 -3.52678 -1.15407 1.64155 -3.48727 
-1.15773 1.64675 -3.44778 -1.16144 1.65203 -3.40831 -1.16522 1.6574 -3.36885 
-1.16905 1.66285 -3.32941 -1.17293 1.66838 -3.28998 -1.17687 1.67397 -3.25057 
-1.18085 1.67963 -3.21117 -1.18488 1.68536 -3.17179 -1.18895 1.69116 -3.13242 
-1.19307 1.69701 -3.09307 -1.19722 1.70291 -3.05372 -1.2014 1.70887 -3.01439 
-1.20563 1.71488 -2.97507 -1.20988 1.72093 -2.93576 -1.21417 1.72702 -2.89646 
-1.21847 1.73315 -2.85717 -1.2228 1.73931 -2.81788 -1.22715 1.7455 -2.77861 
-1.23153 1.75172 -2.73934 -1.23592 1.75796 -2.70007 -1.24031 1.76422 -2.66081 
-1.24472 1.77049 -2.62155 -1.24914 1.77677 -2.58229 -1.25357 1.78307 -2.54304 
-1.258 1.78937 -2.50379 -1.26242 1.79566 -2.46454 -1.26684 1.80195 -2.42528 
-1.27126 1.80824 -2.38603 -1.27568 1.81452 -2.34677 -1.28008 1.82079 -2.30751 
-1.28447 1.82703 -2.26825 -1.28884 1.83325 -2.22898 -1.2932 1.83944 -2.1897 
-1.29754 1.84561 -2.15042 -1.30185 1.85175 -2.11113 -1.30614 1.85785 -2.07183 
-1.3104 1.86391 -2.03252 -1.31463 1.86992 -1.9932 -1.31882 1.87589 -1.95387 
-1.32299 1.88181 -1.91453 -1.32711 1.88768 -1.87518 -1.33119 1.89348 -1.83581 
-1.33523 1.89922 -1.79643 -1.33922 1.9049 -1.75704 -1.34317 1.91052 -1.71764 
-1.34706 1.91606 -1.67821 -1.3509 1.92152 -1.63877 -1.35469 1.92691 -1.59932 
-1.35842 1.93221 -1.55985 -1.36209 1.93743 -1.52036 -1.3657 1.94256 -1.48086 
-1.36924 1.9476 -1.44133 -1.37271 1.95254 -1.40179 -1.37612 1.95739 -1.36223 
-1.37946 1.96213 -1.32265 -1.38272 1.96677 -1.28306 -1.3859 1.97131 -1.24344 
-1.38901 1.97573 -1.20381 -1.39204 1.98003 -1.16416 -1.39499 1.98423 -1.12449 
-1.39786 1.9883 -1.0848 -1.40063 1.99226 -1.04509 -1.40332 1.99608 -1.00537 
-1.40593 1.99978 -0.965625 -1.40844 2.00336 -0.925864 -1.41086 2.0068 -0.886086 
-1.41318 2.01011 -0.846291 -1.41541 2.01327 -0.806479 -1.41754 2.01631 -0.766651 
-1.41957 2.0192 -0.726807 -1.42151 2.02195 -0.686949 -1.42334 2.02455 -0.647076 
-1.42507 2.02701 -0.607189 -1.42669 2.02932 -0.567288 -1.42821 2.03148 -0.527376 
-1.42962 2.03349 -0.487451 -1.43092 2.03534 -0.447515 -1.43212 2.03704 -0.40757 
-1.43321 2.03859 -0.367614 -1.43418 2.03998 -0.32765 -1.43505 2.04121 -0.287679 
-1.43581 2.04229 -0.2477 -1.43645 2.0432 -0.207716 -1.43698 2.04396 -0.167727 
-1.4374 2.04455 -0.127733 -1.4377 2.04498 -0.0877366 -1.4379 2.04526 -0.047738 
-1.43797 2.04537 -0.00773827 -1.43794 2.04532 0.0322617 -1.43779 2.04511 0.0722609 
-1.43753 2.04474 0.112258 -1.43716 2.0442 0.152253 -1.43667 2.04351 0.192244 
-1.43607 2.04266 0.23223 -1.43536 2.04165 0.272211 -1.43453 2.04047 0.312186 
-1.4336 2.03914 0.352153 -1.43255 2.03766 0.392111 -1.4314 2.03602 0.432061 
-1.43014 2.03422 0.472001 -1.42877 2.03227 0.51193 -1.42729 2.03017 0.551847 
-1.42571 2.02792 0.591752 -1.42402 2.02552 0.631645 -1.42223 2.02297 0.671523 
-1.42033 2.02028 0.711387 -1.41834 2.01744 0.751237 -1.41625 2.01446 0.791071 
-1.41406 2.01135 0.830889 -1.41177 2.0081 0.870691 -1.40939 2.00471 0.910476 
-1.40691 2.00118 0.950243 -1.40434 1.99753 0.989993 -1.40169 1.99375 1.02973 
-1.39894 1.98985 1.06944 -1.39611 1.98582 1.10914 -1.39319 1.98167 1.14881 
-1.39019 1.97741 1.18847 -1.38712 1.97303 1.22811 -1.38396 1.96854 1.26773 
-1.38073 1.96394 1.30734 -1.37742 1.95923 1.34692 -1.37404 1.95443 1.38649 
-1.37059 1.94952 1.42604 -1.36708 1.94452 1.46557 -1.36349 1.93943 1.50508 
-1.35985 1.93424 1.54457 -1.35614 1.92897 1.58405 -1.35238 1.92361 1.62351 
-1.34856 1.91818 1.66296 -1.34468 1.91267 1.70238 -1.34075 1.90709 1.7418 
-1.33678 1.90143 1.78119 -1.33276 1.89571 1.82058 -1.32869 1.88993 1.85995 
-1.32459 1.88409 1.89931 -1.32044 1.87819 1.93865 -1.31626 1.87224 1.97799 
-1.31204 1.86624 2.01731 -1.30779 1.8602 2.05662 -1.30352 1.85412 2.09592 
-1.29921 1.84799 2.13522 -1.29488 1.84183 2.1745 -1.29053 1.83565 2.21378 
-1.28617 1.82944 2.25305 -1.28178 1.82321 2.29232 -1.27739 1.81695 2.33158 
-1.27297 1.81067 2.37084 -1.26855 1.80439 2.4101 -1.26413 1.7981 2.44935 
-1.25971 1.79181 2.4886 -1.25528 1.78551 2.52786 -1.25085 1.77921 2.56711 
-1.24643 1.77292 2.60636 -1.24202 1.76664 2.64562 -1.23762 1.76038 2.68488 
-1.23322 1.75413 2.72414 -1.22884 1.7479 2.76341 -1.22448 1.7417 2.80269 
-1.22014 1.73553 2.84197 -1.21583 1.72939 2.88126 -1.21154 1.72329 2.92056 
-1.20727 1.71722 2.95986 -1.20303 1.71119 2.99918 -1.19883 1.70521 3.03851 
-1.19467 1.69929 3.07784 -1.19054 1.69342 3.1172 -1.18645 1.6876 3.15656 
-1.1824 1.68184 3.19593 -1.1784 1.67615 3.23532 -1.17445 1.67053 3.27473 
-1.17055 1.66498 3.31415 -1.1667 1.6595 3.35359 -1.1629 1.6541 3.39304 
-1.15916 1.64878 3.4325 -1.15548 1.64355 3.47199 -1.15187 1.63841 3.51149 
-1.14831 1.63335 3.55101 -1.14482 1.62839 3.59055 -1.1414 1.62352 3.63011 
-1.13806 1.61877 3.66968 -1.13478 1.61411 3.70927 -1.13158 1.60956 3.74889 
-1.12846 1.60511 3.78851 -1.12541 1.60078 3.82816 -1.12245 1.59657 3.86783 
-1.11958 1.59248 3.90752 -1.11678 1.58851 3.94722 -1.11407 1.58465 3.98694 
-1.11145 1.58093 4.02668 -1.10893 1.57733 4.06644 -1.10649 1.57387 4.10622 
-1.10415 1.57054 4.14601 -1.1019 1.56735 4.18582 -1.09975 1.56429 4.22564 
-1.0977 1.56137 4.26548 -1.09576 1.5586 4.30534 -1.09391 1.55597 4.34521 
-1.09216 1.55348 4.38509 -1.09052 1.55115 4.42499 -1.08898 1.54896 4.4649 
-1.08755 1.54692 4.50482 -1.08622 1.54504 4.54476 -1.08501 1.54331 4.5847 
-1.0839 1.54173 4.62466 -1.0829 1.54032 4.66462 -1.08201 1.53905 4.70459 
-1.08124 1.53795 4.74457 -1.08057 1.53701 4.78455 -1.08002 1.53622 4.82454 
-1.07958 1.53559 4.86453 -1.07925 1.53513 4.90453 -1.07904 1.53483 4.94452 
-1.07894 1.53468 4.98452 
