# vtk DataFile Version 5.1
vtk output
ASCII
DATASET STRUCTURED_GRID
DIMENSIONS 253 1 1
POINTS 253 float
-2.06547 0.0854135 -5 -2.06557 0.085418 -4.96 -2.0659 0.0854314 -4.92 
-2.06644 0.0854538 -4.88001 -2.0672 0.0854852 -4.84001 -2.06817 0.0855255 -4.80002 
-2.06936 0.0855747 -4.76004 -2.07077 0.0856327 -4.72007 -2.07238 0.0856994 -4.6801 
-2.07421 0.085775 -4.64014 -2.07625 0.0858593 -4.60019 -2.0785 0.0859524 -4.56026 
-2.08095 0.0860538 -4.52033 -2.08361 0.0861637 -4.48042 -2.08647 0.086282 -4.44052 
-2.08954 0.0864089 -4.40064 -2.0928 0.086544 -4.36077 -2.09626 0.0866871 -4.32093 
-2.09992 0.0868382 -4.28109 -2.10376 0.0869972 -4.24128 -2.1078 0.0871641 -4.20148 
-2.11203 0.087339 -4.16171 -2.11643 0.0875212 -4.12195 -2.12102 0.0877107 -4.08222 
-2.12578 0.0879075 -4.0425 -2.13071 0.0881117 -4.00281 -2.13583 0.0883232 -3.96314 
-2.1411 0.0885414 -3.92349 -2.14654 0.0887661 -3.88386 -2.15213 0.0889973 -3.84425 
-2.15788 0.0892352 -3.80467 -2.16379 0.0894797 -3.76511 -2.16985 0.0897301 -3.72557 
-2.17604 0.0899862 -3.68605 -2.18237 0.090248 -3.64656 -2.18884 0.0905157 -3.60708 
-2.19545 0.0907891 -3.56764 -2.20219 0.0910677 -3.52821 -2.20904 0.091351 -3.4888 
-2.21601 0.0916392 -3.44941 -2.2231 0.0919323 -3.41005 -2.2303 0.0922302 -3.3707 
-2.23762 0.0925326 -3.33138 -2.24502 0.0928388 -3.29207 -2.25252 0.0931488 -3.25278 
-2.26011 0.0934627 -3.21351 -2.26779 0.0937805 -3.17425 -2.27557 0.094102 -3.13502 
-2.28341 0.0944263 -3.0958 -2.29132 0.0947535 -3.05659 -2.2993 0.0950835 -3.01739 
-2.30735 0.0954164 -2.97821 -2.31547 0.0957521 -2.93905 -2.32363 0.0960897 -2.89989 
-2.33184 0.0964291 -2.86074 -2.34009 0.0967704 -2.8216 -2.34839 0.0971135 -2.78248 
-2.35673 0.0974583 -2.74336 -2.36509 0.0978043 -2.70424 -2.37348 0.098151 -2.66513 
-2.38188 0.0984985 -2.62603 -2.3903 0.0988468 -2.58692 -2.39874 0.0991959 -2.54783 
-2.40719 0.0995452 -2.50873 -2.41563 0.0998942 -2.46963 -2.42406 0.100243 -2.43053 
-2.43249 0.100591 -2.39143 -2.44091 0.10094 -2.35233 -2.44932 0.101287 -2.31323 
-2.45769 0.101634 -2.27411 -2.46603 0.101979 -2.23499 -2.47434 0.102322 -2.19587 
-2.48262 0.102665 -2.15674 -2.49086 0.103005 -2.1176 -2.49905 0.103344 -2.07844 
-2.50718 0.10368 -2.03928 -2.51525 0.104014 -2.00011 -2.52327 0.104346 -1.96092 
-2.53123 0.104675 -1.92172 -2.5391 0.105 -1.8825 -2.5469 0.105323 -1.84327 
-2.55462 0.105642 -1.80403 -2.56226 0.105958 -1.76476 -2.56981 0.10627 -1.72548 
-2.57726 0.106578 -1.68619 -2.58462 0.106882 -1.64687 -2.59186 0.107182 -1.60753 
-2.599 0.107477 -1.56817 -2.60603 0.107768 -1.5288 -2.61295 0.108054 -1.4894 
-2.61974 0.108335 -1.44998 -2.6264 0.10861 -1.41054 -2.63294 0.108881 -1.37108 
-2.63934 0.109145 -1.3316 -2.64561 0.109405 -1.29209 -2.65173 0.109658 -1.25256 
-2.6577 0.109905 -1.21301 -2.66352 0.110145 -1.17344 -2.66919 0.11038 -1.13384 
-2.67471 0.110608 -1.09423 -2.68006 0.110829 -1.05459 -2.68524 0.111044 -1.01493 
-2.69025 0.111251 -0.975242 -2.6951 0.111451 -0.935537 -2.69977 0.111644 -0.895811 
-2.70426 0.11183 -0.856064 -2.70857 0.112008 -0.816297 -2.71269 0.112179 -0.77651 
-2.71662 0.112341 -0.736705 -2.72037 0.112496 -0.696881 -2.72392 0.112643 -0.657039 
-2.72728 0.112782 -0.61718 -2.73043 0.112912 -0.577305 -2.73339 0.113035 -0.537414 
-2.73614 0.113149 -0.49751 -2.73869 0.113254 -0.457591 -2.74103 0.113351 -0.41766 
-2.74316 0.113439 -0.377717 -2.74509 0.113518 -0.337763 -2.7468 0.113589 -0.2978 
-2.7483 0.113651 -0.257828 -2.74958 0.113704 -0.217849 -2.75065 0.113749 -0.177863 
-2.75151 0.113784 -0.137872 -2.75215 0.113811 -0.0978773 -2.75257 0.113828 -0.0578795 
-2.75278 0.113837 -0.01788 -2.75277 0.113836 0.02212 -2.75254 0.113827 0.0621193 
-2.75209 0.113808 0.102117 -2.75143 0.113781 0.142111 -2.75055 0.113744 0.182102 
-2.74946 0.113699 0.222087 -2.74815 0.113645 0.262065 -2.74663 0.113582 0.302036 
-2.74489 0.11351 0.341999 -2.74295 0.11343 0.381951 -2.74079 0.113341 0.421893 
-2.73843 0.113243 0.461823 -2.73586 0.113137 0.50174 -2.73308 0.113022 0.541643 
-2.73011 0.112899 0.581532 -2.72693 0.112768 0.621406 -2.72355 0.112628 0.661263 
-2.71998 0.11248 0.701103 -2.71622 0.112325 0.740925 -2.71226 0.112161 0.780729 
-2.70812 0.11199 0.820513 -2.70379 0.111811 0.860278 -2.69928 0.111624 0.900023 
-2.69459 0.11143 0.939746 -2.68973 0.111229 0.979449 -2.6847 0.111021 1.01913 
-2.6795 0.110806 1.05879 -2.67413 0.110584 1.09843 -2.6686 0.110355 1.13804 
-2.66291 0.11012 1.17764 -2.65707 0.109879 1.21721 -2.65108 0.109631 1.25676 
-2.64495 0.109377 1.29628 -2.63867 0.109118 1.33578 -2.63225 0.108852 1.37527 
-2.6257 0.108581 1.41472 -2.61903 0.108305 1.45416 -2.61222 0.108024 1.49358 
-2.60529 0.107738 1.53297 -2.59825 0.107446 1.57235 -2.5911 0.107151 1.6117 
-2.58384 0.10685 1.65104 -2.57648 0.106546 1.69035 -2.56901 0.106237 1.72965 
-2.56145 0.105925 1.76893 -2.55381 0.105608 1.80819 -2.54608 0.105289 1.84743 
-2.53827 0.104966 1.88666 -2.53039 0.10464 1.92587 -2.52242 0.104311 1.96507 
-2.5144 0.103979 2.00426 -2.50632 0.103645 2.04343 -2.49818 0.103308 2.08259 
-2.48999 0.102969 2.12175 -2.48175 0.102628 2.16088 -2.47346 0.102286 2.20002 
-2.46515 0.101942 2.23914 -2.4568 0.101597 2.27826 -2.44843 0.10125 2.31737 
-2.44002 0.100903 2.35648 -2.4316 0.100555 2.39558 -2.42317 0.100206 2.43468 
-2.41473 0.0998572 2.47378 -2.40629 0.0995082 2.51287 -2.39785 0.0991589 2.55197 
-2.38941 0.0988099 2.59107 -2.38099 0.0984617 2.63017 -2.37259 0.0981142 2.66928 
-2.3642 0.0977676 2.70839 -2.35584 0.0974217 2.7475 -2.34751 0.097077 2.78662 
-2.33921 0.0967341 2.82575 -2.33097 0.0963931 2.86489 -2.32276 0.0960538 2.90404 
-2.3146 0.0957164 2.9432 -2.30649 0.095381 2.98237 -2.29845 0.0950484 3.02155 
-2.29048 0.0947187 3.06074 -2.28257 0.0943918 3.09995 -2.27474 0.0940678 3.13918 
-2.26697 0.0937467 3.17841 -2.2593 0.0934293 3.21767 -2.25172 0.0931158 3.25694 
-2.24423 0.0928061 3.29624 -2.23684 0.0925004 3.33554 -2.22953 0.0921984 3.37487 
-2.22234 0.091901 3.41422 -2.21527 0.0916085 3.45359 -2.20831 0.0913208 3.49298 
-2.20147 0.0910379 3.53239 -2.19475 0.0907598 3.57182 -2.18815 0.090487 3.61127 
-2.18169 0.09022 3.65074 -2.17538 0.0899588 3.69024 -2.1692 0.0897033 3.72976 
-2.16316 0.0894535 3.7693 -2.15726 0.0892097 3.80886 -2.15153 0.0889725 3.84845 
-2.14595 0.0887419 3.88806 -2.14054 0.0885179 3.92769 -2.13528 0.0883005 3.96734 
-2.13018 0.0880897 4.00701 -2.12526 0.0878863 4.04671 -2.12052 0.0876903 4.08643 
-2.11596 0.0875016 4.12616 -2.11157 0.0873202 4.16592 -2.10736 0.0871461 4.2057 
-2.10335 0.0869799 4.2455 -2.09952 0.0868218 4.28531 -2.09589 0.0866716 4.32515 
-2.09245 0.0865294 4.365 -2.0892 0.086395 4.40487 -2.08616 0.0862691 4.44475 
-2.08332 0.0861517 4.48465 -2.08068 0.0860427 4.52456 -2.07825 0.0859421 4.56449 
-2.07602 0.08585 4.60443 -2.074 0.0857666 4.64438 -2.0722 0.0856919 4.68434 
-2.07061 0.0856261 4.7243 -2.06923 0.0855691 4.76428 -2.06806 0.0855208 4.80426 
-2.06711 0.0854814 4.84425 -2.06637 0.085451 4.88424 -2.06586 0.0854296 4.92424 
-2.06555 0.0854171 4.96424 
