# vtk DataFile Version 5.1
vtk output
ASCII
DATASET STRUCTURED_GRID
DIMENSIONS 253 1 1
POINTS 253 float
-0.249545 -1.92572 -5 -0.249559 -1.92583 -4.96 -0.249598 -1.92613 -4.92 
-0.249663 -1.92663 -4.88 -0.249755 -1.92734 -4.84001 -0.249873 -1.92825 -4.80002 
-0.250016 -1.92936 -4.76004 -0.250186 -1.93067 -4.72006 -0.250381 -1.93217 -4.68009 
-0.250602 -1.93387 -4.64012 -0.250848 -1.93578 -4.60017 -0.25112 -1.93788 -4.56023 
-0.251416 -1.94016 -4.52029 -0.251738 -1.94264 -4.48037 -0.252083 -1.94531 -4.44046 
-0.252454 -1.94817 -4.40057 -0.252849 -1.95122 -4.36068 -0.253268 -1.95445 -4.32082 
-0.253709 -1.95786 -4.28096 -0.254174 -1.96144 -4.24113 -0.254662 -1.96521 -4.20131 
-0.255174 -1.96916 -4.16151 -0.255706 -1.97327 -4.12172 -0.256261 -1.97755 -4.08196 
-0.256836 -1.98199 -4.04221 -0.257434 -1.9866 -4.00248 -0.258052 -1.99137 -3.96277 
-0.25869 -1.9963 -3.92308 -0.259348 -2.00137 -3.88341 -0.260025 -2.00659 -3.84376 
-0.260721 -2.01196 -3.80412 -0.261436 -2.01748 -3.76451 -0.262169 -2.02314 -3.72492 
-0.262919 -2.02892 -3.68535 -0.263685 -2.03484 -3.6458 -0.264468 -2.04088 -3.60626 
-0.265269 -2.04706 -3.56675 -0.266084 -2.05335 -3.52726 -0.266914 -2.05976 -3.48778 
-0.267758 -2.06627 -3.44833 -0.268616 -2.07289 -3.40889 -0.269489 -2.07962 -3.36947 
-0.270374 -2.08646 -3.33007 -0.271271 -2.09338 -3.29068 -0.272179 -2.10039 -3.25131 
-0.273099 -2.10748 -3.21195 -0.27403 -2.11467 -3.17261 -0.274971 -2.12193 -3.13329 
-0.275921 -2.12926 -3.09398 -0.27688 -2.13666 -3.05468 -0.277847 -2.14412 -3.0154 
-0.278822 -2.15165 -2.97612 -0.279806 -2.15924 -2.93686 -0.280795 -2.16687 -2.89761 
-0.281789 -2.17454 -2.85836 -0.282789 -2.18226 -2.81913 -0.283794 -2.19001 -2.7799 
-0.284805 -2.19781 -2.74068 -0.285818 -2.20563 -2.70147 -0.286834 -2.21347 -2.66225 
-0.287852 -2.22133 -2.62305 -0.288873 -2.2292 -2.58384 -0.289895 -2.2371 -2.54464 
-0.290918 -2.24499 -2.50544 -0.291941 -2.25288 -2.46624 -0.292962 -2.26076 -2.42704 
-0.293983 -2.26864 -2.38784 -0.295003 -2.27651 -2.34863 -0.296021 -2.28437 -2.30942 
-0.297035 -2.29219 -2.27021 -0.298045 -2.29999 -2.23099 -0.299051 -2.30775 -2.19176 
-0.300054 -2.31549 -2.15253 -0.301051 -2.32318 -2.11329 -0.302042 -2.33083 -2.07404 
-0.303026 -2.33842 -2.03478 -0.304003 -2.34596 -1.99551 -0.304973 -2.35345 -1.95623 
-0.305935 -2.36087 -1.91694 -0.306888 -2.36823 -1.87763 -0.307831 -2.37551 -1.83831 
-0.308765 -2.38271 -1.79897 -0.309688 -2.38983 -1.75962 -0.310601 -2.39688 -1.72026 
-0.311502 -2.40383 -1.68088 -0.31239 -2.41068 -1.64148 -0.313265 -2.41744 -1.60206 
-0.314128 -2.42409 -1.56263 -0.314977 -2.43065 -1.52318 -0.315812 -2.43709 -1.48371 
-0.316631 -2.44341 -1.44422 -0.317435 -2.44962 -1.40472 -0.318224 -2.4557 -1.36519 
-0.318996 -2.46166 -1.32564 -0.319752 -2.46749 -1.28608 -0.320489 -2.47319 -1.24649 
-0.321209 -2.47874 -1.20689 -0.32191 -2.48415 -1.16726 -0.322594 -2.48942 -1.12762 
-0.323258 -2.49455 -1.08795 -0.323901 -2.49952 -1.04827 -0.324525 -2.50433 -1.00856 
-0.325128 -2.50898 -0.968837 -0.325711 -2.51348 -0.929094 -0.326272 -2.51781 -0.889334 
-0.326811 -2.52197 -0.849554 -0.327328 -2.52596 -0.809757 -0.327823 -2.52978 -0.769943 
-0.328295 -2.53342 -0.730112 -0.328744 -2.53689 -0.690265 -0.329169 -2.54017 -0.650402 
-0.32957 -2.54326 -0.610524 -0.329948 -2.54618 -0.570632 -0.330301 -2.5489 -0.530726 
-0.33063 -2.55144 -0.490808 -0.330934 -2.55378 -0.450878 -0.331212 -2.55593 -0.410937 
-0.331466 -2.55789 -0.370986 -0.331694 -2.55965 -0.331025 -0.331896 -2.56121 -0.291056 
-0.332073 -2.56258 -0.25108 -0.332224 -2.56374 -0.211097 -0.332349 -2.56471 -0.171109 
-0.332448 -2.56547 -0.131116 -0.332521 -2.56603 -0.0911203 -0.332568 -2.56639 -0.0511219 
-0.332588 -2.56655 -0.0111223 -0.332582 -2.56651 0.0288777 -0.33255 -2.56626 0.0688769 
-0.332492 -2.56581 0.108874 -0.332407 -2.56516 0.148869 -0.332297 -2.5643 0.18886 
-0.33216 -2.56325 0.228846 -0.331998 -2.562 0.268826 -0.33181 -2.56054 0.308799 
-0.331596 -2.55889 0.348764 -0.331356 -2.55705 0.388721 -0.331092 -2.555 0.428668 
-0.330802 -2.55277 0.468604 -0.330487 -2.55034 0.508529 -0.330147 -2.54772 0.548441 
-0.329783 -2.54491 0.588341 -0.329395 -2.54191 0.628227 -0.328983 -2.53873 0.668098 
-0.328547 -2.53537 0.707954 -0.328088 -2.53183 0.747794 -0.327606 -2.52811 0.787618 
-0.327102 -2.52421 0.827425 -0.326575 -2.52015 0.867214 -0.326026 -2.51591 0.906985 
-0.325455 -2.5115 0.946738 -0.324863 -2.50694 0.986472 -0.324251 -2.50221 1.02619 
-0.323618 -2.49733 1.06588 -0.322965 -2.49229 1.10556 -0.322293 -2.4871 1.14522 
-0.321601 -2.48177 1.18485 -0.320892 -2.47629 1.22447 -0.320164 -2.47068 1.26407 
-0.319418 -2.46492 1.30364 -0.318655 -2.45903 1.3432 -0.317876 -2.45302 1.38274 
-0.31708 -2.44688 1.42226 -0.31627 -2.44062 1.46175 -0.315443 -2.43425 1.50123 
-0.314602 -2.42775 1.5407 -0.313747 -2.42115 1.58014 -0.312878 -2.41445 1.61956 
-0.311997 -2.40765 1.65897 -0.311103 -2.40076 1.69836 -0.310197 -2.39376 1.73773 
-0.309279 -2.38668 1.77709 -0.308352 -2.37952 1.81644 -0.307414 -2.37229 1.85576 
-0.306467 -2.36497 1.89508 -0.305509 -2.35759 1.93438 -0.304543 -2.35013 1.97367 
-0.30357 -2.34262 2.01294 -0.30259 -2.33506 2.05221 -0.301603 -2.32744 2.09147 
-0.300609 -2.31977 2.13071 -0.299609 -2.31206 2.16995 -0.298605 -2.30431 2.20918 
-0.297597 -2.29653 2.2484 -0.296585 -2.28872 2.28762 -0.29557 -2.28088 2.32683 
-0.29455 -2.27302 2.36603 -0.29353 -2.26515 2.40524 -0.292509 -2.25727 2.44444 
-0.291487 -2.24938 2.48364 -0.290464 -2.24149 2.52284 -0.289441 -2.23359 2.56204 
-0.288419 -2.22571 2.60124 -0.2874 -2.21784 2.64045 -0.286383 -2.20999 2.67966 
-0.285368 -2.20216 2.71887 -0.284356 -2.19435 2.75809 -0.283347 -2.18657 2.79731 
-0.282345 -2.17883 2.83654 -0.281347 -2.17113 2.87578 -0.280355 -2.16348 2.91503 
-0.279368 -2.15586 2.95429 -0.278388 -2.1483 2.99355 -0.277417 -2.1408 3.03283 
-0.276454 -2.13337 3.07212 -0.275499 -2.126 3.11143 -0.274552 -2.1187 3.15075 
-0.273615 -2.11147 3.19007 -0.272689 -2.10432 3.22942 -0.271775 -2.09726 3.26878 
-0.270872 -2.0903 3.30816 -0.26998 -2.08341 3.34755 -0.2691 -2.07662 3.38696 
-0.268234 -2.06994 3.42639 -0.267382 -2.06336 3.46584 -0.266544 -2.0569 3.5053 
-0.265721 -2.05055 3.54479 -0.264911 -2.0443 3.58429 -0.264118 -2.03818 3.62381 
-0.263343 -2.03219 3.66335 -0.262584 -2.02634 3.70291 -0.261841 -2.02061 3.74249 
-0.261116 -2.01501 3.78209 -0.260409 -2.00956 3.82171 -0.259722 -2.00425 3.86135 
-0.259054 -1.9991 3.90101 -0.258405 -1.99409 3.9407 -0.257775 -1.98923 3.98039 
-0.257166 -1.98453 4.02011 -0.256578 -1.98 4.05985 -0.256012 -1.97563 4.09961 
-0.255467 -1.97142 4.13938 -0.254944 -1.96738 4.17917 -0.254443 -1.96352 4.21898 
-0.253965 -1.95983 4.25881 -0.25351 -1.95632 4.29865 -0.253079 -1.95299 4.33851 
-0.252671 -1.94985 4.37839 -0.252287 -1.94688 4.41827 -0.251927 -1.9441 4.45818 
-0.251592 -1.94152 4.49809 -0.251282 -1.93912 4.53802 -0.250996 -1.93692 4.57796 
-0.250735 -1.93491 4.6179 -0.2505 -1.93309 4.65786 -0.250291 -1.93148 4.69783 
-0.250107 -1.93006 4.7378 -0.249949 -1.92884 4.77778 -0.249817 -1.92782 4.81777 
-0.249711 -1.927 4.85776 -0.249631 -1.92638 4.89776 -0.249577 -1.92597 4.93776 
-0.249549 -1.92576 4.97776 
