# vtk DataFile Version 5.1
vtk output
ASCII
DATASET STRUCTURED_GRID
DIMENSIONS 251 1 1
POINTS 251 float
0.0619896 -0.70634 -5 0.0619929 -0.706377 -4.96 0.0620026 -0.706488 -4.92 
0.0620189 -0.706673 -4.88 0.0620416 -0.706932 -4.84 0.0620709 -0.707266 -4.8 
0.0621066 -0.707673 -4.76 0.0621488 -0.708153 -4.72001 0.0621973 -0.708706 -4.68001 
0.0622522 -0.709331 -4.64002 0.0623135 -0.71003 -4.60002 0.0623811 -0.710801 -4.56003 
0.0624549 -0.711642 -4.52004 0.0625349 -0.712553 -4.48005 0.0626211 -0.713535 -4.44006 
0.0627134 -0.714587 -4.40008 0.0628119 -0.715709 -4.36009 0.0629162 -0.716898 -4.32011 
0.0630264 -0.718153 -4.28013 0.0631424 -0.719475 -4.24015 0.0632643 -0.720864 -4.20018 
0.0633921 -0.72232 -4.1602 0.0635253 -0.723838 -4.12023 0.0636639 -0.725417 -4.08026 
0.0638079 -0.727058 -4.0403 0.0639574 -0.728762 -4.00033 0.0641124 -0.730528 -3.96037 
0.0642723 -0.73235 -3.92041 0.0644372 -0.734228 -3.88046 0.0646069 -0.736162 -3.84051 
0.0647817 -0.738153 -3.80056 0.0649614 -0.740201 -3.76061 0.0651455 -0.742299 -3.72066 
0.0653339 -0.744446 -3.68072 0.0655267 -0.746642 -3.64078 0.0657239 -0.748889 -3.60085 
0.0659255 -0.751186 -3.56091 0.0661309 -0.753526 -3.52098 0.06634 -0.755909 -3.48105 
0.0665528 -0.758333 -3.44113 0.0667693 -0.7608 -3.4012 0.0669895 -0.763309 -3.36128 
0.067213 -0.765855 -3.32137 0.0674394 -0.768436 -3.28145 0.0676688 -0.771049 -3.24154 
0.0679013 -0.773698 -3.20162 0.0681367 -0.77638 -3.16172 0.0683747 -0.779093 -3.12181 
0.068615 -0.78183 -3.0819 0.0688574 -0.784592 -3.042 0.0691021 -0.78738 -3.0021 
0.0693491 -0.790194 -2.9622 0.0695979 -0.79303 -2.9223 0.0698482 -0.795881 -2.8824 
0.0700999 -0.798749 -2.8425 0.070353 -0.801634 -2.80261 0.0706076 -0.804534 -2.76272 
0.0708634 -0.807449 -2.72282 0.0711198 -0.81037 -2.68293 0.0713768 -0.813299 -2.64304 
0.0716344 -0.816234 -2.60315 0.0718927 -0.819177 -2.56326 0.0721513 -0.822124 -2.52337 
0.0724099 -0.82507 -2.48348 0.0726682 -0.828013 -2.44358 0.0729263 -0.830954 -2.40369 
0.0731842 -0.833893 -2.3638 0.0734418 -0.836827 -2.32391 0.0736984 -0.839751 -2.28402 
0.073954 -0.842663 -2.24413 0.0742085 -0.845564 -2.20423 0.074462 -0.848453 -2.16434 
0.0747145 -0.851328 -2.12444 0.0749651 -0.854185 -2.08454 0.075214 -0.857021 -2.04465 
0.0754611 -0.859836 -2.00475 0.0757063 -0.862629 -1.96484 0.0759495 -0.865401 -1.92494 
0.0761904 -0.868145 -1.88504 0.0764287 -0.87086 -1.84513 0.0766643 -0.873545 -1.80522 
0.0768974 -0.8762 -1.76531 0.0771277 -0.878825 -1.7254 0.0773549 -0.881414 -1.68548 
0.0775789 -0.883965 -1.64556 0.0777994 -0.886479 -1.60564 0.0780166 -0.888953 -1.56572 
0.0782304 -0.891389 -1.52579 0.0784405 -0.893782 -1.48587 0.0786465 -0.89613 -1.44594 
0.0788486 -0.898432 -1.406 0.0790465 -0.900688 -1.36607 0.0792404 -0.902897 -1.32613 
0.0794299 -0.905056 -1.28619 0.0796148 -0.907163 -1.24624 0.0797951 -0.909217 -1.2063 
0.0799707 -0.911218 -1.16635 0.0801416 -0.913165 -1.12639 0.0803076 -0.915057 -1.08644 
0.0804685 -0.91689 -1.04648 0.0806241 -0.918663 -1.00652 0.0807746 -0.920378 -0.966559 
0.0809198 -0.922032 -0.926593 0.0810596 -0.923625 -0.886625 0.0811938 -0.925155 -0.846655 
0.0813224 -0.92662 -0.806682 0.0814453 -0.92802 -0.766706 0.0815625 -0.929356 -0.726729 
0.0816739 -0.930625 -0.686749 0.0817794 -0.931827 -0.646767 0.0818788 -0.932959 -0.606783 
0.0819722 -0.934023 -0.566798 0.0820595 -0.935019 -0.52681 0.0821408 -0.935944 -0.486821 
0.0822157 -0.936798 -0.44683 0.0822844 -0.937581 -0.406838 0.0823468 -0.938292 -0.366844 
0.0824028 -0.93893 -0.326849 0.0824526 -0.939497 -0.286853 0.0824958 -0.93999 -0.246856 
0.0825327 -0.94041 -0.206859 0.082563 -0.940756 -0.16686 0.0825869 -0.941028 -0.126861 
0.0826043 -0.941226 -0.0868616 0.0826152 -0.94135 -0.0468618 0.0826196 -0.9414 -0.00686186 
0.0826175 -0.941376 0.0331381 0.0826088 -0.941277 0.073138 0.0825936 -0.941104 0.113138 
0.082572 -0.940857 0.153137 0.0825438 -0.940537 0.193136 0.0825092 -0.940142 0.233134 
0.0824681 -0.939674 0.273131 0.0824206 -0.939133 0.313127 0.0823667 -0.938519 0.353122 
0.0823065 -0.937833 0.393116 0.08224 -0.937075 0.433109 0.0821672 -0.936245 0.473101 
0.0820881 -0.935344 0.51309 0.0820029 -0.934373 0.553078 0.0819115 -0.933332 0.593065 
0.0818142 -0.932223 0.633049 0.0817108 -0.931045 0.673032 0.0816014 -0.929799 0.713012 
0.0814862 -0.928486 0.752991 0.0813652 -0.927108 0.792967 0.0812386 -0.925665 0.83294 
0.0811063 -0.924157 0.872912 0.0809684 -0.922586 0.912881 0.080825 -0.920952 0.952847 
0.0806764 -0.919258 0.992811 0.0805225 -0.917505 1.03277 0.0803634 -0.915692 1.07273 
0.0801992 -0.913821 1.11269 0.0800299 -0.911893 1.15264 0.0798559 -0.90991 1.19259 
0.0796772 -0.907874 1.23254 0.0794939 -0.905785 1.27248 0.079306 -0.903644 1.31243 
0.0791135 -0.901451 1.35236 0.0789169 -0.899211 1.3923 0.0787163 -0.896925 1.43224 
0.0785116 -0.894593 1.47217 0.078303 -0.892216 1.5121 0.0780904 -0.889793 1.55202 
0.0778743 -0.887332 1.59195 0.0776549 -0.884832 1.63187 0.0774321 -0.882293 1.67179 
0.077206 -0.879717 1.7117 0.0769767 -0.877104 1.75162 0.0767446 -0.874459 1.79153 
0.0765098 -0.871784 1.83144 0.0762724 -0.86908 1.87134 0.0760324 -0.866345 1.91125 
0.0757899 -0.863582 1.95115 0.0755454 -0.860796 1.99106 0.075299 -0.857988 2.03096 
0.0750507 -0.85516 2.07086 0.0748006 -0.852311 2.11075 0.0745488 -0.849441 2.15065 
0.0742956 -0.846556 2.19054 0.0740414 -0.84366 2.23044 0.0737862 -0.840752 2.27033 
0.0735299 -0.837832 2.31022 0.0732727 -0.834901 2.35012 0.0730148 -0.831963 2.39001 
0.0727568 -0.829023 2.4299 0.0724985 -0.82608 2.46979 0.0722401 -0.823135 2.50968 
0.0719814 -0.820188 2.54957 0.071723 -0.817243 2.58946 0.0714651 -0.814305 2.62935 
0.0712079 -0.811374 2.66924 0.0709513 -0.80845 2.70914 0.0706953 -0.805534 2.74903 
0.0704402 -0.802627 2.78892 0.0701866 -0.799737 2.82882 0.0699344 -0.796864 2.86871 
0.0696836 -0.794006 2.90861 0.0694343 -0.791165 2.94851 0.0691866 -0.788343 2.98841 
0.0689411 -0.785546 3.02831 0.0686979 -0.782775 3.06821 0.0684569 -0.780029 3.10812 
0.0682181 -0.777308 3.14802 0.0679817 -0.774614 3.18793 0.0677482 -0.771954 3.22784 
0.0675178 -0.769329 3.26776 0.0672904 -0.766737 3.30767 0.0670659 -0.764179 3.34759 
0.0668444 -0.761656 3.38751 0.0666266 -0.759174 3.42743 0.0664125 -0.756735 3.46736 
0.0662022 -0.754338 3.50728 0.0659955 -0.751984 3.54721 0.0657925 -0.749671 3.58715 
0.0655938 -0.747407 3.62708 0.0653995 -0.745193 3.66702 0.0652096 -0.743029 3.70696 
0.065024 -0.740914 3.7469 0.0648427 -0.738849 3.78685 0.0646663 -0.736838 3.8268 
0.0644948 -0.734885 3.86675 0.0643283 -0.732987 3.90671 0.0641667 -0.731146 3.94666 
0.06401 -0.729361 3.98662 0.0638586 -0.727635 4.02659 0.0637127 -0.725973 4.06655 
0.0635722 -0.724372 4.10652 0.0634372 -0.722834 4.14649 0.0633075 -0.721357 4.18646 
0.0631836 -0.719944 4.22644 0.0630655 -0.718599 4.26641 0.0629534 -0.717321 4.30639 
0.0628471 -0.71611 4.34637 0.0627466 -0.714965 4.38636 0.0626521 -0.713888 4.42634 
0.0625638 -0.712882 4.46633 0.0624817 -0.711947 4.50632 0.0624058 -0.711082 4.54631 
0.062336 -0.710287 4.5863 0.0622725 -0.709563 4.6263 0.0622154 -0.708912 4.66629 
0.0621647 -0.708335 4.70629 0.0621204 -0.70783 4.74628 0.0620825 -0.707398 4.78628 
0.062051 -0.707039 4.82628 0.062026 -0.706754 4.86628 0.0620075 -0.706543 4.90628 
0.0619955 -0.706407 4.94628 0.06199 -0.706344 4.98628 
