# vtk DataFile Version 5.1
vtk output
ASCII
DATASET STRUCTURED_GRID
DIMENSIONS 255 1 1
POINTS 255 float
-0.897927 -2.49647 -5 -0.897974 -2.4966 -4.96 -0.898116 -2.49699 -4.92 
-0.898351 -2.49764 -4.88001 -0.89868 -2.49856 -4.84002 -0.899104 -2.49974 -4.80004 
-0.899621 -2.50118 -4.76007 -0.90023 -2.50287 -4.72011 -0.900931 -2.50482 -4.68016 
-0.901725 -2.50702 -4.64023 -0.902611 -2.50949 -4.60032 -0.903587 -2.5122 -4.56042 
-0.904652 -2.51516 -4.52055 -0.905805 -2.51837 -4.48069 -0.907046 -2.52182 -4.44086 
-0.908376 -2.52552 -4.40105 -0.909793 -2.52946 -4.36127 -0.911292 -2.53362 -4.32152 
-0.912874 -2.53802 -4.28179 -0.914539 -2.54265 -4.2421 -0.916286 -2.54751 -4.20243 
-0.918117 -2.5526 -4.1628 -0.920022 -2.5579 -4.1232 -0.922003 -2.5634 -4.08363 
-0.92406 -2.56912 -4.04409 -0.926192 -2.57505 -4.00459 -0.9284 -2.58119 -3.96513 
-0.930677 -2.58752 -3.9257 -0.933021 -2.59404 -3.8863 -0.935432 -2.60074 -3.84694 
-0.937911 -2.60763 -3.80762 -0.940458 -2.61471 -3.76833 -0.943066 -2.62197 -3.72908 
-0.945733 -2.62938 -3.68986 -0.948457 -2.63695 -3.65068 -0.95124 -2.64469 -3.61154 
-0.954082 -2.65259 -3.57243 -0.956978 -2.66064 -3.53335 -0.959923 -2.66883 -3.49431 
-0.962916 -2.67715 -3.4553 -0.965958 -2.68561 -3.41632 -0.969049 -2.6942 -3.37738 
-0.972187 -2.70293 -3.33847 -0.975363 -2.71176 -3.29959 -0.978578 -2.7207 -3.26073 
-0.981832 -2.72974 -3.2219 -0.985125 -2.7389 -3.1831 -0.988457 -2.74816 -3.14433 
-0.991818 -2.7575 -3.10559 -0.995207 -2.76693 -3.06686 -0.998625 -2.77643 -3.02815 
-1.00207 -2.78601 -2.98947 -1.00555 -2.79567 -2.95081 -1.00904 -2.80539 -2.91217 
-1.01256 -2.81516 -2.87354 -1.01609 -2.82499 -2.83493 -1.01964 -2.83486 -2.79633 
-1.02321 -2.84478 -2.75774 -1.02679 -2.85474 -2.71917 -1.03038 -2.86473 -2.6806 
-1.03398 -2.87473 -2.64204 -1.03759 -2.88476 -2.60349 -1.0412 -2.89481 -2.56494 
-1.04482 -2.90488 -2.5264 -1.04844 -2.91494 -2.48785 -1.05206 -2.92499 -2.4493 
-1.05567 -2.93503 -2.41076 -1.05928 -2.94507 -2.3722 -1.06289 -2.9551 -2.33365 
-1.06649 -2.9651 -2.29509 -1.07007 -2.97507 -2.25651 -1.07364 -2.98499 -2.21793 
-1.0772 -2.99489 -2.17934 -1.08074 -3.00474 -2.14073 -1.08427 -3.01454 -2.10211 
-1.08777 -3.02428 -2.06347 -1.09125 -3.03395 -2.02482 -1.09471 -3.04356 -1.98614 
-1.09814 -3.0531 -1.94745 -1.10154 -3.06257 -1.90874 -1.10491 -3.07194 -1.87 
-1.10825 -3.08123 -1.83123 -1.11156 -3.09042 -1.79244 -1.11483 -3.09951 -1.75363 
-1.11806 -3.10851 -1.71479 -1.12126 -3.11738 -1.67591 -1.12441 -3.12614 -1.63701 
-1.12751 -3.13478 -1.59808 -1.13058 -3.14329 -1.55912 -1.13359 -3.15168 -1.52012 
-1.13656 -3.15992 -1.48109 -1.13947 -3.16802 -1.44203 -1.14233 -3.17597 -1.40293 
-1.14514 -3.18377 -1.3638 -1.14789 -3.19142 -1.32464 -1.15058 -3.19891 -1.28543 
-1.15321 -3.20622 -1.2462 -1.15578 -3.21336 -1.20692 -1.15828 -3.22032 -1.16761 
-1.16072 -3.2271 -1.12827 -1.1631 -3.2337 -1.08889 -1.1654 -3.24011 -1.04947 
-1.16763 -3.24631 -1.01002 -1.16979 -3.25232 -0.970531 -1.17188 -3.25812 -0.931009 
-1.17389 -3.26372 -0.891454 -1.17583 -3.2691 -0.851865 -1.17768 -3.27426 -0.812243 
-1.17946 -3.2792 -0.772589 -1.18116 -3.28392 -0.732904 -1.18278 -3.28842 -0.693191 
-1.18431 -3.29268 -0.653448 -1.18575 -3.2967 -0.613677 -1.18712 -3.30048 -0.573879 
-1.18839 -3.30403 -0.534057 -1.18958 -3.30733 -0.494212 -1.19068 -3.31039 -0.454344 
-1.19169 -3.31319 -0.414455 -1.19261 -3.31575 -0.374547 -1.19343 -3.31805 -0.334622 
-1.19417 -3.3201 -0.294681 -1.19482 -3.32189 -0.254727 -1.19537 -3.32343 -0.21476 
-1.19583 -3.3247 -0.174783 -1.19619 -3.32571 -0.134797 -1.19646 -3.32646 -0.0948054 
-1.19664 -3.32696 -0.0548088 -1.19672 -3.32718 -0.0148095 -1.19671 -3.32715 0.0251904 
-1.1966 -3.32685 0.0651892 -1.1964 -3.32629 0.105185 -1.1961 -3.32547 0.145175 
-1.19572 -3.32439 0.185159 -1.19523 -3.32305 0.225133 -1.19466 -3.32145 0.265097 
-1.19399 -3.31959 0.305048 -1.19323 -3.31748 0.344985 -1.19238 -3.31511 0.384906 
-1.19143 -3.31249 0.424809 -1.1904 -3.30962 0.464692 -1.18928 -3.3065 0.504555 
-1.18807 -3.30313 0.544394 -1.18677 -3.29952 0.58421 -1.18539 -3.29568 0.624001 
-1.18392 -3.29159 0.663765 -1.18236 -3.28727 0.7035 -1.18073 -3.28272 0.743206 
-1.17901 -3.27794 0.782883 -1.17721 -3.27294 0.822529 -1.17533 -3.26772 0.862142 
-1.17338 -3.26229 0.901723 -1.17134 -3.25663 0.941269 -1.16924 -3.25078 0.980782 
-1.16706 -3.24472 1.02026 -1.16481 -3.23846 1.0597 -1.16249 -3.23201 1.09911 
-1.1601 -3.22536 1.13848 -1.15764 -3.21853 1.17782 -1.15512 -3.21152 1.21712 
-1.15253 -3.20434 1.25638 -1.14989 -3.19698 1.29561 -1.14718 -3.18945 1.3348 
-1.14441 -3.18176 1.37396 -1.1416 -3.17393 1.41308 -1.13872 -3.16594 1.45217 
-1.13579 -3.1578 1.49123 -1.13281 -3.14951 1.53024 -1.12979 -3.14109 1.56923 
-1.12671 -3.13255 1.60819 -1.1236 -3.12388 1.64711 -1.12043 -3.11509 1.68601 
-1.11723 -3.10618 1.72487 -1.11398 -3.09716 1.7637 -1.1107 -3.08804 1.80251 
-1.10739 -3.07883 1.84129 -1.10404 -3.06952 1.88005 -1.10066 -3.06012 1.91878 
-1.09725 -3.05063 1.95749 -1.09381 -3.04107 1.99618 -1.09035 -3.03145 2.03485 
-1.08686 -3.02176 2.0735 -1.08336 -3.012 2.11214 -1.07982 -3.00219 2.15075 
-1.07628 -2.99232 2.18935 -1.07272 -2.98242 2.22795 -1.06914 -2.97248 2.26653 
-1.06555 -2.96251 2.3051 -1.06195 -2.9525 2.34366 -1.05835 -2.94247 2.38221 
-1.05473 -2.93243 2.42076 -1.05112 -2.92238 2.45931 -1.0475 -2.91233 2.49785 
-1.04389 -2.90226 2.5364 -1.04027 -2.8922 2.57494 -1.03665 -2.88216 2.61349 
-1.03305 -2.87214 2.65205 -1.02945 -2.86214 2.69061 -1.02586 -2.85216 2.72918 
-1.02228 -2.8422 2.76776 -1.01872 -2.83229 2.80634 -1.01517 -2.82243 2.84495 
-1.01164 -2.81262 2.88356 -1.00813 -2.80287 2.9222 -1.00464 -2.79316 2.96084 
-1.00117 -2.78352 2.99951 -0.997735 -2.77395 3.0382 -0.994325 -2.76447 3.07691 
-0.990943 -2.75507 3.11564 -0.987589 -2.74575 3.15439 -0.984268 -2.73651 3.19317 
-0.980985 -2.72739 3.23198 -0.977741 -2.71837 3.27081 -0.974536 -2.70946 3.30967 
-0.971369 -2.70065 3.34856 -0.968242 -2.69196 3.38748 -0.965164 -2.6834 3.42644 
-0.962135 -2.67498 3.46542 -0.959154 -2.66669 3.50444 -0.956222 -2.65854 3.54349 
-0.953339 -2.65053 3.58257 -0.950512 -2.64267 3.62169 -0.947744 -2.63497 3.66085 
-0.945035 -2.62744 3.70004 -0.942384 -2.62007 3.73926 -0.939791 -2.61286 3.77852 
-0.937262 -2.60583 3.81782 -0.9348 -2.59898 3.85715 -0.932406 -2.59233 3.89652 
-0.93008 -2.58586 3.93593 -0.92782 -2.57958 3.97536 -0.925632 -2.57349 4.01484 
-0.923519 -2.56762 4.05435 -0.921482 -2.56195 4.09389 -0.919521 -2.5565 4.13347 
-0.917634 -2.55126 4.17308 -0.915826 -2.54623 4.21272 -0.9141 -2.54143 4.2524 
-0.912456 -2.53686 4.2921 -0.910896 -2.53252 4.33183 -0.909418 -2.52841 4.37159 
-0.908023 -2.52453 4.41138 -0.906716 -2.5209 4.45119 -0.905498 -2.51751 4.49103 
-0.904368 -2.51437 4.53089 -0.903326 -2.51148 4.57077 -0.902372 -2.50882 4.61067 
-0.90151 -2.50643 4.65059 -0.900741 -2.50429 4.69053 -0.900064 -2.50241 4.73048 
-0.899478 -2.50078 4.77044 -0.898985 -2.49941 4.81041 -0.898586 -2.4983 4.8504 
-0.898281 -2.49745 4.89039 -0.89807 -2.49686 4.93038 -0.897953 -2.49654 4.97038 

