# vtk DataFile Version 5.1
vtk output
ASCII
DATASET STRUCTURED_GRID
DIMENSIONS 254 1 1
POINTS 254 float
-1.93039 1.34311 -5 -1.93049 1.34318 -4.96 -1.93079 1.34339 -4.92 
-1.9313 1.34375 -4.88001 -1.93201 1.34424 -4.84002 -1.93292 1.34487 -4.80003 
-1.93403 1.34565 -4.76005 -1.93534 1.34656 -4.72009 -1.93685 1.34761 -4.68013 
-1.93855 1.34879 -4.64018 -1.94046 1.35012 -4.60025 -1.94256 1.35158 -4.56033 
-1.94485 1.35318 -4.52043 -1.94733 1.3549 -4.48054 -1.95 1.35676 -4.44068 
-1.95287 1.35875 -4.40083 -1.95592 1.36088 -4.361 -1.95915 1.36312 -4.3212 
-1.96255 1.36549 -4.28141 -1.96614 1.36799 -4.24165 -1.96991 1.37061 -4.20191 
-1.97385 1.37335 -4.1622 -1.97796 1.37621 -4.12252 -1.98223 1.37919 -4.08286 
-1.98667 1.38227 -4.04323 -1.99127 1.38547 -4.00362 -1.99603 1.38879 -3.96404 
-2.00095 1.39221 -3.92449 -2.00601 1.39573 -3.88497 -2.01121 1.39935 -3.84548 
-2.01657 1.40308 -3.80601 -2.02207 1.4069 -3.76658 -2.02771 1.41083 -3.72717 
-2.03347 1.41483 -3.68779 -2.03936 1.41893 -3.64844 -2.04538 1.42312 -3.60912 
-2.05152 1.4274 -3.56983 -2.05779 1.43176 -3.53056 -2.06416 1.43619 -3.49132 
-2.07064 1.44069 -3.45211 -2.07722 1.44528 -3.41292 -2.08391 1.44993 -3.37376 
-2.09071 1.45466 -3.33463 -2.09758 1.45944 -3.29551 -2.10455 1.46429 -3.25642 
-2.1116 1.46919 -3.21736 -2.11873 1.47416 -3.17831 -2.12595 1.47918 -3.13929 
-2.13323 1.48424 -3.10029 -2.14057 1.48935 -3.0613 -2.14798 1.49451 -3.02233 
-2.15545 1.49971 -2.98338 -2.16298 1.50495 -2.94445 -2.17056 1.51022 -2.90553 
-2.17818 1.51552 -2.86662 -2.18584 1.52085 -2.82772 -2.19354 1.52621 -2.78884 
-2.20128 1.53159 -2.74996 -2.20904 1.53699 -2.7111 -2.21682 1.54241 -2.67224 
-2.22462 1.54784 -2.63338 -2.23244 1.55327 -2.59453 -2.24028 1.55873 -2.55569 
-2.24812 1.56418 -2.51685 -2.25596 1.56964 -2.478 -2.26379 1.57509 -2.43916 
-2.27162 1.58053 -2.40031 -2.27944 1.58597 -2.36146 -2.28725 1.59141 -2.32261 
-2.29503 1.59682 -2.28375 -2.30278 1.60222 -2.24488 -2.31051 1.60759 -2.206 
-2.31821 1.61295 -2.16712 -2.32587 1.61828 -2.12822 -2.33349 1.62358 -2.08932 
-2.34106 1.62885 -2.05039 -2.34857 1.63408 -2.01145 -2.35604 1.63927 -1.9725 
-2.36345 1.64442 -1.93353 -2.37079 1.64953 -1.89455 -2.37806 1.65459 -1.85554 
-2.38526 1.6596 -1.81651 -2.39238 1.66456 -1.77747 -2.39943 1.66946 -1.7384 
-2.40639 1.67431 -1.69931 -2.41326 1.67908 -1.66019 -2.42003 1.6838 -1.62105 
-2.42671 1.68844 -1.58189 -2.43329 1.69302 -1.5427 -2.43976 1.69752 -1.50348 
-2.44612 1.70195 -1.46424 -2.45237 1.70629 -1.42497 -2.45849 1.71056 -1.38567 
-2.4645 1.71473 -1.34635 -2.47039 1.71883 -1.307 -2.47614 1.72283 -1.26762 
-2.48175 1.72674 -1.22821 -2.48723 1.73055 -1.18877 -2.49257 1.73427 -1.1493 
-2.49777 1.73788 -1.1098 -2.50282 1.74139 -1.07028 -2.50771 1.7448 -1.03073 
-2.51245 1.7481 -0.991144 -2.51703 1.75128 -0.951535 -2.52145 1.75436 -0.911899 
-2.52571 1.75732 -0.872237 -2.5298 1.76017 -0.832548 -2.53371 1.76289 -0.792834 
-2.53746 1.7655 -0.753095 -2.54103 1.76798 -0.713332 -2.54442 1.77034 -0.673546 
-2.54763 1.77257 -0.633737 -2.55065 1.77467 -0.593907 -2.55349 1.77665 -0.554057 
-2.55614 1.77849 -0.514187 -2.5586 1.78021 -0.4743 -2.56087 1.78178 -0.434395 
-2.56294 1.78323 -0.394475 -2.56482 1.78453 -0.354541 -2.5665 1.78571 -0.314593 
-2.56799 1.78674 -0.274634 -2.56927 1.78763 -0.234665 -2.57036 1.78839 -0.194687 
-2.57124 1.789 -0.154701 -2.57192 1.78948 -0.11471 -2.57241 1.78981 -0.0747141 
-2.57268 1.79001 -0.0347155 -2.57276 1.79006 0.00528438 -2.57263 1.78997 0.0452841 
-2.5723 1.78974 0.085282 -2.57176 1.78937 0.125277 -2.57103 1.78885 0.165267 
-2.57009 1.7882 0.20525 -2.56895 1.78741 0.245226 -2.56762 1.78648 0.285193 
-2.56608 1.78541 0.325149 -2.56434 1.7842 0.365093 -2.56241 1.78286 0.405024 
-2.56029 1.78138 0.44494 -2.55797 1.77977 0.48484 -2.55546 1.77802 0.524723 
-2.55275 1.77614 0.564588 -2.54987 1.77413 0.604433 -2.5468 1.77199 0.644257 
-2.54354 1.76973 0.68406 -2.5401 1.76734 0.72384 -2.53648 1.76482 0.763597 
-2.5327 1.76218 0.80333 -2.52873 1.75943 0.843037 -2.5246 1.75655 0.882719 
-2.5203 1.75356 0.922374 -2.51583 1.75045 0.962003 -2.51121 1.74724 1.0016 
-2.50643 1.74391 1.04118 -2.5015 1.74048 1.08072 -2.49641 1.73694 1.12024 
-2.49117 1.73329 1.15973 -2.4858 1.72955 1.19919 -2.48028 1.72572 1.23862 
-2.47463 1.72178 1.27802 -2.46884 1.71776 1.3174 -2.46293 1.71364 1.35674 
-2.45689 1.70944 1.39606 -2.45073 1.70515 1.43535 -2.44446 1.70079 1.47461 
-2.43806 1.69634 1.51385 -2.43156 1.69182 1.55306 -2.42496 1.68722 1.59224 
-2.41825 1.68256 1.6314 -2.41146 1.67783 1.67053 -2.40456 1.67303 1.70964 
-2.39758 1.66817 1.74872 -2.39051 1.66325 1.78778 -2.38337 1.65828 1.82683 
-2.37615 1.65326 1.86585 -2.36886 1.64819 1.90485 -2.36149 1.64307 1.94383 
-2.35407 1.6379 1.98279 -2.34659 1.6327 2.02174 -2.33906 1.62746 2.06068 
-2.33148 1.62218 2.0996 -2.32385 1.61687 2.1385 -2.31618 1.61153 2.17739 
-2.30847 1.60617 2.21628 -2.30074 1.60079 2.25515 -2.29298 1.59539 2.29402 
-2.28519 1.58997 2.33288 -2.27737 1.58454 2.37173 -2.26955 1.57909 2.41057 
-2.26172 1.57365 2.44942 -2.25389 1.5682 2.48827 -2.24605 1.56274 2.52711 
-2.2382 1.55728 2.56595 -2.23037 1.55184 2.6048 -2.22256 1.5464 2.64365 
-2.21477 1.54098 2.6825 -2.20699 1.53556 2.72137 -2.19923 1.53017 2.76023 
-2.1915 1.52479 2.79911 -2.18381 1.51944 2.838 -2.17616 1.51412 2.8769 
-2.16856 1.50882 2.91581 -2.16099 1.50356 2.95473 -2.15347 1.49833 2.99367 
-2.14602 1.49314 3.03262 -2.13863 1.488 3.0716 -2.1313 1.4829 3.11059 
-2.12404 1.47785 3.1496 -2.11684 1.47284 3.18863 -2.10973 1.46789 3.22768 
-2.1027 1.463 3.26675 -2.09576 1.45817 3.30585 -2.0889 1.4534 3.34496 
-2.08213 1.44869 3.3841 -2.07547 1.44406 3.42327 -2.06891 1.4395 3.46247 
-2.06247 1.43501 3.50169 -2.05612 1.4306 3.54093 -2.04989 1.42626 3.58021 
-2.04377 1.422 3.61951 -2.03779 1.41784 3.65884 -2.03193 1.41377 3.6982 
-2.02621 1.40978 3.73758 -2.0206 1.40588 3.777 -2.01514 1.40208 3.81644 
-2.00982 1.39838 3.85591 -2.00466 1.39479 3.89541 -1.99963 1.39129 3.93494 
-1.99476 1.3879 3.9745 -1.99004 1.38462 4.01408 -1.98548 1.38145 4.05369 
-1.98109 1.37839 4.09334 -1.97686 1.37545 4.133 -1.97279 1.37262 4.17269 
-1.9689 1.36991 4.21241 -1.96518 1.36732 4.25215 -1.96164 1.36486 4.29192 
-1.95828 1.36252 4.33171 -1.9551 1.3603 4.37152 -1.95209 1.35822 4.41136 
-1.94928 1.35626 4.45121 -1.94666 1.35443 4.49108 -1.94423 1.35274 4.53097 
-1.94199 1.35118 4.57088 -1.93994 1.34976 4.6108 -1.93808 1.34847 4.65074 
-1.93643 1.34732 4.69068 -1.93497 1.3463 4.73065 -1.93372 1.34543 4.77062 
-1.93266 1.34469 4.8106 -1.9318 1.3441 4.85058 -1.93114 1.34364 4.89057 
-1.93069 1.34332 4.93057 -1.93044 1.34315 4.97057 
