# vtk DataFile Version 5.1
vtk output
ASCII
DATASET STRUCTURED_GRID
DIMENSIONS 251 1 1
POINTS 251 float
0.528375 0.689172 -5 0.528403 0.689208 -4.96 0.528486 0.689316 -4.92 
0.528624 0.689497 -4.88 0.528818 0.68975 -4.84 0.529068 0.690075 -4.8 
0.529373 0.690473 -4.76001 0.529731 0.690941 -4.72001 0.530145 0.69148 -4.68002 
0.530613 0.69209 -4.64003 0.531135 0.692772 -4.60003 0.531712 0.693524 -4.56005 
0.532341 0.694344 -4.52006 0.533022 0.695233 -4.48007 0.533756 0.696191 -4.44009 
0.534544 0.697217 -4.40011 0.535383 0.698312 -4.36014 0.536272 0.699472 -4.32016 
0.53721 0.700696 -4.28019 0.538199 0.701985 -4.24023 0.539238 0.70334 -4.20026 
0.540326 0.70476 -4.1603 0.541461 0.70624 -4.12035 0.542642 0.70778 -4.08039 
0.543869 0.70938 -4.04044 0.545142 0.711041 -4.0005 0.546462 0.712763 -3.96056 
0.547824 0.71454 -3.92062 0.549228 0.716371 -3.88069 0.550674 0.718257 -3.84076 
0.552162 0.720198 -3.80083 0.553693 0.722194 -3.76091 0.555261 0.724239 -3.721 
0.556865 0.726332 -3.68108 0.558507 0.728473 -3.64117 0.560186 0.730663 -3.60127 
0.561902 0.732901 -3.56137 0.563651 0.735183 -3.52147 0.565431 0.737504 -3.48158 
0.567242 0.739867 -3.44169 0.569085 0.742271 -3.4018 0.57096 0.744716 -3.36192 
0.572863 0.747198 -3.32205 0.57479 0.749712 -3.28217 0.576743 0.752259 -3.2423 
0.578721 0.754839 -3.20243 0.580725 0.757453 -3.16257 0.582751 0.760096 -3.12271 
0.584796 0.762763 -3.08285 0.58686 0.765454 -3.04299 0.588942 0.76817 -3.00314 
0.591044 0.770912 -2.96329 0.593162 0.773674 -2.92344 0.595292 0.776452 -2.88359 
0.597434 0.779246 -2.84375 0.599588 0.782056 -2.80391 0.601755 0.784882 -2.76407 
0.603932 0.787722 -2.72423 0.606114 0.790568 -2.68439 0.608301 0.793421 -2.64455 
0.610494 0.796281 -2.60471 0.612692 0.799148 -2.56488 0.614894 0.80202 -2.52504 
0.617094 0.80489 -2.4852 0.619293 0.807758 -2.44537 0.62149 0.810624 -2.40553 
0.623686 0.813488 -2.36569 0.625878 0.816348 -2.32586 0.628063 0.819197 -2.28602 
0.630239 0.822035 -2.24618 0.632407 0.824862 -2.20634 0.634565 0.827678 -2.16649 
0.636714 0.830481 -2.12665 0.638849 0.833265 -2.0868 0.640969 0.83603 -2.04696 
0.643073 0.838774 -2.00711 0.645161 0.841498 -1.96725 0.647233 0.8442 -1.9274 
0.649285 0.846877 -1.88754 0.651315 0.849524 -1.84768 0.653323 0.852143 -1.80782 
0.655308 0.854733 -1.76795 0.657271 0.857293 -1.72808 0.659207 0.859819 -1.68821 
0.661116 0.862308 -1.64833 0.662996 0.86476 -1.60845 0.664848 0.867175 -1.56857 
0.66667 0.869553 -1.52868 0.668461 0.871889 -1.48879 0.670219 0.874181 -1.44889 
0.671942 0.876428 -1.40899 0.67363 0.878631 -1.36909 0.675284 0.880788 -1.32918 
0.676901 0.882897 -1.28927 0.678479 0.884955 -1.24935 0.680018 0.886962 -1.20943 
0.681517 0.888917 -1.16951 0.682976 0.89082 -1.12958 0.684393 0.892669 -1.08965 
0.685767 0.894461 -1.04971 0.687097 0.896195 -1.00977 0.688382 0.897872 -0.969828 
0.689623 0.89949 -0.92988 0.690818 0.901049 -0.889929 0.691966 0.902546 -0.849973 
0.693065 0.90398 -0.810014 0.694117 0.905351 -0.770051 0.695119 0.906659 -0.730085 
0.696073 0.907903 -0.690116 0.696976 0.909081 -0.650143 0.697828 0.910192 -0.610168 
0.698628 0.911235 -0.57019 0.699376 0.912212 -0.530208 0.700073 0.913121 -0.490225 
0.700717 0.91396 -0.450239 0.701306 0.914729 -0.410251 0.701843 0.915429 -0.37026 
0.702325 0.916058 -0.330268 0.702753 0.916617 -0.290274 0.703127 0.917104 -0.250279 
0.703446 0.917519 -0.210283 0.703709 0.917863 -0.170285 0.703918 0.918135 -0.130286 
0.704071 0.918335 -0.0902871 0.704168 0.918462 -0.0502874 0.70421 0.918517 -0.0102875 
0.704197 0.918499 0.0297125 0.704128 0.918409 0.0697123 0.704003 0.918247 0.109712 
0.703823 0.918012 0.149711 0.703588 0.917705 0.189709 0.703298 0.917327 0.229706 
0.702953 0.916876 0.269702 0.702552 0.916354 0.309697 0.702098 0.915761 0.34969 
0.701589 0.915098 0.389681 0.701027 0.914364 0.42967 0.700411 0.913561 0.469657 
0.699741 0.912688 0.509642 0.699019 0.911746 0.549625 0.698246 0.910737 0.589604 
0.69742 0.909661 0.629581 0.696544 0.908517 0.669555 0.695616 0.907308 0.709526 
0.694639 0.906032 0.749494 0.693612 0.904694 0.789459 0.692538 0.903292 0.829419 
0.691415 0.901827 0.869377 0.690244 0.9003 0.909331 0.689026 0.898712 0.949281 
0.687764 0.897065 0.989227 0.686457 0.895361 1.02917 0.685106 0.893598 1.06911 
0.683711 0.891779 1.10904 0.682272 0.889903 1.14897 0.680794 0.887975 1.1889 
0.679276 0.885994 1.22882 0.677718 0.883962 1.26874 0.676121 0.881879 1.30865 
0.674485 0.879746 1.34856 0.672815 0.877567 1.38847 0.671109 0.875342 1.42837 
0.669369 0.873073 1.46827 0.667596 0.87076 1.50816 0.665789 0.868403 1.54805 
0.663952 0.866007 1.58794 0.662086 0.863574 1.62782 0.660192 0.861104 1.6677 
0.65827 0.858596 1.70757 0.65632 0.856053 1.74744 0.654346 0.853479 1.78731 
0.65235 0.850875 1.82718 0.650332 0.848242 1.86704 0.648291 0.84558 1.9069 
0.646229 0.842891 1.94675 0.644149 0.840178 1.98661 0.642053 0.837444 2.02646 
0.639941 0.83469 2.06631 0.637814 0.831915 2.10615 0.635672 0.829121 2.146 
0.633518 0.826312 2.18584 0.631355 0.823491 2.22568 0.629184 0.820659 2.26552 
0.627003 0.817815 2.30536 0.624814 0.81496 2.3452 0.62262 0.812098 2.38504 
0.620424 0.809233 2.42488 0.618226 0.806366 2.46471 0.616026 0.803497 2.50455 
0.613825 0.800626 2.54438 0.611624 0.797756 2.58422 0.609429 0.794892 2.62406 
0.607239 0.792035 2.6639 0.605054 0.789185 2.70373 0.602874 0.786342 2.74357 
0.600701 0.783508 2.78341 0.598541 0.78069 2.82326 0.596392 0.777888 2.8631 
0.594256 0.775102 2.90294 0.592132 0.772331 2.94279 0.590021 0.769578 2.98264 
0.587928 0.766848 3.02249 0.585855 0.764144 3.06235 0.583801 0.761465 3.10221 
0.581765 0.758809 3.14207 0.579749 0.756179 3.18193 0.577757 0.753582 3.22179 
0.575791 0.751018 3.26166 0.573851 0.748487 3.30154 0.571936 0.745989 3.34141 
0.570046 0.743523 3.38129 0.568186 0.741098 3.42117 0.566359 0.738714 3.46106 
0.564562 0.736372 3.50095 0.562797 0.734069 3.54085 0.561064 0.731808 3.58074 
0.559366 0.729593 3.62065 0.557705 0.727427 3.66055 0.556081 0.725309 3.70046 
0.554494 0.72324 3.74038 0.552944 0.721218 3.7803 0.551434 0.719248 3.82022 
0.549967 0.717334 3.86015 0.548541 0.715475 3.90008 0.547158 0.71367 3.94002 
0.545816 0.71192 3.97995 0.544518 0.710227 4.0199 0.543267 0.708595 4.05984 
0.542062 0.707024 4.0998 0.540904 0.705514 4.13975 0.539792 0.704063 4.17971 
0.538727 0.702674 4.21967 0.537713 0.701351 4.25964 0.536749 0.700093 4.2996 
0.535834 0.698901 4.33958 0.534969 0.697773 4.37955 0.534155 0.696711 4.41953 
0.533394 0.695718 4.45951 0.532685 0.694793 4.49949 0.532029 0.693938 4.53948 
0.531426 0.69315 4.57946 0.530875 0.692432 4.61945 0.530379 0.691785 4.65945 
0.529937 0.69121 4.69944 0.529551 0.690705 4.73943 0.529218 0.690271 4.77943 
0.52894 0.689909 4.81943 0.528717 0.689618 4.85943 0.52855 0.6894 4.89943 
0.528439 0.689255 4.93942 0.528383 0.689182 4.97942 
