# vtk DataFile Version 5.1
vtk output
ASCII
DATASET STRUCTURED_GRID
DIMENSIONS 252 1 1
POINTS 252 float
0.672006 -1.43604 -5 0.672041 -1.43611 -4.96 0.672146 -1.43634 -4.92 
0.672323 -1.43671 -4.88 0.672569 -1.43724 -4.84001 0.672887 -1.43792 -4.80001 
0.673274 -1.43875 -4.76002 0.67373 -1.43972 -4.72004 0.674256 -1.44085 -4.68006 
0.67485 -1.44212 -4.64008 0.675514 -1.44354 -4.60011 0.676247 -1.4451 -4.56015 
0.677046 -1.44681 -4.5202 0.677912 -1.44866 -4.48025 0.678844 -1.45065 -4.44031 
0.679844 -1.45279 -4.40038 0.680909 -1.45506 -4.36046 0.682037 -1.45747 -4.32055 
0.683228 -1.46002 -4.28064 0.684482 -1.4627 -4.24075 0.6858 -1.46551 -4.20087 
0.68718 -1.46846 -4.16101 0.688618 -1.47154 -4.12115 0.690114 -1.47473 -4.08131 
0.691669 -1.47806 -4.04148 0.693282 -1.4815 -4.00166 0.694953 -1.48507 -3.96185 
0.696678 -1.48876 -3.92206 0.698454 -1.49256 -3.88228 0.700283 -1.49646 -3.84251 
0.702165 -1.50049 -3.80276 0.7041 -1.50462 -3.76302 0.706082 -1.50886 -3.7233 
0.70811 -1.51319 -3.68358 0.710183 -1.51762 -3.64388 0.712304 -1.52215 -3.6042 
0.71447 -1.52678 -3.56453 0.716678 -1.5315 -3.52487 0.718925 -1.5363 -3.48522 
0.72121 -1.54119 -3.44558 0.723534 -1.54615 -3.40596 0.725898 -1.5512 -3.36635 
0.728297 -1.55633 -3.32676 0.730727 -1.56152 -3.28717 0.733188 -1.56678 -3.24759 
0.735681 -1.57211 -3.20803 0.738205 -1.5775 -3.16847 0.740757 -1.58296 -3.12893 
0.743333 -1.58846 -3.08939 0.745932 -1.59402 -3.04987 0.748554 -1.59962 -3.01035 
0.751199 -1.60527 -2.97084 0.753866 -1.61097 -2.93133 0.756548 -1.6167 -2.89184 
0.759245 -1.62247 -2.85235 0.761957 -1.62826 -2.81286 0.764684 -1.63409 -2.77338 
0.767425 -1.63994 -2.73391 0.770173 -1.64582 -2.69444 0.772928 -1.6517 -2.65497 
0.775689 -1.6576 -2.6155 0.778456 -1.66352 -2.57604 0.78123 -1.66944 -2.53658 
0.784003 -1.67537 -2.49712 0.786774 -1.68129 -2.45766 0.789542 -1.68721 -2.41819 
0.792309 -1.69312 -2.37873 0.795073 -1.69903 -2.33926 0.797829 -1.70492 -2.2998 
0.800575 -1.71078 -2.26033 0.803311 -1.71663 -2.22085 0.806035 -1.72245 -2.18137 
0.808749 -1.72825 -2.14188 0.811447 -1.73402 -2.10239 0.814127 -1.73974 -2.0629 
0.816787 -1.74543 -2.02339 0.819429 -1.75107 -1.98388 0.822051 -1.75668 -1.94436 
0.82465 -1.76223 -1.90484 0.827223 -1.76773 -1.8653 0.829769 -1.77317 -1.82575 
0.832288 -1.77855 -1.7862 0.834778 -1.78387 -1.74663 0.837239 -1.78913 -1.70705 
0.839666 -1.79432 -1.66747 0.842058 -1.79943 -1.62787 0.844415 -1.80446 -1.58825 
0.846736 -1.80942 -1.54863 0.84902 -1.81431 -1.509 0.851263 -1.8191 -1.46935 
0.853464 -1.8238 -1.42969 0.855622 -1.82841 -1.39001 0.857737 -1.83293 -1.35032 
0.859808 -1.83736 -1.31062 0.861832 -1.84168 -1.27091 0.863806 -1.8459 -1.23118 
0.865732 -1.85002 -1.19144 0.867607 -1.85403 -1.15169 0.869432 -1.85793 -1.11192 
0.871204 -1.86171 -1.07214 0.87292 -1.86538 -1.03234 0.874582 -1.86893 -0.992535 
0.876187 -1.87236 -0.952715 0.877736 -1.87567 -0.912882 0.879226 -1.87886 -0.873037 
0.880656 -1.88191 -0.83318 0.882026 -1.88484 -0.79331 0.883335 -1.88763 -0.75343 
0.884582 -1.8903 -0.713538 0.885766 -1.89283 -0.673636 0.886886 -1.89522 -0.633723 
0.887941 -1.89748 -0.593801 0.88893 -1.89959 -0.553869 0.889855 -1.90157 -0.513928 
0.890712 -1.9034 -0.473979 0.891502 -1.90509 -0.434023 0.892225 -1.90663 -0.394059 
0.892878 -1.90803 -0.354089 0.893464 -1.90928 -0.314113 0.893981 -1.91038 -0.274131 
0.894427 -1.91134 -0.234145 0.894804 -1.91215 -0.194155 0.895111 -1.9128 -0.154162 
0.895348 -1.91331 -0.114166 0.895514 -1.91366 -0.0741676 0.89561 -1.91387 -0.0341682 
0.895635 -1.91392 0.00583174 0.895589 -1.91382 0.0458316 0.895473 -1.91357 0.0858307 
0.895286 -1.91317 0.125828 0.895029 -1.91262 0.165824 0.894702 -1.91193 0.205816 
0.894304 -1.91108 0.245805 0.893837 -1.91008 0.28579 0.8933 -1.90893 0.32577 
0.892695 -1.90764 0.365744 0.892021 -1.9062 0.405713 0.891279 -1.90461 0.445675 
0.890469 -1.90288 0.485629 0.889592 -1.90101 0.525575 0.888648 -1.89899 0.565513 
0.88764 -1.89683 0.605442 0.886566 -1.89454 0.645362 0.885427 -1.89211 0.685272 
0.884224 -1.88954 0.725171 0.882959 -1.88683 0.765059 0.881633 -1.884 0.804937 
0.880246 -1.88103 0.844803 0.878798 -1.87794 0.884657 0.87729 -1.87472 0.924498 
0.875724 -1.87137 0.964327 0.874103 -1.86791 1.00414 0.872426 -1.86432 1.04395 
0.870693 -1.86062 1.08374 0.868905 -1.8568 1.12352 0.867065 -1.85287 1.16328 
0.865175 -1.84883 1.20303 0.863236 -1.84468 1.24277 0.861247 -1.84043 1.28249 
0.859209 -1.83608 1.3222 0.857125 -1.83163 1.3619 0.854997 -1.82708 1.40158 
0.852826 -1.82244 1.44125 0.850613 -1.81771 1.48091 0.848358 -1.81289 1.52055 
0.846063 -1.80799 1.56019 0.843731 -1.803 1.59981 0.841364 -1.79795 1.63941 
0.838962 -1.79281 1.67901 0.836525 -1.78761 1.7186 0.834055 -1.78233 1.75817 
0.831556 -1.77699 1.79773 0.82903 -1.77159 1.83728 0.826476 -1.76613 1.87683 
0.823895 -1.76062 1.91636 0.821288 -1.75505 1.95589 0.818661 -1.74943 1.9954 
0.816014 -1.74377 2.03491 0.813347 -1.73808 2.07441 0.810662 -1.73234 2.11391 
0.807959 -1.72656 2.1534 0.805242 -1.72076 2.19288 0.802514 -1.71493 2.23236 
0.799776 -1.70908 2.27184 0.797027 -1.7032 2.31131 0.794267 -1.6973 2.35077 
0.791502 -1.6914 2.39024 0.788735 -1.68548 2.4297 0.785966 -1.67956 2.46916 
0.783194 -1.67364 2.50863 0.780421 -1.66772 2.54809 0.777649 -1.66179 2.58755 
0.774883 -1.65588 2.62701 0.772124 -1.64999 2.66648 0.769371 -1.6441 2.70595 
0.766625 -1.63824 2.74542 0.763888 -1.63239 2.7849 0.761165 -1.62657 2.82438 
0.758458 -1.62078 2.86386 0.755765 -1.61503 2.90335 0.753087 -1.60931 2.94285 
0.750426 -1.60362 2.98236 0.747787 -1.59798 3.02187 0.745172 -1.59239 3.06139 
0.74258 -1.58685 3.10092 0.740011 -1.58136 3.14046 0.737465 -1.57592 3.18001 
0.734951 -1.57055 3.21956 0.732467 -1.56524 3.25913 0.730015 -1.56 3.29871 
0.727594 -1.55483 3.3383 0.725205 -1.54972 3.3779 0.722853 -1.5447 3.41751 
0.72054 -1.53975 3.45714 0.718265 -1.53489 3.49678 0.71603 -1.53012 3.53643 
0.713834 -1.52542 3.57609 0.711681 -1.52082 3.61577 0.709574 -1.51632 3.65546 
0.707514 -1.51192 3.69516 0.705499 -1.50761 3.73488 0.70353 -1.5034 3.77461 
0.701611 -1.4993 3.81435 0.699744 -1.49531 3.85411 0.697931 -1.49144 3.89388 
0.696169 -1.48767 3.93366 0.69446 -1.48402 3.97346 0.692806 -1.48049 4.01327 
0.69121 -1.47707 4.05309 0.689672 -1.47379 4.09292 0.688193 -1.47063 4.13277 
0.686772 -1.46759 4.17263 0.685409 -1.46468 4.2125 0.684111 -1.4619 4.25238 
0.682875 -1.45926 4.29228 0.681702 -1.45676 4.33218 0.680592 -1.45439 4.3721 
0.679546 -1.45215 4.41202 0.678566 -1.45006 4.45195 0.677653 -1.4481 4.4919 
0.676807 -1.4463 4.53185 0.676027 -1.44463 4.5718 0.675314 -1.44311 4.61177 
0.67467 -1.44173 4.65174 0.674095 -1.4405 4.69172 0.67359 -1.43942 4.7317 
0.673154 -1.43849 4.77168 0.672787 -1.43771 4.81168 0.67249 -1.43707 4.85167 
0.672264 -1.43659 4.89167 0.672108 -1.43626 4.93166 0.672023 -1.43607 4.97166 

