# vtk DataFile Version 5.1
vtk output
ASCII
DATASET STRUCTURED_GRID
DIMENSIONS 255 1 1
POINTS 255 float
2.39001 1.25612 -5 2.39014 1.25619 -4.96 2.39051 1.25639 -4.92 
2.39114 1.25672 -4.88001 2.39202 1.25718 -4.84002 2.39314 1.25777 -4.80004 
2.39452 1.25849 -4.76007 2.39614 1.25934 -4.72011 2.39801 1.26033 -4.68017 
2.40012 1.26144 -4.64024 2.40248 1.26267 -4.60033 2.40508 1.26404 -4.56044 
2.40791 1.26553 -4.52057 2.41098 1.26714 -4.48072 2.41428 1.26888 -4.44089 
2.41782 1.27074 -4.40109 2.42159 1.27272 -4.36132 2.42558 1.27482 -4.32157 
2.42979 1.27703 -4.28186 2.43422 1.27936 -4.24217 2.43887 1.2818 -4.20252 
2.44374 1.28436 -4.1629 2.44881 1.28702 -4.12331 2.45408 1.28979 -4.08375 
2.45955 1.29267 -4.04423 2.46522 1.29565 -4.00475 2.47109 1.29874 -3.96531 
2.47715 1.30192 -3.9259 2.48339 1.3052 -3.88652 2.4898 1.30857 -3.84718 
2.49639 1.31203 -3.80788 2.50316 1.31559 -3.76862 2.5101 1.31924 -3.7294 
2.51719 1.32297 -3.69021 2.52444 1.32677 -3.65105 2.53184 1.33066 -3.61194 
2.53939 1.33463 -3.57286 2.54709 1.33868 -3.53381 2.55492 1.3428 -3.4948 
2.56288 1.34698 -3.45583 2.57097 1.35123 -3.41689 2.57919 1.35555 -3.37798 
2.58753 1.35993 -3.3391 2.59597 1.36437 -3.30026 2.60452 1.36886 -3.26144 
2.61317 1.37341 -3.22265 2.62192 1.37801 -3.18389 2.63078 1.38267 -3.14517 
2.63971 1.38736 -3.10646 2.64872 1.3921 -3.06778 2.65781 1.39687 -3.02912 
2.66697 1.40168 -2.99048 2.6762 1.40654 -2.95186 2.6855 1.41142 -2.91326 
2.69484 1.41633 -2.87468 2.70423 1.42127 -2.83611 2.71367 1.42623 -2.79756 
2.72316 1.43121 -2.75902 2.73268 1.43622 -2.7205 2.74223 1.44124 -2.68198 
2.75179 1.44626 -2.64347 2.76138 1.4513 -2.60496 2.77099 1.45635 -2.56646 
2.78061 1.46141 -2.52797 2.79023 1.46647 -2.48947 2.79984 1.47152 -2.45097 
2.80945 1.47657 -2.41247 2.81905 1.48161 -2.37397 2.82864 1.48665 -2.33547 
2.8382 1.49168 -2.29695 2.84773 1.49669 -2.25843 2.85722 1.50168 -2.21989 
2.86668 1.50665 -2.18135 2.87611 1.5116 -2.14279 2.88548 1.51653 -2.10422 
2.8948 1.52142 -2.06563 2.90405 1.52629 -2.02702 2.91324 1.53112 -1.98839 
2.92237 1.53592 -1.94974 2.93143 1.54068 -1.91107 2.9404 1.54539 -1.87238 
2.94928 1.55006 -1.83366 2.95808 1.55468 -1.79491 2.96678 1.55926 -1.75614 
2.97539 1.56378 -1.71734 2.98389 1.56825 -1.67851 2.99227 1.57265 -1.63964 
3.00054 1.577 -1.60075 3.00869 1.58128 -1.56182 3.01672 1.5855 -1.52287 
3.02462 1.58965 -1.48387 3.03238 1.59373 -1.44485 3.03999 1.59773 -1.40578 
3.04746 1.60166 -1.36668 3.05479 1.60551 -1.32755 3.06196 1.60928 -1.28838 
3.06897 1.61297 -1.24917 3.07581 1.61656 -1.20992 3.08249 1.62007 -1.17064 
3.08899 1.62349 -1.13132 3.09532 1.62681 -1.09197 3.10146 1.63004 -1.05257 
3.10741 1.63317 -1.01314 3.11318 1.6362 -0.973675 3.11875 1.63913 -0.934173 
3.12412 1.64195 -0.894636 3.12929 1.64467 -0.855064 3.13424 1.64727 -0.815458 
3.13899 1.64977 -0.775819 3.14352 1.65215 -0.736148 3.14784 1.65442 -0.696447 
3.15194 1.65657 -0.656716 3.15581 1.6586 -0.616955 3.15945 1.66052 -0.577167 
3.16286 1.66231 -0.537354 3.16604 1.66398 -0.497515 3.16899 1.66553 -0.457654 
3.1717 1.66695 -0.417771 3.17416 1.66825 -0.377868 3.17638 1.66942 -0.337947 
3.17837 1.67046 -0.29801 3.1801 1.67137 -0.258058 3.18159 1.67216 -0.218093 
3.18283 1.67281 -0.178118 3.18382 1.67333 -0.138133 3.18456 1.67372 -0.0981422 
3.18505 1.67398 -0.058146 3.18529 1.6741 -0.018147 3.18528 1.6741 0.021853 
3.18502 1.67396 0.0618519 3.1845 1.67369 0.101848 3.18374 1.67328 0.141838 
3.18273 1.67275 0.181822 3.18146 1.67209 0.221797 3.17995 1.67129 0.26176 
3.17819 1.67037 0.301711 3.17619 1.66932 0.341647 3.17394 1.66814 0.381566 
3.17145 1.66683 0.421467 3.16873 1.66539 0.461348 3.16576 1.66383 0.501208 
3.16256 1.66215 0.541043 3.15912 1.66035 0.580855 3.15546 1.65842 0.62064 
3.15157 1.65638 0.660398 3.14745 1.65421 0.700127 3.14311 1.65193 0.739825 
3.13856 1.64954 0.779493 3.13379 1.64703 0.819129 3.12882 1.64442 0.858732 
3.12363 1.64169 0.898301 3.11824 1.63886 0.937834 3.11265 1.63592 0.977333 
3.10687 1.63289 1.0168 3.1009 1.62975 1.05622 3.09474 1.62651 1.09561 
3.0884 1.62318 1.13497 3.08188 1.61975 1.17428 3.07519 1.61623 1.21356 
3.06833 1.61263 1.2528 3.06131 1.60894 1.29201 3.05412 1.60516 1.33118 
3.04678 1.6013 1.37031 3.03929 1.59737 1.4094 3.03166 1.59336 1.44846 
3.02389 1.58927 1.48749 3.01598 1.58512 1.52648 3.00794 1.58089 1.56543 
2.99978 1.5766 1.60436 2.9915 1.57225 1.64325 2.9831 1.56784 1.68211 
2.9746 1.56336 1.72093 2.96598 1.55884 1.75973 2.95727 1.55426 1.7985 
2.94846 1.54963 1.83725 2.93957 1.54496 1.87596 2.93059 1.54024 1.91466 
2.92153 1.53547 1.95332 2.91239 1.53067 1.99197 2.9032 1.52584 2.0306 
2.89394 1.52097 2.0692 2.88462 1.51607 2.10779 2.87524 1.51114 2.14636 
2.86581 1.50619 2.18492 2.85635 1.50121 2.22347 2.84685 1.49622 2.262 
2.83732 1.49121 2.30052 2.82775 1.48619 2.33904 2.81816 1.48114 2.37754 
2.80856 1.4761 2.41604 2.79895 1.47105 2.45454 2.78934 1.466 2.49304 
2.77972 1.46094 2.53153 2.7701 1.45588 2.57003 2.76049 1.45084 2.60853 
2.7509 1.4458 2.64703 2.74134 1.44077 2.68555 2.7318 1.43576 2.72407 
2.72227 1.43075 2.76259 2.71279 1.42577 2.80113 2.70336 1.42081 2.83969 
2.69397 1.41588 2.87826 2.68464 1.41097 2.91684 2.67535 1.40609 2.95544 
2.66612 1.40124 2.99406 2.65696 1.39643 3.0327 2.64789 1.39166 3.07136 
2.63888 1.38692 3.11005 2.62996 1.38223 3.14875 2.62111 1.37758 3.18748 
2.61237 1.37299 3.22625 2.60373 1.36845 3.26504 2.59519 1.36396 3.30386 
2.58675 1.35953 3.3427 2.57842 1.35515 3.38158 2.57021 1.35083 3.42049 
2.56214 1.34659 3.45944 2.55419 1.34241 3.49842 2.54638 1.3383 3.53743 
2.53869 1.33426 3.57648 2.53115 1.3303 3.61556 2.52376 1.32642 3.65468 
2.51653 1.32262 3.69384 2.50945 1.3189 3.73303 2.50253 1.31526 3.77226 
2.49577 1.31171 3.81152 2.4892 1.30825 3.85083 2.4828 1.30489 3.89017 
2.47658 1.30162 3.92955 2.47054 1.29845 3.96896 2.46469 1.29537 4.00841 
2.45903 1.2924 4.0479 2.45358 1.28953 4.08742 2.44833 1.28677 4.12698 
2.44328 1.28412 4.16657 2.43843 1.28157 4.20619 2.4338 1.27914 4.24585 
2.42939 1.27682 4.28553 2.4252 1.27462 4.32525 2.42123 1.27253 4.365 
2.41748 1.27056 4.40478 2.41396 1.26871 4.44458 2.41068 1.26699 4.48441 
2.40764 1.26539 4.52426 2.40483 1.26391 4.56413 2.40225 1.26255 4.60403 
2.39991 1.26133 4.64394 2.39782 1.26023 4.68387 2.39598 1.25926 4.72382 
2.39438 1.25842 4.76377 2.39303 1.25771 4.80375 2.39192 1.25713 4.84373 
2.39107 1.25668 4.88371 2.39047 1.25636 4.92371 2.39011 1.25618 4.96371 

