# vtk DataFile Version 5.1
vtk output
ASCII
DATASET STRUCTURED_GRID
DIMENSIONS 252 1 1
POINTS 252 float
0.497673 1.58666 -5 0.497699 1.58674 -4.96 0.497778 1.58699 -4.92 
0.497908 1.58741 -4.88 0.498091 1.58799 -4.84001 0.498326 1.58874 -4.80002 
0.498613 1.58966 -4.76003 0.498951 1.59073 -4.72004 0.49934 1.59197 -4.68006 
0.49978 1.59338 -4.64009 0.500272 1.59495 -4.60013 0.500814 1.59668 -4.56017 
0.501406 1.59856 -4.52022 0.502047 1.60061 -4.48027 0.502737 1.60281 -4.44034 
0.503477 1.60517 -4.40042 0.504266 1.60768 -4.3605 0.505101 1.61034 -4.3206 
0.505983 1.61315 -4.28071 0.506912 1.61611 -4.24083 0.507887 1.61922 -4.20096 
0.508908 1.62248 -4.16111 0.509973 1.62587 -4.12127 0.511081 1.62941 -4.08144 
0.512231 1.63307 -4.04162 0.513425 1.63688 -4.00182 0.514662 1.64082 -3.96204 
0.515938 1.64489 -3.92226 0.517253 1.64908 -3.88251 0.518606 1.6534 -3.84276 
0.519999 1.65784 -3.80303 0.521431 1.6624 -3.76332 0.522897 1.66708 -3.72362 
0.524398 1.67186 -3.68394 0.525932 1.67675 -3.64427 0.527501 1.68176 -3.60461 
0.529103 1.68687 -3.56497 0.530737 1.69207 -3.52535 0.532399 1.69737 -3.48573 
0.534089 1.70276 -3.44614 0.535809 1.70824 -3.40655 0.537557 1.71382 -3.36698 
0.539332 1.71948 -3.32742 0.541129 1.72521 -3.28787 0.542949 1.73101 -3.24834 
0.544793 1.73689 -3.20882 0.546659 1.74284 -3.16931 0.548547 1.74886 -3.12981 
0.550452 1.75493 -3.09032 0.552374 1.76106 -3.05084 0.554313 1.76724 -3.01136 
0.556269 1.77348 -2.9719 0.558242 1.77977 -2.93245 0.560225 1.78609 -2.893 
0.56222 1.79245 -2.85356 0.564225 1.79884 -2.81412 0.566242 1.80527 -2.7747 
0.568269 1.81173 -2.73527 0.570301 1.81821 -2.69585 0.572338 1.82471 -2.65644 
0.57438 1.83122 -2.61702 0.576426 1.83774 -2.57761 0.578477 1.84428 -2.5382 
0.580528 1.85082 -2.4988 0.582578 1.85735 -2.45939 0.584626 1.86388 -2.41998 
0.586672 1.87041 -2.38056 0.588716 1.87692 -2.34115 0.590755 1.88342 -2.30174 
0.592786 1.8899 -2.26232 0.59481 1.89635 -2.22289 0.596825 1.90278 -2.18346 
0.598833 1.90918 -2.14403 0.600829 1.91554 -2.10459 0.602812 1.92186 -2.06514 
0.604781 1.92814 -2.02569 0.606735 1.93437 -1.98622 0.608676 1.94056 -1.94675 
0.6106 1.94669 -1.90727 0.612504 1.95276 -1.86778 0.614389 1.95877 -1.82828 
0.616253 1.96472 -1.78877 0.618097 1.97059 -1.74925 0.619919 1.9764 -1.70971 
0.621717 1.98213 -1.67017 0.623488 1.98778 -1.63061 0.625233 1.99334 -1.59103 
0.626953 1.99883 -1.55145 0.628645 2.00422 -1.51185 0.630307 2.00952 -1.47224 
0.631938 2.01472 -1.43261 0.633537 2.01982 -1.39297 0.635105 2.02481 -1.35331 
0.63664 2.02971 -1.31364 0.63814 2.03449 -1.27396 0.639604 2.03916 -1.23426 
0.641032 2.04371 -1.19454 0.642423 2.04815 -1.15481 0.643777 2.05246 -1.11507 
0.645092 2.05665 -1.07531 0.646365 2.06072 -1.03554 0.647598 2.06465 -0.995753 
0.64879 2.06845 -0.955952 0.64994 2.07211 -0.916137 0.651047 2.07564 -0.876308 
0.65211 2.07903 -0.836466 0.653127 2.08227 -0.796611 0.6541 2.08537 -0.756743 
0.655027 2.08833 -0.716863 0.655908 2.09114 -0.676972 0.656741 2.09379 -0.637069 
0.657526 2.0963 -0.597155 0.658263 2.09865 -0.557231 0.658951 2.10084 -0.517297 
0.659591 2.10288 -0.477354 0.66018 2.10476 -0.437402 0.660719 2.10648 -0.397443 
0.661207 2.10803 -0.357476 0.661645 2.10943 -0.317503 0.662032 2.11066 -0.277524 
0.662368 2.11173 -0.23754 0.662651 2.11264 -0.197551 0.662883 2.11338 -0.157558 
0.663062 2.11395 -0.117563 0.66319 2.11436 -0.0775651 0.663265 2.1146 -0.0375659 
0.663288 2.11467 0.00243407 0.663259 2.11458 0.0424339 0.663177 2.11431 0.082433 
0.663043 2.11389 0.122431 0.662857 2.11329 0.162426 0.662619 2.11254 0.202418 
0.66233 2.11161 0.242406 0.661988 2.11052 0.28239 0.661595 2.10927 0.322368 
0.661151 2.10785 0.362341 0.660656 2.10628 0.402306 0.660111 2.10454 0.442265 
0.659516 2.10264 0.482215 0.65887 2.10058 0.522157 0.658176 2.09837 0.56209 
0.657433 2.096 0.602013 0.656642 2.09348 0.641926 0.655803 2.09081 0.681827 
0.654917 2.08798 0.721717 0.653984 2.085 0.761596 0.653006 2.08189 0.801462 
0.651983 2.07862 0.841316 0.650915 2.07522 0.881156 0.649803 2.07167 0.920983 
0.648647 2.06799 0.960796 0.647451 2.06418 1.0006 0.646213 2.06023 1.04038 
0.644934 2.05615 1.08015 0.643614 2.05194 1.11991 0.642256 2.04761 1.15965 
0.64086 2.04316 1.19938 0.639428 2.0386 1.23909 0.63796 2.03392 1.27879 
0.636455 2.02912 1.31847 0.634916 2.02421 1.35814 0.633344 2.0192 1.39779 
0.631741 2.01409 1.43743 0.630106 2.00888 1.47706 0.628441 2.00357 1.51667 
0.626745 1.99816 1.55627 0.625023 1.99267 1.59585 0.623274 1.9871 1.63542 
0.621499 1.98144 1.67498 0.619699 1.9757 1.71452 0.617874 1.96988 1.75406 
0.616027 1.964 1.79358 0.614161 1.95804 1.83309 0.612274 1.95203 1.87259 
0.610367 1.94595 1.91208 0.60844 1.93981 1.95156 0.606498 1.93362 1.99103 
0.604542 1.92738 2.03049 0.602571 1.9211 2.06994 0.600587 1.91477 2.10939 
0.598589 1.9084 2.14883 0.59658 1.902 2.18826 0.594564 1.89557 2.22769 
0.59254 1.88911 2.26711 0.590507 1.88263 2.30653 0.588467 1.87613 2.34595 
0.586423 1.86961 2.38536 0.584376 1.86309 2.42477 0.582328 1.85656 2.46418 
0.580279 1.85002 2.50359 0.578228 1.84348 2.543 0.576177 1.83695 2.58241 
0.574131 1.83042 2.62182 0.57209 1.82392 2.66124 0.570053 1.81742 2.70065 
0.568022 1.81095 2.74007 0.565996 1.80449 2.77949 0.563981 1.79806 2.81892 
0.561976 1.79167 2.85836 0.559983 1.78532 2.8978 0.558001 1.779 2.93725 
0.55603 1.77272 2.9767 0.554076 1.76648 3.01617 0.552139 1.76031 3.05564 
0.550219 1.75419 3.09512 0.548316 1.74812 3.13461 0.546431 1.74211 3.17411 
0.544567 1.73617 3.21363 0.542726 1.7303 3.25315 0.540909 1.72451 3.29269 
0.539114 1.71878 3.33224 0.537343 1.71314 3.37179 0.535598 1.70757 3.41137 
0.533882 1.7021 3.45095 0.532195 1.69672 3.49056 0.530537 1.69143 3.53017 
0.528907 1.68624 3.5698 0.527308 1.68114 3.60944 0.525743 1.67615 3.6491 
0.524213 1.67127 3.68877 0.522717 1.6665 3.72845 0.521254 1.66184 3.76815 
0.519828 1.65729 3.80787 0.51844 1.65287 3.8476 0.517091 1.64857 3.88734 
0.515781 1.64439 3.9271 0.514509 1.64034 3.96688 0.513278 1.63641 4.00667 
0.512089 1.63262 4.04647 0.510944 1.62897 4.08628 0.509841 1.62545 4.12611 
0.508782 1.62208 4.16596 0.507766 1.61884 4.20581 0.506796 1.61575 4.24568 
0.505874 1.6128 4.28556 0.504997 1.61001 4.32546 0.504168 1.60737 4.36536 
0.503385 1.60487 4.40527 0.502651 1.60253 4.4452 0.501966 1.60035 4.48513 
0.501332 1.59832 4.52508 0.500746 1.59646 4.56503 0.500209 1.59475 4.60499 
0.499724 1.5932 4.64496 0.49929 1.59181 4.68493 0.498907 1.59059 4.72491 
0.498575 1.58954 4.76489 0.498295 1.58864 4.80488 0.498066 1.58791 4.84488 
0.49789 1.58735 4.88487 0.497765 1.58695 4.92487 0.497694 1.58673 4.96487 

