# vtk DataFile Version 5.1
vtk output
ASCII
DATASET STRUCTURED_GRID
DIMENSIONS 252 1 1
POINTS 252 float
1.33206 0.486466 -5 1.33213 0.486492 -4.96 1.33234 0.486568 -4.92 
1.33269 0.486696 -4.88 1.33318 0.486874 -4.84001 1.33381 0.487104 -4.80001 
1.33457 0.487385 -4.76002 1.33548 0.487715 -4.72003 1.33652 0.488095 -4.68005 
1.3377 0.488526 -4.64007 1.33902 0.489007 -4.60009 1.34047 0.489537 -4.56012 
1.34205 0.490116 -4.52016 1.34377 0.490743 -4.4802 1.34562 0.491418 -4.44025 
1.3476 0.492142 -4.4003 1.34971 0.492914 -4.36037 1.35195 0.493731 -4.32044 
1.35431 0.494593 -4.28052 1.3568 0.495502 -4.2406 1.35942 0.496456 -4.2007 
1.36215 0.497456 -4.16081 1.36501 0.498498 -4.12092 1.36798 0.499583 -4.08105 
1.37106 0.500709 -4.04118 1.37426 0.501878 -4.00133 1.37758 0.50309 -3.96148 
1.381 0.50434 -3.92165 1.38453 0.505628 -3.88183 1.38816 0.506954 -3.84201 
1.3919 0.508318 -3.80221 1.39574 0.509721 -3.76242 1.39967 0.511158 -3.72264 
1.4037 0.512629 -3.68287 1.40782 0.514133 -3.64311 1.41203 0.515671 -3.60337 
1.41633 0.517243 -3.56363 1.42072 0.518844 -3.5239 1.42518 0.520474 -3.48419 
1.42972 0.522132 -3.44448 1.43434 0.523819 -3.40478 1.43904 0.525535 -3.3651 
1.44381 0.527275 -3.32542 1.44863 0.529039 -3.28575 1.45353 0.530825 -3.24609 
1.45848 0.532634 -3.20644 1.4635 0.534466 -3.1668 1.46857 0.536319 -3.12716 
1.47369 0.538189 -3.08754 1.47885 0.540075 -3.04792 1.48407 0.541979 -3.0083 
1.48933 0.543899 -2.9687 1.49463 0.545835 -2.9291 1.49996 0.547782 -2.8895 
1.50532 0.54974 -2.84991 1.51071 0.551709 -2.81033 1.51613 0.553689 -2.77075 
1.52158 0.555679 -2.73117 1.52705 0.557674 -2.69159 1.53252 0.559673 -2.65202 
1.53801 0.561678 -2.61245 1.54351 0.563687 -2.57288 1.54902 0.5657 -2.53331 
1.55454 0.567713 -2.49375 1.56004 0.569724 -2.45418 1.56555 0.571733 -2.41461 
1.57104 0.573741 -2.37504 1.57654 0.575747 -2.33547 1.58201 0.577747 -2.2959 
1.58747 0.579739 -2.25632 1.5929 0.581723 -2.21674 1.59831 0.5837 -2.17716 
1.6037 0.585668 -2.13757 1.60906 0.587625 -2.09798 1.61438 0.589568 -2.05838 
1.61966 0.591497 -2.01878 1.62491 0.593412 -1.97917 1.63011 0.595313 -1.93956 
1.63527 0.597197 -1.89994 1.64038 0.599062 -1.86031 1.64543 0.600906 -1.82067 
1.65042 0.602731 -1.78103 1.65536 0.604535 -1.74137 1.66024 0.606317 -1.70171 
1.66505 0.608074 -1.66204 1.66979 0.609805 -1.62236 1.67447 0.611511 -1.58267 
1.67906 0.613191 -1.54297 1.68359 0.614843 -1.50326 1.68803 0.616465 -1.46354 
1.69239 0.618057 -1.42381 1.69666 0.619617 -1.38407 1.70085 0.621146 -1.34432 
1.70495 0.622642 -1.30456 1.70895 0.624104 -1.26479 1.71285 0.62553 -1.225 
1.71666 0.62692 -1.18521 1.72036 0.628273 -1.14541 1.72397 0.62959 -1.10559 
1.72747 0.630868 -1.06576 1.73086 0.632105 -1.02593 1.73413 0.633302 -0.98608 
1.7373 0.634459 -0.946222 1.74036 0.635575 -0.906354 1.74329 0.636647 -0.866477 
1.74611 0.637676 -0.826589 1.74881 0.638661 -0.786692 1.75138 0.639601 -0.746786 
1.75384 0.640497 -0.706872 1.75616 0.641347 -0.666949 1.75836 0.64215 -0.627017 
1.76043 0.642906 -0.587078 1.76237 0.643615 -0.547131 1.76418 0.644276 -0.507178 
1.76586 0.644889 -0.467218 1.76741 0.645453 -0.427251 1.76881 0.645967 -0.38728 
1.77009 0.646432 -0.347303 1.77122 0.646848 -0.307321 1.77223 0.647213 -0.267335 
1.77309 0.647528 -0.227346 1.77381 0.647792 -0.187353 1.7744 0.648006 -0.147358 
1.77484 0.648168 -0.107361 1.77515 0.64828 -0.0673621 1.77531 0.648341 -0.0273625 
1.77534 0.64835 0.0126375 1.77522 0.648308 0.0526373 1.77497 0.648215 0.0926364 
1.77458 0.648071 0.132634 1.77404 0.647877 0.17263 1.77337 0.647631 0.212624 
1.77256 0.647335 0.252614 1.77161 0.646988 0.292602 1.77052 0.646591 0.332585 
1.7693 0.646144 0.372564 1.76794 0.645648 0.412538 1.76645 0.645102 0.452506 
1.76482 0.644507 0.492468 1.76305 0.643864 0.532424 1.76116 0.643172 0.572374 
1.75914 0.642434 0.612315 1.75699 0.641648 0.65225 1.75471 0.640815 0.692176 
1.7523 0.639936 0.732094 1.74977 0.639012 0.772003 1.74712 0.638044 0.811903 
1.74434 0.637031 0.851794 1.74145 0.635974 0.891676 1.73844 0.634874 0.931547 
1.73531 0.633733 0.971408 1.73208 0.632551 1.01126 1.72873 0.631328 1.0511 
1.72527 0.630065 1.09093 1.7217 0.628762 1.13075 1.71803 0.627422 1.17056 
1.71426 0.626046 1.21036 1.7104 0.624633 1.25014 1.70643 0.623185 1.28992 
1.70237 0.621701 1.32969 1.69821 0.620183 1.36944 1.69397 0.618635 1.40919 
1.68965 0.617055 1.44892 1.68523 0.615444 1.48864 1.68074 0.613803 1.52836 
1.67617 0.612133 1.56806 1.67152 0.610436 1.60775 1.66681 0.608714 1.64744 
1.66202 0.606967 1.68711 1.65717 0.605194 1.72677 1.65225 0.603397 1.76643 
1.64727 0.60158 1.80608 1.64224 0.599743 1.84572 1.63716 0.597886 1.88535 
1.63202 0.596009 1.92497 1.62683 0.594114 1.96459 1.6216 0.592204 2.0042 
1.61633 0.59028 2.04381 1.61102 0.588342 2.0834 1.60568 0.58639 2.123 
1.6003 0.584425 2.16259 1.5949 0.582452 2.20217 1.58947 0.58047 2.24175 
1.58402 0.578481 2.28133 1.57855 0.576484 2.3209 1.57307 0.57448 2.36047 
1.56757 0.572472 2.40004 1.56207 0.570463 2.43961 1.55656 0.568453 2.47918 
1.55105 0.566441 2.51875 1.54554 0.564427 2.55831 1.54003 0.562417 2.59788 
1.53454 0.560411 2.63745 1.52906 0.558409 2.67703 1.52359 0.556413 2.7166 
1.51814 0.554421 2.75618 1.51271 0.552437 2.79576 1.5073 0.550464 2.83534 
1.50193 0.548502 2.87493 1.49659 0.546551 2.91452 1.49127 0.544611 2.95412 
1.486 0.542684 2.99372 1.48077 0.540774 3.03333 1.47559 0.538881 3.07295 
1.47045 0.537005 3.11258 1.46536 0.535146 3.15221 1.46032 0.533306 3.19185 
1.45534 0.531488 3.23149 1.45043 0.529694 3.27115 1.44558 0.527922 3.31082 
1.44079 0.526173 3.35049 1.43606 0.524447 3.39017 1.43141 0.52275 3.42986 
1.42685 0.521081 3.46957 1.42235 0.519441 3.50928 1.41794 0.517829 3.549 
1.4136 0.516245 3.58874 1.40936 0.514695 3.62848 1.40521 0.513179 3.66824 
1.40114 0.511696 3.708 1.39718 0.510246 3.74778 1.3933 0.50883 3.78756 
1.38952 0.507451 3.82736 1.38585 0.506111 3.86717 1.38229 0.504809 3.90699 
1.37883 0.503545 3.94682 1.37547 0.502319 3.98666 1.37223 0.501135 4.02651 
1.3691 0.499992 4.06637 1.36609 0.498893 4.10624 1.36319 0.497835 4.14612 
1.36041 0.496819 4.18601 1.35775 0.495848 4.22591 1.35522 0.494923 4.26582 
1.35281 0.494043 4.30574 1.35052 0.493209 4.34567 1.34836 0.492421 4.3856 
1.34633 0.491679 4.42554 1.34444 0.490986 4.46549 1.34267 0.490341 4.50545 
1.34104 0.489745 4.54541 1.33954 0.489197 4.58538 1.33817 0.488697 4.62535 
1.33694 0.488248 4.66533 1.33585 0.487849 4.70531 1.33489 0.4875 4.7453 
1.33407 0.487202 4.78529 1.33339 0.486953 4.82528 1.33285 0.486756 4.86528 
1.33245 0.486609 4.90528 1.33219 0.486514 4.94528 1.33207 0.48647 4.98528 

