# vtk DataFile Version 5.1
vtk output
ASCII
DATASET STRUCTURED_GRID
DIMENSIONS 252 1 1
POINTS 252 float
-1.39034 0.573911 -5 -1.39041 0.573941 -4.96 -1.39063 0.574032 -4.92 
-1.39099 0.574182 -4.88 -1.3915 0.574393 -4.84001 -1.39216 0.574664 -4.80001 
-1.39296 0.574995 -4.76002 -1.39391 0.575384 -4.72004 -1.39499 0.575833 -4.68005 
-1.39622 0.576341 -4.64007 -1.3976 0.576908 -4.6001 -1.39911 0.577534 -4.56014 
-1.40077 0.578217 -4.52018 -1.40256 0.578956 -4.48022 -1.40449 0.579752 -4.44028 
-1.40656 0.580606 -4.40034 -1.40876 0.581516 -4.36041 -1.4111 0.58248 -4.32049 
-1.41356 0.583498 -4.28058 -1.41616 0.584569 -4.24068 -1.41888 0.585694 -4.20079 
-1.42174 0.586874 -4.16091 -1.42472 0.588103 -4.12104 -1.42781 0.589381 -4.08118 
-1.43103 0.590709 -4.04133 -1.43437 0.592088 -4.00149 -1.43783 0.593516 -3.96167 
-1.4414 0.59499 -3.92186 -1.44508 0.596508 -3.88205 -1.44887 0.598071 -3.84226 
-1.45276 0.59968 -3.80249 -1.45677 0.601334 -3.76272 -1.46087 0.603028 -3.72297 
-1.46507 0.604761 -3.68323 -1.46937 0.606534 -3.6435 -1.47376 0.608347 -3.60378 
-1.47825 0.610199 -3.56408 -1.48282 0.612087 -3.52439 -1.48747 0.614007 -3.4847 
-1.49221 0.615961 -3.44503 -1.49702 0.617949 -3.40537 -1.50192 0.619971 -3.36573 
-1.50689 0.622022 -3.32609 -1.51192 0.6241 -3.28646 -1.51702 0.626204 -3.24684 
-1.52218 0.628336 -3.20723 -1.52741 0.630495 -3.16764 -1.5327 0.632678 -3.12805 
-1.53804 0.63488 -3.08847 -1.54342 0.637103 -3.04889 -1.54885 0.639346 -3.00933 
-1.55434 0.641608 -2.96977 -1.55986 0.643889 -2.93022 -1.56542 0.646183 -2.89067 
-1.57101 0.64849 -2.85113 -1.57663 0.650809 -2.8116 -1.58228 0.653142 -2.77207 
-1.58795 0.655486 -2.73254 -1.59365 0.657836 -2.69302 -1.59936 0.660192 -2.6535 
-1.60508 0.662553 -2.61398 -1.61081 0.66492 -2.57446 -1.61656 0.667292 -2.53495 
-1.6223 0.669663 -2.49544 -1.62804 0.672033 -2.45592 -1.63378 0.6744 -2.4164 
-1.63951 0.676766 -2.37689 -1.64523 0.67913 -2.33737 -1.65094 0.681486 -2.29785 
-1.65663 0.683834 -2.25833 -1.66229 0.686172 -2.2188 -1.66794 0.688502 -2.17927 
-1.67356 0.690821 -2.13973 -1.67914 0.693128 -2.10019 -1.68469 0.695418 -2.06064 
-1.6902 0.697692 -2.02109 -1.69567 0.69995 -1.98153 -1.7011 0.702191 -1.94196 
-1.70648 0.704412 -1.90239 -1.71181 0.70661 -1.86281 -1.71708 0.708785 -1.82322 
-1.72229 0.710937 -1.78362 -1.72744 0.713065 -1.74401 -1.73254 0.715167 -1.70439 
-1.73756 0.717239 -1.66476 -1.74251 0.719282 -1.62512 -1.74738 0.721295 -1.58547 
-1.75218 0.723276 -1.54581 -1.75691 0.725227 -1.50613 -1.76155 0.727141 -1.46645 
-1.7661 0.72902 -1.42675 -1.77056 0.730861 -1.38705 -1.77493 0.732666 -1.34733 
-1.77921 0.734434 -1.3076 -1.7834 0.73616 -1.26785 -1.78748 0.737844 -1.2281 
-1.79145 0.739486 -1.18833 -1.79533 0.741086 -1.14855 -1.7991 0.742642 -1.10876 
-1.80276 0.744152 -1.06895 -1.8063 0.745615 -1.02914 -1.80973 0.74703 -0.989311 
-1.81304 0.748398 -0.949472 -1.81624 0.749718 -0.909621 -1.81931 0.750987 -0.86976 
-1.82226 0.752204 -0.829887 -1.82509 0.75337 -0.790004 -1.82778 0.754484 -0.750111 
-1.83036 0.755545 -0.710208 -1.8328 0.756552 -0.670295 -1.8351 0.757504 -0.630373 
-1.83727 0.7584 -0.590442 -1.83931 0.759241 -0.550502 -1.84121 0.760025 -0.510555 
-1.84297 0.760753 -0.470601 -1.8446 0.761423 -0.430639 -1.84608 0.762035 -0.390671 
-1.84742 0.762589 -0.350698 -1.84862 0.763084 -0.310719 -1.84968 0.76352 -0.270735 
-1.85059 0.763896 -0.230747 -1.85136 0.764213 -0.190756 -1.85198 0.76447 -0.150762 
-1.85246 0.764667 -0.110765 -1.85279 0.764804 -0.0707666 -1.85297 0.764881 -0.0307671 
-1.85301 0.764897 0.00923286 -1.85291 0.764853 0.0492327 -1.85265 0.764748 0.0892318 
-1.85225 0.764584 0.129229 -1.85171 0.764359 0.169225 -1.85102 0.764074 0.209218 
-1.85018 0.76373 0.249208 -1.84921 0.763326 0.289194 -1.84808 0.762862 0.329175 
-1.84682 0.76234 0.369152 -1.84541 0.76176 0.409123 -1.84386 0.761121 0.449088 
-1.84218 0.760424 0.489046 -1.84035 0.75967 0.528997 -1.83839 0.758859 0.568941 
-1.83629 0.757993 0.608877 -1.83405 0.757071 0.648803 -1.83169 0.756094 0.688721 
-1.82918 0.755061 0.72863 -1.82656 0.753976 0.768529 -1.8238 0.752838 0.808417 
-1.82092 0.751649 0.848296 -1.81791 0.750407 0.888163 -1.81478 0.749114 0.928019 
-1.81153 0.747773 0.967864 -1.80816 0.746383 1.0077 -1.80468 0.744945 1.04752 
-1.80108 0.743461 1.08733 -1.79737 0.741929 1.12713 -1.79355 0.740353 1.16691 
-1.78963 0.738734 1.20669 -1.7856 0.737072 1.24645 -1.78148 0.735368 1.2862 
-1.77725 0.733623 1.32594 -1.77292 0.731838 1.36566 -1.76851 0.730016 1.40538 
-1.76401 0.728157 1.44508 -1.75942 0.726262 1.48477 -1.75474 0.724331 1.52445 
-1.74998 0.722366 1.56412 -1.74514 0.72037 1.60377 -1.74023 0.718343 1.64342 
-1.73525 0.716287 1.68305 -1.7302 0.7142 1.72268 -1.72507 0.712086 1.76229 
-1.71989 0.709947 1.8019 -1.71465 0.707784 1.84149 -1.70936 0.705599 1.88108 
-1.70401 0.70339 1.92066 -1.6986 0.701158 1.96023 -1.69315 0.69891 1.99979 
-1.68766 0.696645 2.03935 -1.68214 0.694363 2.0789 -1.67657 0.692065 2.11845 
-1.67096 0.689752 2.15798 -1.66533 0.687427 2.19752 -1.65968 0.685094 2.23705 
-1.65401 0.682751 2.27657 -1.64831 0.680399 2.3161 -1.64259 0.678039 2.35561 
-1.63686 0.675674 2.39513 -1.63113 0.673307 2.43465 -1.62539 0.670939 2.47416 
-1.61965 0.668569 2.51368 -1.6139 0.666197 2.55319 -1.60816 0.663827 2.59271 
-1.60243 0.661463 2.63222 -1.59672 0.659104 2.67174 -1.59102 0.656751 2.71126 
-1.58533 0.654403 2.75079 -1.57966 0.652064 2.79032 -1.57403 0.649737 2.82985 
-1.56842 0.647424 2.86939 -1.56285 0.645123 2.90893 -1.55731 0.642835 2.94848 
-1.5518 0.640562 2.98803 -1.54634 0.638308 3.02759 -1.54093 0.636075 3.06716 
-1.53557 0.633861 3.10674 -1.53025 0.631668 3.14632 -1.52499 0.629495 3.18592 
-1.51979 0.627349 3.22552 -1.51466 0.625229 3.26513 -1.50959 0.623137 3.30475 
-1.50459 0.621072 3.34439 -1.49965 0.619033 3.38403 -1.49479 0.617027 3.42368 
-1.49001 0.615055 3.46334 -1.48531 0.613116 3.50302 -1.4807 0.611211 3.54271 
-1.47616 0.609339 3.58241 -1.47172 0.607505 3.62212 -1.46737 0.605711 3.66184 
-1.46312 0.603956 3.70157 -1.45897 0.602241 3.74132 -1.45491 0.600565 3.78108 
-1.45095 0.598932 3.82085 -1.4471 0.597344 3.86063 -1.44337 0.595801 3.90043 
-1.43974 0.594304 3.94023 -1.43622 0.592851 3.98005 -1.43281 0.591445 4.01988 
-1.42953 0.59009 4.05972 -1.42637 0.588785 4.09958 -1.42333 0.587529 4.13944 
-1.42041 0.586323 4.17932 -1.41761 0.585168 4.2192 -1.41494 0.584068 4.2591 
-1.41241 0.583021 4.299 -1.41 0.582029 4.33892 -1.40773 0.58109 4.37884 
-1.40559 0.580205 4.41878 -1.40358 0.579378 4.45872 -1.40172 0.578608 4.49867 
-1.39999 0.577895 4.53862 -1.3984 0.577238 4.57859 -1.39695 0.576639 4.61855 
-1.39564 0.576099 4.65853 -1.39447 0.575619 4.69851 -1.39345 0.575197 4.73849 
-1.39257 0.574835 4.77848 -1.39184 0.574531 4.81848 -1.39125 0.574288 4.85847 
-1.39081 0.574105 4.89847 -1.39051 0.573983 4.93847 -1.39036 0.57392 4.97847 

