# vtk DataFile Version 3.0
Structured hexahedral tube mesh
ASCII
DATASET STRUCTURED_GRID
DIMENSIONS 5 5 17
POINTS 425 float
-2.1213203435596424 -2.1213203435596424 -5.0
-1.3416407864998738 -2.6832815729997477 -5.0
0.0 -3.0 -5.0
1.3416407864998738 -2.6832815729997477 -5.0
2.1213203435596424 -2.1213203435596424 -5.0
-2.6832815729997477 -1.3416407864998738 -5.0
-1.5 -1.5 -5.0
0.0 -1.5 -5.0
1.5 -1.5 -5.0
2.6832815729997477 -1.3416407864998738 -5.0
-3.0 0.0 -5.0
-1.5 0.0 -5.0
0.0 0.0 -5.0
1.5 0.0 -5.0
3.0 0.0 -5.0
-2.6832815729997477 1.3416407864998738 -5.0
-1.5 1.5 -5.0
0.0 1.5 -5.0
1.5 1.5 -5.0
2.6832815729997477 1.3416407864998738 -5.0
-2.1213203435596424 2.1213203435596424 -5.0
-1.3416407864998738 2.6832815729997477 -5.0
0.0 3.0 -5.0
1.3416407864998738 2.6832815729997477 -5.0
2.1213203435596424 2.1213203435596424 -5.0
-2.148232992933822 -2.148232992933822 -4.375
-1.3586618404782562 -2.7173236809565124 -4.375
0.0 -3.0380602337443565 -4.375
1.3586618404782562 -2.7173236809565124 -4.375
2.148232992933822 -2.148232992933822 -4.375
-2.7173236809565124 -1.3586618404782562 -4.375
-1.5190301168721783 -1.5190301168721783 -4.375
0.0 -1.5190301168721783 -4.375
1.5190301168721783 -1.5190301168721783 -4.375
2.7173236809565124 -1.3586618404782562 -4.375
-3.0380602337443565 0.0 -4.375
-1.5190301168721783 0.0 -4.375
0.0 0.0 -4.375
1.5190301168721783 0.0 -4.375
3.0380602337443565 0.0 -4.375
-2.7173236809565124 1.3586618404782562 -4.375
-1.5190301168721783 1.5190301168721783 -4.375
0.0 1.5190301168721783 -4.375
1.5190301168721783 1.5190301168721783 -4.375
2.7173236809565124 1.3586618404782562 -4.375
-2.148232992933822 2.148232992933822 -4.375
-1.3586618404782562 2.7173236809565124 -4.375
0.0 3.0380602337443565 -4.375
1.3586618404782562 2.7173236809565124 -4.375
2.148232992933822 2.148232992933822 -4.375
-2.224873734152916 -2.224873734152916 -3.75
-1.4071337012414338 -2.8142674024828676 -3.75
0.0 -3.146446609406726 -3.75
1.4071337012414338 -2.8142674024828676 -3.75
2.224873734152916 -2.224873734152916 -3.75
-2.8142674024828676 -1.4071337012414338 -3.75
-1.573223304703363 -1.573223304703363 -3.75
0.0 -1.573223304703363 -3.75
1.573223304703363 -1.573223304703363 -3.75
2.8142674024828676 -1.4071337012414338 -3.75
-3.146446609406726 0.0 -3.75
-1.573223304703363 0.0 -3.75
0.0 0.0 -3.75
1.573223304703363 0.0 -3.75
3.146446609406726 0.0 -3.75
-2.8142674024828676 1.4071337012414338 -3.75
-1.573223304703363 1.573223304703363 -3.75
0.0 1.573223304703363 -3.75
1.573223304703363 1.573223304703363 -3.75
2.8142674024828676 1.4071337012414338 -3.75
-2.224873734152916 2.224873734152916 -3.75
-1.4071337012414338 2.8142674024828676 -3.75
0.0 3.146446609406726 -3.75
1.4071337012414338 2.8142674024828676 -3.75
2.224873734152916 2.224873734152916 -3.75
-2.339574709116367 -2.339574709116367 -3.125
-1.4796769673867245 -2.959353934773449 -3.125
0.0 -3.308658283817455 -3.125
1.4796769673867245 -2.959353934773449 -3.125
2.339574709116367 -2.339574709116367 -3.125
-2.959353934773449 -1.4796769673867245 -3.125
-1.6543291419087274 -1.6543291419087274 -3.125
0.0 -1.6543291419087276 -3.125
1.6543291419087274 -1.6543291419087274 -3.125
2.959353934773449 -1.4796769673867245 -3.125
-3.308658283817455 0.0 -3.125
-1.6543291419087276 0.0 -3.125
0.0 0.0 -3.125
1.6543291419087276 0.0 -3.125
3.308658283817455 0.0 -3.125
-2.959353934773449 1.4796769673867245 -3.125
-1.6543291419087274 1.6543291419087274 -3.125
0.0 1.6543291419087276 -3.125
1.6543291419087274 1.6543291419087274 -3.125
2.959353934773449 1.4796769673867245 -3.125
-2.339574709116367 2.339574709116367 -3.125
-1.4796769673867245 2.959353934773449 -3.125
0.0 3.308658283817455 -3.125
1.4796769673867245 2.959353934773449 -3.125
2.339574709116367 2.339574709116367 -3.125
-2.474873734152916 -2.474873734152916 -2.5
-1.5652475842498528 -3.1304951684997055 -2.5
0.0 -3.5 -2.5
1.5652475842498528 -3.1304951684997055 -2.5
2.474873734152916 -2.474873734152916 -2.5
-3.1304951684997055 -1.5652475842498528 -2.5
-1.7499999999999998 -1.7499999999999998 -2.5
0.0 -1.75 -2.5
1.7499999999999998 -1.7499999999999998 -2.5
3.1304951684997055 -1.5652475842498528 -2.5
-3.5 0.0 -2.5
-1.75 0.0 -2.5
0.0 0.0 -2.5
1.75 0.0 -2.5
3.5 0.0 -2.5
-3.1304951684997055 1.5652475842498528 -2.5
-1.7499999999999998 1.7499999999999998 -2.5
0.0 1.75 -2.5
1.7499999999999998 1.7499999999999998 -2.5
3.1304951684997055 1.5652475842498528 -2.5
-2.474873734152916 2.474873734152916 -2.5
-1.5652475842498528 3.1304951684997055 -2.5
0.0 3.5 -2.5
1.5652475842498528 3.1304951684997055 -2.5
2.474873734152916 2.474873734152916 -2.5
-2.6101727591894655 -2.6101727591894655 -1.875
-1.650818201112981 -3.301636402225962 -1.875
0.0 -3.691341716182545 -1.875
1.650818201112981 -3.301636402225962 -1.875
2.6101727591894655 -2.6101727591894655 -1.875
-3.301636402225962 -1.650818201112981 -1.875
-1.8456708580912724 -1.8456708580912724 -1.875
0.0 -1.8456708580912724 -1.875
1.8456708580912724 -1.8456708580912724 -1.875
3.301636402225962 -1.650818201112981 -1.875
-3.691341716182545 0.0 -1.875
-1.8456708580912724 0.0 -1.875
0.0 0.0 -1.875
1.8456708580912724 0.0 -1.875
3.691341716182545 0.0 -1.875
-3.301636402225962 1.650818201112981 -1.875
-1.8456708580912724 1.8456708580912724 -1.875
0.0 1.8456708580912724 -1.875
1.8456708580912724 1.8456708580912724 -1.875
3.301636402225962 1.650818201112981 -1.875
-2.6101727591894655 2.6101727591894655 -1.875
-1.650818201112981 3.301636402225962 -1.875
0.0 3.691341716182545 -1.875
1.650818201112981 3.301636402225962 -1.875
2.6101727591894655 2.6101727591894655 -1.875
-2.7248737341529163 -2.7248737341529163 -1.25
-1.7233614672582718 -3.4467229345165435 -1.25
0.0 -3.853553390593274 -1.25
1.7233614672582718 -3.4467229345165435 -1.25
2.7248737341529163 -2.7248737341529163 -1.25
-3.4467229345165435 -1.7233614672582718 -1.25
-1.926776695296637 -1.926776695296637 -1.25
0.0 -1.926776695296637 -1.25
1.926776695296637 -1.926776695296637 -1.25
3.4467229345165435 -1.7233614672582718 -1.25
-3.853553390593274 0.0 -1.25
-1.926776695296637 0.0 -1.25
0.0 0.0 -1.25
1.926776695296637 0.0 -1.25
3.853553390593274 0.0 -1.25
-3.4467229345165435 1.7233614672582718 -1.25
-1.926776695296637 1.926776695296637 -1.25
0.0 1.926776695296637 -1.25
1.926776695296637 1.926776695296637 -1.25
3.4467229345165435 1.7233614672582718 -1.25
-2.7248737341529163 2.7248737341529163 -1.25
-1.7233614672582718 3.4467229345165435 -1.25
0.0 3.853553390593274 -1.25
1.7233614672582718 3.4467229345165435 -1.25
2.7248737341529163 2.7248737341529163 -1.25
-2.8015144753720103 -2.8015144753720103 -0.625
-1.771833328021449 -3.543666656042898 -0.625
0.0 -3.9619397662556435 -0.625
1.771833328021449 -3.543666656042898 -0.625
2.8015144753720103 -2.8015144753720103 -0.625
-3.543666656042898 -1.771833328021449 -0.625
-1.9809698831278217 -1.9809698831278217 -0.625
0.0 -1.9809698831278217 -0.625
1.9809698831278217 -1.9809698831278217 -0.625
3.543666656042898 -1.771833328021449 -0.625
-3.9619397662556435 0.0 -0.625
-1.9809698831278217 0.0 -0.625
0.0 0.0 -0.625
1.9809698831278217 0.0 -0.625
3.9619397662556435 0.0 -0.625
-3.543666656042898 1.771833328021449 -0.625
-1.9809698831278217 1.9809698831278217 -0.625
0.0 1.9809698831278217 -0.625
1.9809698831278217 1.9809698831278217 -0.625
3.543666656042898 1.771833328021449 -0.625
-2.8015144753720103 2.8015144753720103 -0.625
-1.771833328021449 3.543666656042898 -0.625
0.0 3.9619397662556435 -0.625
1.771833328021449 3.543666656042898 -0.625
2.8015144753720103 2.8015144753720103 -0.625
-2.82842712474619 -2.82842712474619 0.0
-1.7888543819998317 -3.5777087639996634 0.0
0.0 -4.0 0.0
1.7888543819998317 -3.5777087639996634 0.0
2.82842712474619 -2.82842712474619 0.0
-3.5777087639996634 -1.7888543819998317 0.0
-2.0 -2.0 0.0
0.0 -2.0 0.0
2.0 -2.0 0.0
3.5777087639996634 -1.7888543819998317 0.0
-4.0 0.0 0.0
-2.0 0.0 0.0
0.0 0.0 0.0
2.0 0.0 0.0
4.0 0.0 0.0
-3.5777087639996634 1.7888543819998317 0.0
-2.0 2.0 0.0
0.0 2.0 0.0
2.0 2.0 0.0
3.5777087639996634 1.7888543819998317 0.0
-2.82842712474619 2.82842712474619 0.0
-1.7888543819998317 3.5777087639996634 0.0
0.0 4.0 0.0
1.7888543819998317 3.5777087639996634 0.0
2.82842712474619 2.82842712474619 0.0
-2.8015144753720103 -2.8015144753720103 0.625
-1.771833328021449 -3.543666656042898 0.625
0.0 -3.9619397662556435 0.625
1.771833328021449 -3.543666656042898 0.625
2.8015144753720103 -2.8015144753720103 0.625
-3.543666656042898 -1.771833328021449 0.625
-1.9809698831278217 -1.9809698831278217 0.625
0.0 -1.9809698831278217 0.625
1.9809698831278217 -1.9809698831278217 0.625
3.543666656042898 -1.771833328021449 0.625
-3.9619397662556435 0.0 0.625
-1.9809698831278217 0.0 0.625
0.0 0.0 0.625
1.9809698831278217 0.0 0.625
3.9619397662556435 0.0 0.625
-3.543666656042898 1.771833328021449 0.625
-1.9809698831278217 1.9809698831278217 0.625
0.0 1.9809698831278217 0.625
1.9809698831278217 1.9809698831278217 0.625
3.543666656042898 1.771833328021449 0.625
-2.8015144753720103 2.8015144753720103 0.625
-1.771833328021449 3.543666656042898 0.625
0.0 3.9619397662556435 0.625
1.771833328021449 3.543666656042898 0.625
2.8015144753720103 2.8015144753720103 0.625
-2.7248737341529163 -2.7248737341529163 1.25
-1.7233614672582718 -3.4467229345165435 1.25
0.0 -3.853553390593274 1.25
1.7233614672582718 -3.4467229345165435 1.25
2.7248737341529163 -2.7248737341529163 1.25
-3.4467229345165435 -1.7233614672582718 1.25
-1.926776695296637 -1.926776695296637 1.25
0.0 -1.926776695296637 1.25
1.926776695296637 -1.926776695296637 1.25
3.4467229345165435 -1.7233614672582718 1.25
-3.853553390593274 0.0 1.25
-1.926776695296637 0.0 1.25
0.0 0.0 1.25
1.926776695296637 0.0 1.25
3.853553390593274 0.0 1.25
-3.4467229345165435 1.7233614672582718 1.25
-1.926776695296637 1.926776695296637 1.25
0.0 1.926776695296637 1.25
1.926776695296637 1.926776695296637 1.25
3.4467229345165435 1.7233614672582718 1.25
-2.7248737341529163 2.7248737341529163 1.25
-1.7233614672582718 3.4467229345165435 1.25
0.0 3.853553390593274 1.25
1.7233614672582718 3.4467229345165435 1.25
2.7248737341529163 2.7248737341529163 1.25
-2.6101727591894655 -2.6101727591894655 1.875
-1.650818201112981 -3.301636402225962 1.875
0.0 -3.691341716182545 1.875
1.650818201112981 -3.301636402225962 1.875
2.6101727591894655 -2.6101727591894655 1.875
-3.301636402225962 -1.650818201112981 1.875
-1.8456708580912724 -1.8456708580912724 1.875
0.0 -1.8456708580912724 1.875
1.8456708580912724 -1.8456708580912724 1.875
3.301636402225962 -1.650818201112981 1.875
-3.691341716182545 0.0 1.875
-1.8456708580912724 0.0 1.875
0.0 0.0 1.875
1.8456708580912724 0.0 1.875
3.691341716182545 0.0 1.875
-3.301636402225962 1.650818201112981 1.875
-1.8456708580912724 1.8456708580912724 1.875
0.0 1.8456708580912724 1.875
1.8456708580912724 1.8456708580912724 1.875
3.301636402225962 1.650818201112981 1.875
-2.6101727591894655 2.6101727591894655 1.875
-1.650818201112981 3.301636402225962 1.875
0.0 3.691341716182545 1.875
1.650818201112981 3.301636402225962 1.875
2.6101727591894655 2.6101727591894655 1.875
-2.474873734152916 -2.474873734152916 2.5
-1.5652475842498528 -3.1304951684997055 2.5
0.0 -3.5 2.5
1.5652475842498528 -3.1304951684997055 2.5
2.474873734152916 -2.474873734152916 2.5
-3.1304951684997055 -1.5652475842498528 2.5
-1.7499999999999998 -1.7499999999999998 2.5
0.0 -1.75 2.5
1.7499999999999998 -1.7499999999999998 2.5
3.1304951684997055 -1.5652475842498528 2.5
-3.5 0.0 2.5
-1.75 0.0 2.5
0.0 0.0 2.5
1.75 0.0 2.5
3.5 0.0 2.5
-3.1304951684997055 1.5652475842498528 2.5
-1.7499999999999998 1.7499999999999998 2.5
0.0 1.75 2.5
1.7499999999999998 1.7499999999999998 2.5
3.1304951684997055 1.5652475842498528 2.5
-2.474873734152916 2.474873734152916 2.5
-1.5652475842498528 3.1304951684997055 2.5
0.0 3.5 2.5
1.5652475842498528 3.1304951684997055 2.5
2.474873734152916 2.474873734152916 2.5
-2.339574709116367 -2.339574709116367 3.125
-1.4796769673867245 -2.959353934773449 3.125
0.0 -3.308658283817455 3.125
1.4796769673867245 -2.959353934773449 3.125
2.339574709116367 -2.339574709116367 3.125
-2.959353934773449 -1.4796769673867245 3.125
-1.6543291419087274 -1.6543291419087274 3.125
0.0 -1.6543291419087276 3.125
1.6543291419087274 -1.6543291419087274 3.125
2.959353934773449 -1.4796769673867245 3.125
-3.308658283817455 0.0 3.125
-1.6543291419087276 0.0 3.125
0.0 0.0 3.125
1.6543291419087276 0.0 3.125
3.308658283817455 0.0 3.125
-2.959353934773449 1.4796769673867245 3.125
-1.6543291419087274 1.6543291419087274 3.125
0.0 1.6543291419087276 3.125
1.6543291419087274 1.6543291419087274 3.125
2.959353934773449 1.4796769673867245 3.125
-2.339574709116367 2.339574709116367 3.125
-1.4796769673867245 2.959353934773449 3.125
0.0 3.308658283817455 3.125
1.4796769673867245 2.959353934773449 3.125
2.339574709116367 2.339574709116367 3.125
-2.224873734152916 -2.224873734152916 3.75
-1.4071337012414338 -2.8142674024828676 3.75
0.0 -3.146446609406726 3.75
1.4071337012414338 -2.8142674024828676 3.75
2.224873734152916 -2.224873734152916 3.75
-2.8142674024828676 -1.4071337012414338 3.75
-1.573223304703363 -1.573223304703363 3.75
0.0 -1.573223304703363 3.75
1.573223304703363 -1.573223304703363 3.75
2.8142674024828676 -1.4071337012414338 3.75
-3.146446609406726 0.0 3.75
-1.573223304703363 0.0 3.75
0.0 0.0 3.75
1.573223304703363 0.0 3.75
3.146446609406726 0.0 3.75
-2.8142674024828676 1.4071337012414338 3.75
-1.573223304703363 1.573223304703363 3.75
0.0 1.573223304703363 3.75
1.573223304703363 1.573223304703363 3.75
2.8142674024828676 1.4071337012414338 3.75
-2.224873734152916 2.224873734152916 3.75
-1.4071337012414338 2.8142674024828676 3.75
0.0 3.146446609406726 3.75
1.4071337012414338 2.8142674024828676 3.75
2.224873734152916 2.224873734152916 3.75
-2.148232992933822 -2.148232992933822 4.375
-1.3586618404782562 -2.7173236809565124 4.375
0.0 -3.0380602337443565 4.375
1.3586618404782562 -2.7173236809565124 4.375
2.148232992933822 -2.148232992933822 4.375
-2.7173236809565124 -1.3586618404782562 4.375
-1.5190301168721783 -1.5190301168721783 4.375
0.0 -1.5190301168721783 4.375
1.5190301168721783 -1.5190301168721783 4.375
2.7173236809565124 -1.3586618404782562 4.375
-3.0380602337443565 0.0 4.375
-1.5190301168721783 0.0 4.375
0.0 0.0 4.375
1.5190301168721783 0.0 4.375
3.0380602337443565 0.0 4.375
-2.7173236809565124 1.3586618404782562 4.375
-1.5190301168721783 1.5190301168721783 4.375
0.0 1.5190301168721783 4.375
1.5190301168721783 1.5190301168721783 4.375
2.7173236809565124 1.3586618404782562 4.375
-2.148232992933822 2.148232992933822 4.375
-1.3586618404782562 2.7173236809565124 4.375
0.0 3.0380602337443565 4.375
1.3586618404782562 2.7173236809565124 4.375
2.148232992933822 2.148232992933822 4.375
-2.1213203435596424 -2.1213203435596424 5.0
-1.3416407864998738 -2.6832815729997477 5.0
0.0 -3.0 5.0
1.3416407864998738 -2.6832815729997477 5.0
2.1213203435596424 -2.1213203435596424 5.0
-2.6832815729997477 -1.3416407864998738 5.0
-1.5 -1.5 5.0
0.0 -1.5 5.0
1.5 -1.5 5.0
2.6832815729997477 -1.3416407864998738 5.0
-3.0 0.0 5.0
-1.5 0.0 5.0
0.0 0.0 5.0
1.5 0.0 5.0
3.0 0.0 5.0
-2.6832815729997477 1.3416407864998738 5.0
-1.5 1.5 5.0
0.0 1.5 5.0
1.5 1.5 5.0
2.6832815729997477 1.3416407864998738 5.0
-2.1213203435596424 2.1213203435596424 5.0
-1.3416407864998738 2.6832815729997477 5.0
0.0 3.0 5.0
1.3416407864998738 2.6832815729997477 5.0
2.1213203435596424 2.1213203435596424 5.0
